{
.appVersion = "3108";
.formatVersion = 3;
axes = (
{
name = Weight;
tag = wght;
}
);
classes = (
{
automatic = 1;
code = "CR space A Adieresis B C D E F G H I J K L M N O Odieresis P Q R S T U Udieresis V W X Y Z a adieresis b c d e f g h i j k l m n o odieresis p q r s t u udieresis v w x y z uni0410 uni0411 uni0412 uni0413 uni0414 uni0415 uni0416 uni0417 uni0418 uni0419 uni041A uni041B uni041C uni041D uni041E uni041F uni0420 uni0421 uni0422 uni0423 uni0424 uni0425 uni0427 uni0426 uni0428 uni0429 uni042C uni042B uni042A uni042D uni042E uni042F uni0430 uni0431 uni0432 uni0433 uni0434 uni0435 uni0451 uni0436 uni0437 uni0438 uni0439 uni043A uni043B uni043C uni043D uni043E uni043F uni0440 uni0441 uni0442 uni0443 uni0444 uni0445 uni0447 uni0446 uni0448 uni0449 uni044C uni044B uni044A uni044D uni044E uni044F zero one two three four five six seven eight nine CR.001 uni00A0 period comma exclam question endash emdash underscore uni2010 parenleft parenright guillemotleft guillemotright quotedbl plus equal";
name = All;
},
{
automatic = 1;
code = "A Adieresis B C D E F G H I J K L M N O Odieresis P Q R S T U Udieresis V W X Y Z a adieresis b c d e f g h i j k l m n o odieresis p q r s t u udieresis v w x y z uni0410 uni0411 uni0412 uni0413 uni0414 uni0415 uni0416 uni0417 uni0418 uni0419 uni041A uni041B uni041C uni041D uni041E uni041F uni0420 uni0421 uni0422 uni0423 uni0424 uni0425 uni0427 uni0426 uni0428 uni0429 uni042C uni042B uni042A uni042D uni042E uni042F uni0430 uni0431 uni0432 uni0433 uni0434 uni0435 uni0451 uni0436 uni0437 uni0438 uni0439 uni043A uni043B uni043C uni043D uni043E uni043F uni0440 uni0441 uni0442 uni0443 uni0444 uni0445 uni0447 uni0446 uni0448 uni0449 uni044C uni044B uni044A uni044D uni044E uni044F";
name = AllLetters;
},
{
automatic = 1;

glyphs = (
{
glyphname = .notdef;
lastChange = "2022-03-19 16:18:40 +0000";
layers = (
{
hints = (
{
horizontal = 1;
place = (0, 50);
place = (0, 50);
type = Stem;
},
{
horizontal = 1;
place = (117, 67);
place = (117, 67);
type = Stem;
},
{
horizontal = 1;
place = (559, 50);
place = (559, 50);
type = Stem;
},
{
horizontal = 1;
place = (667, 51);
place = (667, 51);
type = Stem;
},
{
place = (0, 50);
place = (0, 50);
type = Stem;
},
{
place = (124, 50);
place = (124, 50);
type = Stem;
},
{
place = (222, 56);
place = (222, 56);
type = Stem;
},
{
place = (332, 51);
place = (332, 51);
type = Stem;
},
{
place = (462, 50);
place = (462, 50);
type = Stem;
},
{
place = (223, 48);
place = (223, 48);
type = Stem;
},
{
place = (0, 174);
place = (0, 174);
type = Stem;
}
);
layerId = m01;
shapes = (
{
closed = 1;
nodes = (
(512,0,l),
(512,718,l),
(0,718,l),
(0,0,l)
);
},
{
closed = 1;
nodes = (
(278,117,l),
(278,184,l),
(222,184,l),
(222,117,l)
);
},
{
closed = 1;
nodes = (
(50,667,l),
(462,667,l),
(462,50,l),
(50,50,l)
);
},
{
closed = 1;
nodes = (
(271,234,l),
(271,269,o),
(273,293,o),
(277,306,cs),
(281,319,o),
(295,336,o),
(320,358,cs),
(369,403,o),
(383,433,o),
(383,478,cs),
(383,557,o),
(331,609,o),
(259,609,cs),
(184,609,o),
(133,564,o),
(124,472,c),
(174,464,l),
(181,527,o),
(209,559,o),
(256,559,cs),
(297,559,o),
(332,522,o),
(332,474,cs),
(332,447,o),
(323,430,o),
(282,391,cs),
(261,370,o),
(246,351,o),
(236,332,cs),
(227,315,o),
(223,288,o),
(223,251,c),
(225,234,l)
);
}
);
width = 512;
},
{
hints = (
{
horizontal = 1;
place = (0, 50);
place = (0, 50);
type = Stem;
},
{
horizontal = 1;
place = (117, 67);
place = (117, 67);
type = Stem;
},
{
horizontal = 1;
place = (559, 50);
place = (559, 50);
type = Stem;
},
{
horizontal = 1;
place = (667, 51);
place = (667, 51);
type = Stem;
},
{
place = (0, 50);
place = (0, 50);
type = Stem;
},
{
place = (124, 50);
place = (124, 50);
type = Stem;
},
{
place = (222, 56);
place = (222, 56);
type = Stem;
},
{
place = (332, 51);
place = (332, 51);
type = Stem;
},
{
place = (462, 50);
place = (462, 50);
type = Stem;
},
{
place = (223, 48);
place = (223, 48);
type = Stem;
},
{
place = (0, 174);
place = (0, 174);
type = Stem;
}
);
layerId = "6CD8BB23-51D6-4109-A2DC-8CCFF044BB0C";
shapes = (
{
closed = 1;
nodes = (
(278,184,l),
(222,184,l),
(222,117,l),
(278,117,l)
);
},
{
closed = 1;
nodes = (
(271,234,l),
(271,269,o),
(273,293,o),
(277,306,cs),
(281,319,o),
(295,336,o),
(320,358,cs),
(369,403,o),
(383,433,o),
(383,478,cs),
(383,557,o),
(331,609,o),
(259,609,cs),
(184,609,o),
(133,564,o),
(124,472,c),
(174,464,l),
(181,527,o),
(209,559,o),
(256,559,cs),
(297,559,o),
(332,522,o),
(332,474,cs),
(332,447,o),
(323,430,o),
(282,391,cs),
(261,370,o),
(246,351,o),
(236,332,cs),
(227,315,o),
(223,288,o),
(223,251,c),
(225,234,l)
);
},
{
closed = 1;
nodes = (
(50,667,l),
(462,667,l),
(462,50,l),
(50,50,l)
);
},
{
closed = 1;
nodes = (
(0,0,l),
(512,0,l),
(512,718,l),
(0,718,l)
);
}
);
width = 512;
},
{
hints = (
{
horizontal = 1;
place = (0, 50);
place = (0, 50);
type = Stem;
},
{
horizontal = 1;
place = (117, 67);
place = (117, 67);
type = Stem;
},
{
horizontal = 1;
place = (559, 50);
place = (559, 50);
type = Stem;
},
{
horizontal = 1;
place = (667, 51);
place = (667, 51);
type = Stem;
},
{
place = (0, 50);
place = (0, 50);
type = Stem;
},
{
place = (124, 50);
place = (124, 50);
type = Stem;
},
{
place = (222, 56);
place = (222, 56);
type = Stem;
},
{
place = (332, 51);
place = (332, 51);
type = Stem;
},
{
place = (462, 50);
place = (462, 50);
type = Stem;
},
{
place = (223, 48);
place = (223, 48);
type = Stem;
},
{
place = (0, 174);
place = (0, 174);
type = Stem;
}
);
layerId = "80940EE0-8DDD-4B41-B259-288445DE0F27";
shapes = (
{
closed = 1;
nodes = (
(278,184,l),
(222,184,l),
(222,117,l),
(278,117,l)
);
},
{
closed = 1;
nodes = (
(271,234,l),
(271,269,o),
(273,293,o),
(277,306,cs),
(281,319,o),
(295,336,o),
(320,358,cs),
(369,403,o),
(383,433,o),
(383,478,cs),
(383,557,o),
(331,609,o),
(259,609,cs),
(184,609,o),
(133,564,o),
(124,472,c),
(174,464,l),
(181,527,o),
(209,559,o),
(256,559,cs),
(297,559,o),
(332,522,o),
(332,474,cs),
(332,447,o),
(323,430,o),
(282,391,cs),
(261,370,o),
(246,351,o),
(236,332,cs),
(227,315,o),
(223,288,o),
(223,251,c),
(225,234,l)
);
},
{
closed = 1;
nodes = (
(50,667,l),
(462,667,l),
(462,50,l),
(50,50,l)
);
},
{
closed = 1;
nodes = (
(0,0,l),
(512,0,l),
(512,718,l),
(0,718,l)
);
}
);
width = 512;
},
{
layerId = "823AF154-79AE-4916-A822-17021D358B90";
shapes = (
{
closed = 1;
nodes = (
(222,184,l),
(222,117,l),
(278,117,l),
(278,184,l)
);
},
{
closed = 1;
nodes = (
(277,306,qs),
(283,325,o),
(320,358,qs),
(357,392,o),
(383,444,o),
(383,478,qs),
(383,537,o),
(313,609,o),
(259,609,qs),
(203,609,o),
(131,541,o),
(124,472,q),
(174,464,l),
(185,559,o),
(256,559,qs),
(287,559,o),
(332,510,o),
(332,474,qs),
(332,454,o),
(313,420,o),
(282,391,qs),
(251,360,o),
(236,332,qs),
(223,307,o),
(223,251,q),
(225,234,l),
(271,234,l),
(271,286,o)
);
},
{
closed = 1;
nodes = (
(462,667,l),
(462,50,l),
(50,50,l),
(50,667,l)
);
},
{
closed = 1;
nodes = (
(512,0,l),
(512,718,l),
(0,718,l),
(0,0,l)
);
}
);
width = 512;
}
);
note = ".notdef";
},
{
glyphname = A;
lastChange = "2022-03-29 17:00:50 +0000";
layers = (
{
hints = (
{
horizontal = 1;
place = (203, 19);
place = (203, 19);
type = Stem;
},
{
horizontal = 1;
place = (694, 14);
place = (694, 14);
type = Stem;
},
{
place = (18, 630);
place = (18, 630);
type = Stem;
}
);
layerId = m01;
shapes = (
{
closed = 1;
nodes = (
(238,708,l),
(-69,0,l),
(-45,0,l),
(42,203,l),
(453,203,l),
(537,0,l),
(561,0,l),
(266,708,l)
);
},
{
closed = 1;
nodes = (
(251,694,l),
(446,222,l),
(50,222,l)
);
}
);
width = 568;
},
{
hints = (
{
horizontal = 1;
place = (104, 182);
place = (104, 182);
type = Stem;
},
{
place = (-16, 808);
place = (-16, 808);
type = Stem;
}
);
layerId = "6CD8BB23-51D6-4109-A2DC-8CCFF044BB0C";
shapes = (
{
closed = 1;
nodes = (
(203,104,l),
(428,104,l),
(465,0,l),
(724,0,l),
(448,708,l),
(195,708,l),
(-84,0,l),
(168,0,l)
);
},
{
closed = 1;
nodes = (
(318,461,l),
(375,286,l),
(260,286,l)
);
}
);
width = 706;
},
{
hints = (
{
horizontal = 1;
place = (186, 66);
place = (186, 66);
type = Stem;
},
{
place = (10, 680);
place = (10, 680);
type = Stem;
}
);
layerId = "80940EE0-8DDD-4B41-B259-288445DE0F27";
shapes = (
{
closed = 1;
nodes = (
(549,0,l),
(629,0,l),
(325,708,l),
(255,708,l),
(-51,0,l),
(28,0,l),
(105,186,l),
(471,186,l)
);
},
{
closed = 1;
nodes = (
(132,252,l),
(288,628,l),
(444,252,l)
);
}
);
width = 640;
},
{
layerId = "823AF154-79AE-4916-A822-17021D358B90";
shapes = (
{
closed = 1;
nodes = (
(280,708,l),
(-17,0,l),
(169,0,l),
(221,139,l),
(495,139,l),
(550,0,l),
(740,0,l),
(446,708,l)
);
},
{
closed = 1;
nodes = (
(360,519,l),
(448,276,l),
(270,276,l)
);
}
);
width = 759;
}
);
note = A;
unicode = 65;
},
{
glyphname = Adieresis;
lastChange = "2022-04-03 13:12:23 +0000";
layers = (
{
hints = (
{
horizontal = 1;
place = (203, 19);
place = (203, 19);
type = Stem;
},
{
horizontal = 1;
place = (694, 14);
place = (694, 14);
type = Stem;
},
{
horizontal = 1;
place = (832, 52);
place = (832, 52);
type = Stem;
},
{
place = (238, 46);
place = (238, 46);
type = Stem;
},
{
place = (392, 46);
place = (392, 46);
type = Stem;
}
);
layerId = m01;
shapes = (
{
closed = 1;
nodes = (
(315,812,o),
(322,805,o),
(322,795,cs),
(322,785,o),
(315,778,o),
(305,778,cs),
(295,778,o),
(288,785,o),
(288,795,cs),
(288,805,o),
(295,812,o),
(305,812,cs)
);
},
{
closed = 1;
nodes = (
(389,812,o),
(396,805,o),
(396,795,cs),
(396,785,o),
(389,778,o),
(379,778,cs),
(369,778,o),
(362,785,o),
(362,795,cs),
(362,805,o),
(369,812,o),
(379,812,cs)
);
},
{
closed = 1;
nodes = (
(326,708,l),
(19,0,l),
(43,0,l),
(130,203,l),
(541,203,l),
(625,0,l),
(649,0,l),
(354,708,l)
);
},
{
closed = 1;
nodes = (
(339,694,l),
(534,222,l),
(138,222,l)
);
}
);
width = 666;
},
{
hints = (
{
horizontal = 1;
place = (104, 182);
place = (104, 182);
type = Stem;
},
{
horizontal = 1;
place = (760, 197);
place = (760, 197);
type = Stem;
},
{
place = (-16, 808);
place = (-16, 808);
type = Stem;
}
);
layerId = "6CD8BB23-51D6-4109-A2DC-8CCFF044BB0C";
shapes = (
{
closed = 1;
nodes = (
(317,955,o),
(359,913,o),
(359,856,cs),
(359,799,o),
(317,757,o),
(260,757,cs),
(205,757,o),
(163,799,o),
(163,856,cs),
(163,913,o),
(205,955,o),
(260,955,cs)
);
},
{
closed = 1;
nodes = (
(584,955,o),
(626,913,o),
(626,856,cs),
(626,799,o),
(584,757,o),
(527,757,cs),
(472,757,o),
(430,799,o),
(430,856,cs),
(430,913,o),
(472,955,o),
(527,955,cs)
);
},
{
closed = 1;
nodes = (
(277,104,l),
(502,104,l),
(539,0,l),
(798,0,l),
(522,708,l),
(269,708,l),
(-10,0,l),
(242,0,l)
);
},
{
closed = 1;
nodes = (
(392,461,l),
(449,286,l),
(334,286,l)
);
}
);
width = 776;
},
{
hints = (
{
horizontal = 1;
place = (186, 66);
place = (186, 66);
type = Stem;
},
{
horizontal = 1;
place = (796, 102);
place = (796, 102);
type = Stem;
},
{
place = (204, 102);
place = (204, 102);
type = Stem;
},
{
place = (396, 102);
place = (396, 102);
type = Stem;
}
);
layerId = "80940EE0-8DDD-4B41-B259-288445DE0F27";
shapes = (
{
closed = 1;
nodes = (
(299,897,o),
(320,876,o),
(320,847,cs),
(320,818,o),
(299,797,o),
(270,797,cs),
(242,797,o),
(221,818,o),
(221,847,cs),
(221,876,o),
(242,897,o),
(270,897,cs)
);
},
{
closed = 1;
nodes = (
(469,897,o),
(490,876,o),
(490,847,cs),
(490,818,o),
(469,797,o),
(440,797,cs),
(412,797,o),
(391,818,o),
(391,847,cs),
(391,876,o),
(412,897,o),
(440,897,cs)
);
},
{
closed = 1;
nodes = (
(615,0,l),
(695,0,l),
(391,708,l),
(321,708,l),
(15,0,l),
(94,0,l),
(171,186,l),
(537,186,l)
);
},
{
closed = 1;
nodes = (
(198,252,l),
(354,628,l),
(510,252,l)
);
}
);
width = 700;
},
{
layerId = "823AF154-79AE-4916-A822-17021D358B90";
shapes = (
{
closed = 1;
nodes = (
(301,939,o),
(335,905,o),
(335,859,cs),
(335,813,o),
(301,779,o),
(255,779,cs),
(210,779,o),
(176,813,o),
(176,859,cs),
(176,905,o),
(210,939,o),
(255,939,cs)
);
},
{
closed = 1;
nodes = (
(532,939,o),
(566,905,o),
(566,859,cs),
(566,813,o),
(532,779,o),
(486,779,cs),
(441,779,o),
(407,813,o),
(407,859,cs),
(407,905,o),
(441,939,o),
(486,939,cs)
);
},
{
closed = 1;
nodes = (
(289,708,l),
(-8,0,l),
(178,0,l),
(230,139,l),
(504,139,l),
(559,0,l),
(749,0,l),
(455,708,l)
);
},
{
closed = 1;
nodes = (
(369,519,l),
(457,276,l),
(279,276,l)
);
}
);
width = 729;
}
);
note = Adieresis;
unicode = 196;
},
{
glyphname = B;
lastChange = "2022-03-19 16:18:40 +0000";
layers = (
{
hints = (
{
horizontal = 1;
place = (0, 20);
place = (0, 20);
type = Stem;
},
{
horizontal = 1;
place = (363, 20);
place = (363, 20);
type = Stem;
},
{
horizontal = 1;
place = (688, 20);
place = (688, 20);
type = Stem;
},
{
place = (106, 22);
place = (106, 22);
type = Stem;
},
{
place = (496, 22);
place = (496, 22);
type = Stem;
},
{
place = (529, 22);
place = (529, 22);
type = Stem;
}
);
layerId = m01;
shapes = (
{
closed = 1;
nodes = (
(323,0,ls),
(439,0,o),
(551,49,o),
(551,189,cs),
(551,302,o),
(462,366,o),
(374,374,c),
(374,376,l),
(457,395,o),
(518,448,o),
(518,541,cs),
(518,665,o),
(419,708,o),
(299,708,cs),
(106,708,l),
(106,0,l)
);
},
{
closed = 1;
nodes = (
(128,363,l),
(324,363,ls),
(437,363,o),
(529,300,o),
(529,186,cs),
(529,74,o),
(444,20,o),
(313,20,cs),
(128,20,l)
);
},
{
closed = 1;
nodes = (
(128,688,l),
(293,688,ls),
(413,688,o),
(496,645,o),
(496,538,cs),
(496,437,o),
(406,383,o),
(298,383,cs),
(128,383,l)
);
}
);
width = 612;
},
{
hints = (
{
horizontal = 1;
place = (0, 187);
place = (0, 187);
type = Stem;
},
{
horizontal = 1;
place = (283, 153);
place = (283, 153);
type = Stem;
},
{
horizontal = 1;
place = (523, 185);
place = (523, 185);
type = Stem;
},
{
place = (66, 222);
place = (66, 222);
type = Stem;
}
);
layerId = "6CD8BB23-51D6-4109-A2DC-8CCFF044BB0C";
shapes = (
{
closed = 1;
nodes = (
(387,0,ls),
(535,0,o),
(662,57,o),
(662,207,cs),
(662,290,o),
(602,351,o),
(529,368,c),
(529,371,l),
(598,398,o),
(633,447,o),
(633,520,cs),
(633,645,o),
(541,708,o),
(357,708,cs),
(66,708,l),
(66,0,l)
);
},
{
closed = 1;
nodes = (
(288,283,l),
(349,283,ls),
(386,283,o),
(422,269,o),
(422,236,cs),
(422,205,o),
(398,187,o),
(359,187,cs),
(288,187,l)
);
},
{
closed = 1;
nodes = (
(288,523,l),
(347,523,ls),
(388,523,o),
(409,510,o),
(409,483,cs),
(409,452,o),
(390,436,o),
(352,436,cs),
(288,436,l)
);
}
);
width = 693;
},
{
hints = (
{
horizontal = 1;
place = (0, 62);
place = (0, 62);
type = Stem;
},
{
horizontal = 1;
place = (339, 59);
place = (339, 59);
type = Stem;
},
{
horizontal = 1;
place = (646, 62);
place = (646, 62);
type = Stem;
},
{
place = (94, 72);
place = (94, 72);
type = Stem;
},
{
place = (495, 73);
place = (495, 73);
type = Stem;
},
{
place = (461, 72);
place = (461, 72);
type = Stem;
}
);
layerId = "80940EE0-8DDD-4B41-B259-288445DE0F27";
shapes = (
{
closed = 1;
nodes = (
(304,0,ls),
(467,0,o),
(568,77,o),
(568,196,cs),
(568,296,o),
(503,362,o),
(408,373,c),
(408,375,l),
(483,392,o),
(533,452,o),
(533,527,cs),
(533,660,o),
(430,708,o),
(305,708,cs),
(94,708,l),
(94,0,l)
);
},
{
closed = 1;
nodes = (
(166,339,l),
(313,339,ls),
(430,339,o),
(495,292,o),
(495,200,cs),
(495,107,o),
(413,62,o),
(300,62,cs),
(166,62,l)
);
},
{
closed = 1;
nodes = (
(166,646,l),
(291,646,ls),
(392,646,o),
(461,607,o),
(461,522,cs),
(461,437,o),
(392,398,o),
(311,398,cs),
(166,398,l)
);
}
);
width = 636;
},
{
layerId = "823AF154-79AE-4916-A822-17021D358B90";
shapes = (
{
closed = 1;
nodes = (
(544,360,o),
(480,371,q),
(480,373,l),
(534,391,o),
(596,469,o),
(596,526,qs),
(596,577,o),
(553,652,o),
(479,691,o),
(400,708,o),
(355,708,qs),
(73,708,l),
(73,0,l),
(355,0,ls),
(408,0,o),
(501,22,o),
(580,68,o),
(625,151,o),
(625,206,qs),
(625,273,o)
);
},
{
closed = 1;
nodes = (
(378,426,o),
(330,426,qs),
(238,426,l),
(238,572,l),
(322,572,ls),
(431,572,o),
(431,503,qs),
(431,466,o)
);
},
{
closed = 1;
nodes = (
(334,138,qs),
(238,138,l),
(238,300,l),
(333,300,ls),
(454,300,o),
(454,222,qs),
(454,138,o)
);
}
);
width = 665;
}
);
note = B;
unicode = 66;
},
{
glyphname = C;
lastChange = "2022-04-05 08:45:08 +0000";
layers = (
{
hints = (
{
horizontal = 1;
place = (-20, 20);
place = (-20, 20);
type = Stem;
},
{
horizontal = 1;
place = (708, 20);
place = (708, 20);
type = Stem;
},
{
place = (72, 22);
place = (72, 22);
type = Stem;
}
);
layerId = m01;
shapes = (
{
closed = 1;
nodes = (
(670,102,l),
(617,37,o),
(524,0,o),
(433,0,cs),
(232,0,o),
(94,154,o),
(94,354,cs),
(94,554,o),
(234,708,o),
(433,708,cs),
(513,708,o),
(601,678,o),
(654,621,c),
(668,637,l),
(610,698,o),
(532,728,o),
(433,728,cs),
(222,728,o),
(72,571,o),
(72,354,cs),
(72,137,o),
(221,-20,o),
(433,-20,cs),
(532,-20,o),
(629,18,o),
(686,87,c)
);
}
);
width = 724;
},
{
hints = (
{
horizontal = 1;
place = (-20, 223);
place = (-20, 223);
type = Stem;
},
{
horizontal = 1;
place = (507, 221);
place = (507, 221);
type = Stem;
},
{
place = (34, 256);
place = (34, 256);
type = Stem;
}
);
layerId = "6CD8BB23-51D6-4109-A2DC-8CCFF044BB0C";
shapes = (
{
closed = 1;
nodes = (
(34,134,o),
(202,-20,o),
(419,-20,cs),
(534,-20,o),
(626,15,o),
(696,85,c),
(550,260,l),
(523,222,o),
(484,203,o),
(433,203,cs),
(353,203,o),
(290,265,o),
(290,354,cs),
(290,446,o),
(352,507,o),
(433,507,cs),
(485,507,o),
(524,489,o),
(550,454,c),
(696,630,l),
(631,690,o),
(527,728,o),
(419,728,cs),
(200,728,o),
(34,577,o),
(34,354,cs)
);
}
);
width = 746;
},
{
hints = (
{
horizontal = 1;
place = (-18, 63);
place = (-18, 63);
type = Stem;
},
{
horizontal = 1;
place = (663, 63);
place = (663, 63);
type = Stem;
},
{
place = (56, 76);
place = (56, 76);
type = Stem;
}
);
layerId = "80940EE0-8DDD-4B41-B259-288445DE0F27";
shapes = (
{
closed = 1;
nodes = (
(634,150,l),
(587,80,o),
(518,45,o),
(426,45,cs),
(250,45,o),
(132,182,o),
(132,354,cs),
(132,526,o),
(249,663,o),
(426,663,cs),
(510,663,o),
(584,621,o),
(617,570,c),
(677,614,l),
(628,682,o),
(529,726,o),
(425,726,cs),
(213,726,o),
(56,569,o),
(56,354,cs),
(56,139,o),
(212,-18,o),
(425,-18,cs),
(545,-18,o),
(639,37,o),
(690,114,c)
);
}
);
width = 720;
},
{
hints = (
{
horizontal = 1;
place = (-21, 157);
place = (-21, 157);
type = Stem;
},
{
horizontal = 1;
place = (570, 155);
place = (570, 155);
type = Stem;
},
{
place = (46, 186);
place = (46, 186);
type = Stem;
}
);
layerId = "823AF154-79AE-4916-A822-17021D358B90";
shapes = (
{
closed = 1;
nodes = (
(526,138,o),
(427,138,qs),
(338,138,o),
(226,259,o),
(226,355,qs),
(226,449,o),
(341,572,o),
(430,572,qs),
(473,572,o),
(550,539,o),
(573,507,q),
(689,623,l),
(646,672,o),
(501,727,o),
(424,727,qs),
(259,727,o),
(40,522,o),
(40,355,qs),
(40,190,o),
(256,-19,o),
(421,-19,qs),
(595,-19,o),
(696,98,q),
(577,210,l)
);
}
);
width = 741;
}
);
note = C;
unicode = 67;
},
{
glyphname = D;
lastChange = "2022-04-05 08:45:12 +0000";
layers = (
{
hints = (
{
horizontal = 1;
place = (0, 20);
place = (0, 20);
type = Stem;
},
{
horizontal = 1;
place = (688, 20);
place = (688, 20);
type = Stem;
},
{
place = (106, 23);
place = (106, 23);
type = Stem;
},
{
place = (675, 23);
place = (675, 23);
type = Stem;
}
);
layerId = m01;
shapes = (
{
closed = 1;
nodes = (
(698,589,o),
(540,708,o),
(307,708,cs),
(106,708,l),
(106,0,l),
(307,0,ls),
(528,0,o),
(698,110,o),
(698,354,cs)
);
},
{
closed = 1;
nodes = (
(302,688,ls),
(525,688,o),
(675,578,o),
(675,354,cs),
(675,131,o),
(525,20,o),
(302,20,cs),
(129,20,l),
(129,688,l)
);
}
);
width = 770;
},
{
hints = (
{
horizontal = 1;
place = (0, 204);
place = (0, 204);
type = Stem;
},
{
horizontal = 1;
place = (506, 202);
place = (506, 202);
type = Stem;
},
{
place = (66, 229);
place = (66, 229);
type = Stem;
},
{
place = (513, 241);
place = (513, 241);
type = Stem;
}
);
layerId = "6CD8BB23-51D6-4109-A2DC-8CCFF044BB0C";
shapes = (
{
closed = 1;
nodes = (
(754,610,o),
(582,708,o),
(330,708,cs),
(66,708,l),
(66,0,l),
(350,0,ls),
(573,0,o),
(754,119,o),
(754,358,cs)
);
},
{
closed = 1;
nodes = (
(348,506,ls),
(449,506,o),
(513,451,o),
(513,360,cs),
(513,256,o),
(455,204,o),
(339,204,cs),
(295,204,l),
(295,506,l)
);
}
);
width = 788;
},
{
hints = (
{
horizontal = 1;
place = (0, 64);
place = (0, 64);
type = Stem;
},
{
horizontal = 1;
place = (644, 64);
place = (644, 64);
type = Stem;
},
{
place = (94, 72);
place = (94, 72);
type = Stem;
},
{
place = (625, 76);
place = (625, 76);
type = Stem;
}
);
layerId = "80940EE0-8DDD-4B41-B259-288445DE0F27";
shapes = (
{
closed = 1;
nodes = (
(701,578,o),
(521,708,o),
(329,708,cs),
(94,708,l),
(94,0,l),
(329,0,ls),
(520,0,o),
(701,130,o),
(701,354,cs)
);
},
{
closed = 1;
nodes = (
(309,644,ls),
(508,644,o),
(625,514,o),
(625,354,cs),
(625,190,o),
(502,64,o),
(309,64,cs),
(166,64,l),
(166,644,l)
);
}
);
width = 757;
},
{
layerId = "823AF154-79AE-4916-A822-17021D358B90";
shapes = (
{
closed = 1;
nodes = (
(688,557,o),
(611,635,o),
(505,687,o),
(392,708,o),
(329,708,qs),
(73,708,l),
(73,0,l),
(337,0,ls),
(413,0,o),
(551,42,o),
(666,126,o),
(734,266,o),
(734,356,qs),
(734,434,o)
);
},
{
closed = 1;
nodes = (
(424,148,o),
(321,148,qs),
(240,148,l),
(240,562,l),
(325,562,ls),
(372,562,o),
(451,542,o),
(518,496,o),
(556,413,o),
(556,356,qs),
(556,246,o)
);
}
);
width = 754;
}
);
note = D;
unicode = 68;
},
{
glyphname = E;
lastChange = "2022-03-19 16:18:40 +0000";
layers = (
{
hints = (
{
horizontal = 1;
place = (0, 20);
place = (0, 20);
type = Stem;
},
{
horizontal = 1;
place = (357, 20);
place = (357, 20);
type = Stem;
},
{
horizontal = 1;
place = (688, 20);
place = (688, 20);
type = Stem;
},
{
place = (106, 21);
place = (106, 21);
type = Stem;
}
);
layerId = m01;
shapes = (
{
closed = 1;
nodes = (
(534,0,l),
(534,20,l),
(127,20,l),
(127,357,l),
(495,357,l),
(495,377,l),
(127,377,l),
(127,688,l),
(518,688,l),
(518,708,l),
(106,708,l),
(106,0,l)
);
}
);
width = 590;
},
{
hints = (
{
horizontal = 1;
place = (0, 198);
place = (0, 198);
type = Stem;
},
{
horizontal = 1;
place = (264, 185);
place = (264, 185);
type = Stem;
},
{
horizontal = 1;
place = (510, 198);
place = (510, 198);
type = Stem;
},
{
place = (66, 224);
place = (66, 224);
type = Stem;
}
);
layerId = "6CD8BB23-51D6-4109-A2DC-8CCFF044BB0C";
shapes = (
{
closed = 1;
nodes = (
(570,0,l),
(570,198,l),
(290,198,l),
(290,264,l),
(537,264,l),
(537,449,l),
(290,449,l),
(290,510,l),
(553,510,l),
(553,708,l),
(66,708,l),
(66,0,l)
);
}
);
width = 603;
},
{
hints = (
{
horizontal = 1;
place = (0, 64);
place = (0, 64);
type = Stem;
},
{
horizontal = 1;
place = (337, 63);
place = (337, 63);
type = Stem;
},
{
horizontal = 1;
place = (644, 64);
place = (644, 64);
type = Stem;
},
{
place = (94, 72);
place = (94, 72);
type = Stem;
}
);
layerId = "80940EE0-8DDD-4B41-B259-288445DE0F27";
shapes = (
{
closed = 1;
nodes = (
(509,337,l),
(509,400,l),
(166,400,l),
(166,644,l),
(533,644,l),
(533,708,l),
(94,708,l),
(94,0,l),
(545,0,l),
(545,64,l),
(166,64,l),
(166,337,l)
);
}
);
width = 592;
},
{
layerId = "823AF154-79AE-4916-A822-17021D358B90";
shapes = (
{
closed = 1;
nodes = (
(238,146,l),
(238,293,l),
(532,293,l),
(532,430,l),
(238,430,l),
(238,563,l),
(549,563,l),
(549,708,l),
(73,708,l),
(73,0,l),
(567,0,l),
(567,146,l)
);
}
);
width = 607;
}
);
note = E;
unicode = 69;
},
{
glyphname = F;
lastChange = "2022-03-19 16:18:40 +0000";
layers = (
{
hints = (
{
horizontal = 1;
place = (357, 20);
place = (357, 20);
type = Stem;
},
{
horizontal = 1;
place = (688, 20);
place = (688, 20);
type = Stem;
},
{
place = (106, 22);
place = (106, 22);
type = Stem;
}
);
layerId = m01;
shapes = (
{
closed = 1;
nodes = (
(128,0,l),
(128,357,l),
(483,357,l),
(483,377,l),
(128,377,l),
(128,688,l),
(510,688,l),
(510,708,l),
(106,708,l),
(106,0,l)
);
}
);
width = 560;
},
{
hints = (
{
horizontal = 1;
place = (240, 194);
place = (240, 194);
type = Stem;
},
{
horizontal = 1;
place = (509, 199);
place = (509, 199);
type = Stem;
},
{
place = (66, 234);
place = (66, 234);
type = Stem;
},
{
place = (66, 233);
place = (66, 233);
type = Stem;
}
);
layerId = "6CD8BB23-51D6-4109-A2DC-8CCFF044BB0C";
shapes = (
{
closed = 1;
nodes = (
(544,509,l),
(544,708,l),
(66,708,l),
(66,0,l),
(300,0,l),
(300,240,l),
(515,240,l),
(515,434,l),
(299,434,l),
(299,509,l)
);
}
);
width = 581;
},
{
hints = (
{
horizontal = 1;
place = (335, 63);
place = (335, 63);
type = Stem;
},
{
horizontal = 1;
place = (644, 64);
place = (644, 64);
type = Stem;
},
{
place = (94, 72);
place = (94, 72);
type = Stem;
}
);
layerId = "80940EE0-8DDD-4B41-B259-288445DE0F27";
shapes = (
{
closed = 1;
nodes = (
(496,335,l),
(496,398,l),
(166,398,l),
(166,644,l),
(521,644,l),
(521,708,l),
(94,708,l),
(94,0,l),
(166,0,l),
(166,335,l)
);
}
);
width = 562;
},
{
layerId = "823AF154-79AE-4916-A822-17021D358B90";
shapes = (
{
closed = 1;
nodes = (
(73,708,l),
(73,0,l),
(242,0,l),
(242,275,l),
(516,275,l),
(516,416,l),
(242,416,l),
(242,562,l),
(539,562,l),
(539,708,l)
);
}
);
width = 576;
}
);
note = F;
unicode = 70;
},
{
glyphname = G;
lastChange = "2022-03-29 16:57:58 +0000";
layers = (
{
hints = (
{
horizontal = 1;
place = (-20, 20);
place = (-20, 20);
type = Stem;
},
{
horizontal = 1;
place = (331, 19);
place = (331, 19);
type = Stem;
},
{
horizontal = 1;
place = (708, 20);
place = (708, 20);
type = Stem;
},
{
place = (72, 22);
place = (72, 22);
type = Stem;
},
{
place = (678, 21);
place = (678, 21);
type = Stem;
}
);
layerId = m01;
shapes = (
{
closed = 1;
nodes = (
(699,350,l),
(494,350,l),
(494,331,l),
(678,331,l),
(678,53,l),
(607,18,o),
(530,0,o),
(447,0,cs),
(231,0,o),
(94,153,o),
(94,356,cs),
(94,555,o),
(235,708,o),
(440,708,cs),
(520,708,o),
(611,679,o),
(663,630,c),
(679,646,l),
(614,701,o),
(534,728,o),
(441,728,cs),
(225,728,o),
(72,572,o),
(72,356,cs),
(72,140,o),
(224,-20,o),
(445,-20,cs),
(542,-20,o),
(627,0,o),
(699,41,c)
);
}
);
width = 795;
},
{
hints = (
{
horizontal = 1;
place = (-18, 205);
place = (-18, 205);
type = Stem;
},
{
horizontal = 1;
place = (251, 187);
place = (251, 187);
type = Stem;
},
{
horizontal = 1;
place = (517, 211);
place = (517, 211);
type = Stem;
},
{
place = (34, 246);
place = (34, 246);
type = Stem;
},
{
place = (498, 211);
place = (498, 211);
type = Stem;
},
{
place = (384, 325);
place = (384, 325);
type = Stem;
}
);
layerId = "6CD8BB23-51D6-4109-A2DC-8CCFF044BB0C";
shapes = (
{
closed = 1;
nodes = (
(529,-18,o),
(641,11,o),
(709,51,c),
(709,438,l),
(384,438,l),
(384,251,l),
(498,251,l),
(498,197,l),
(485,190,o),
(466,187,o),
(442,187,cs),
(333,187,o),
(280,250,o),
(280,354,cs),
(280,449,o),
(351,517,o),
(432,517,cs),
(485,517,o),
(527,498,o),
(558,460,c),
(697,627,l),
(634,690,o),
(527,728,o),
(418,728,cs),
(201,728,o),
(34,577,o),
(34,354,cs),
(34,130,o),
(199,-18,o),
(426,-18,cs)
);
}
);
width = 762;
},
{
hints = (
{
horizontal = 1;
place = (-18, 64);
place = (-18, 64);
type = Stem;
},
{
horizontal = 1;
place = (307, 63);
place = (307, 63);
type = Stem;
},
{
horizontal = 1;
place = (663, 63);
place = (663, 63);
type = Stem;
},
{
place = (56, 76);
place = (56, 76);
type = Stem;
},
{
place = (617, 72);
place = (617, 72);
type = Stem;
}
);
layerId = "80940EE0-8DDD-4B41-B259-288445DE0F27";
shapes = (
{
closed = 1;
nodes = (
(681,631,l),
(616,694,o),
(531,726,o),
(425,726,cs),
(213,726,o),
(56,569,o),
(56,354,cs),
(56,139,o),
(212,-18,o),
(425,-18,cs),
(524,-18,o),
(612,5,o),
(689,51,c),
(689,370,l),
(452,370,l),
(452,307,l),
(617,307,l),
(617,92,l),
(570,61,o),
(507,46,o),
(426,46,cs),
(250,46,o),
(132,183,o),
(132,354,cs),
(132,526,o),
(250,663,o),
(426,663,cs),
(511,663,o),
(580,636,o),
(631,581,c)
);
}
);
width = 779;
},
{
hints = (
{
horizontal = 1;
place = (278, 138);
place = (278, 138);
type = Stem;
},
{
horizontal = 1;
place = (-20, 150);
place = (-20, 150);
type = Stem;
},
{
horizontal = 1;
place = (574, 151);
place = (574, 151);
type = Stem;
},
{
place = (430, 137);
place = (430, 137);
type = Stem;
},
{
place = (60, 182);
place = (60, 182);
type = Stem;
},
{
place = (565, 157);
place = (565, 157);
type = Stem;
}
);
layerId = "823AF154-79AE-4916-A822-17021D358B90";
shapes = (
{
closed = 1;
nodes = (
(410,418,l),
(410,280,l),
(545,280,l),
(545,151,l),
(501,132,o),
(438,132,qs),
(336,132,o),
(222,255,o),
(222,355,qs),
(222,450,o),
(340,576,o),
(430,576,qs),
(532,576,o),
(589,510,q),
(697,633,l),
(652,676,o),
(506,727,o),
(424,727,qs),
(259,727,o),
(40,522,o),
(40,355,qs),
(40,189,o),
(258,-18,o),
(429,-18,qs),
(585,-18,o),
(702,43,q),
(702,418,l)
);
}
);
width = 769;
}
);
note = G;
unicode = 71;
},
{
glyphname = H;
lastChange = "2022-03-19 16:18:40 +0000";
layers = (
{
hints = (
{
horizontal = 1;
place = (356, 20);
place = (356, 20);
type = Stem;
},
{
place = (106, 22);
place = (106, 22);
type = Stem;
},
{
place = (604, 22);
place = (604, 22);
type = Stem;
}
);
layerId = m01;
shapes = (
{
closed = 1;
nodes = (
(128,0,l),
(128,356,l),
(604,356,l),
(604,0,l),
(626,0,l),
(626,708,l),
(604,708,l),
(604,376,l),
(128,376,l),
(128,708,l),
(106,708,l),
(106,0,l)
);
}
);
width = 732;
},
{
hints = (
{
horizontal = 1;
place = (269, 199);
place = (269, 199);
type = Stem;
},
{
place = (66, 238);
place = (66, 238);
type = Stem;
},
{
place = (498, 238);
place = (498, 238);
type = Stem;
},
{
place = (66, 237);
place = (66, 237);
type = Stem;
},
{
place = (497, 239);
place = (497, 239);
type = Stem;
}
);
layerId = "6CD8BB23-51D6-4109-A2DC-8CCFF044BB0C";
shapes = (
{
closed = 1;
nodes = (
(736,0,l),
(736,708,l),
(497,708,l),
(497,468,l),
(303,468,l),
(303,708,l),
(66,708,l),
(66,0,l),
(304,0,l),
(304,269,l),
(498,269,l),
(498,0,l)
);
}
);
width = 802;
},
{
hints = (
{
horizontal = 1;
place = (335, 66);
place = (335, 66);
type = Stem;
},
{
place = (94, 72);
place = (94, 72);
type = Stem;
},
{
place = (552, 72);
place = (552, 72);
type = Stem;
}
);
layerId = "80940EE0-8DDD-4B41-B259-288445DE0F27";
shapes = (
{
closed = 1;
nodes = (
(166,0,l),
(166,335,l),
(552,335,l),
(552,0,l),
(624,0,l),
(624,708,l),
(552,708,l),
(552,401,l),
(166,401,l),
(166,708,l),
(94,708,l),
(94,0,l)
);
}
);
width = 718;
},
{
layerId = "823AF154-79AE-4916-A822-17021D358B90";
shapes = (
{
closed = 1;
nodes = (
(520,708,l),
(520,440,l),
(244,440,l),
(244,708,l),
(73,708,l),
(73,0,l),
(244,0,l),
(244,296,l),
(520,296,l),
(520,0,l),
(691,0,l),
(691,708,l)
);
}
);
width = 764;
}
);
note = H;
unicode = 72;
},
{
glyphname = I;
lastChange = "2022-03-19 16:18:40 +0000";
layers = (
{
hints = (
{
horizontal = 1;
place = (0, 708);
place = (0, 708);
type = Stem;
},
{
place = (106, 22);
place = (106, 22);
type = Stem;
}
);
layerId = m01;
shapes = (
{
closed = 1;
nodes = (
(128,0,l),
(128,708,l),
(106,708,l),
(106,0,l)
);
}
);
width = 234;
},
{
hints = (
{
horizontal = 1;
place = (0, 708);
place = (0, 708);
type = Stem;
},
{
place = (66, 240);
place = (66, 240);
type = Stem;
}
);
layerId = "6CD8BB23-51D6-4109-A2DC-8CCFF044BB0C";
shapes = (
{
closed = 1;
nodes = (
(306,0,l),
(306,708,l),
(66,708,l),
(66,0,l)
);
}
);
width = 372;
},
{
hints = (
{
horizontal = 1;
place = (0, 708);
place = (0, 708);
type = Stem;
},
{
place = (94, 72);
place = (94, 72);
type = Stem;
}
);
layerId = "80940EE0-8DDD-4B41-B259-288445DE0F27";
shapes = (
{
closed = 1;
nodes = (
(94,708,l),
(94,0,l),
(166,0,l),
(166,708,l)
);
}
);
width = 260;
},
{
layerId = "823AF154-79AE-4916-A822-17021D358B90";
shapes = (
{
closed = 1;
nodes = (
(73,708,l),
(73,0,l),
(245,0,l),
(245,708,l)
);
}
);
width = 318;
}
);
note = I;
unicode = 73;
},
{
glyphname = J;
lastChange = "2022-03-19 16:18:40 +0000";
layers = (
{
hints = (
{
horizontal = 1;
place = (-18, 20);
place = (-18, 20);
type = Stem;
},
{
place = (356, 22);
place = (356, 22);
type = Stem;
}
);
layerId = m01;
shapes = (
{
closed = 1;
nodes = (
(314,-18,o),
(378,61,o),
(378,193,cs),
(378,708,l),
(356,708,l),
(356,196,ls),
(356,77,o),
(306,2,o),
(197,2,cs),
(130,2,o),
(75,41,o),
(48,102,c),
(29,93,l),
(53,29,o),
(117,-18,o),
(197,-18,cs)
);
}
);
width = 480;
},
{
hints = (
{
horizontal = 1;
place = (-20, 217);
place = (-20, 217);
type = Stem;
},
{
place = (271, 239);
place = (271, 239);
type = Stem;
}
);
layerId = "6CD8BB23-51D6-4109-A2DC-8CCFF044BB0C";
shapes = (
{
closed = 1;
nodes = (
(271,252,ls),
(271,215,o),
(258,197,o),
(232,197,cs),
(210,197,o),
(196,211,o),
(189,238,c),
(-15,160,l),
(13,57,o),
(123,-20,o),
(248,-20,cs),
(427,-20,o),
(510,89,o),
(510,262,cs),
(510,708,l),
(271,708,l)
);
}
);
width = 573;
},
{
hints = (
{
horizontal = 1;
place = (-18, 63);
place = (-18, 63);
type = Stem;
},
{
place = (332, 72);
place = (332, 72);
type = Stem;
}
);
layerId = "80940EE0-8DDD-4B41-B259-288445DE0F27";
shapes = (
{
closed = 1;
nodes = (
(332,209,ls),
(332,100,o),
(290,45,o),
(207,45,cs),
(147,45,o),
(104,87,o),
(92,144,c),
(25,126,l),
(42,41,o),
(115,-18,o),
(215,-18,cs),
(348,-18,o),
(404,82,o),
(404,204,cs),
(404,708,l),
(332,708,l)
);
}
);
width = 492;
},
{
layerId = "823AF154-79AE-4916-A822-17021D358B90";
shapes = (
{
closed = 1;
nodes = (
(288,708,l),
(288,241,ls),
(288,190,o),
(258,136,o),
(219,136,qs),
(192,136,o),
(155,170,o),
(148,198,q),
(-3,147,l),
(17,73,o),
(140,-19,o),
(227,-19,qs),
(283,-19,o),
(368,14,o),
(418,66,o),
(449,138,o),
(460,205,o),
(460,242,qs),
(460,708,l)
);
}
);
width = 529;
}
);
note = J;
unicode = 74;
},
{
glyphname = K;
lastChange = "2022-03-19 16:18:40 +0000";
layers = (
{
hints = (
{
horizontal = 1;
place = (0, 708);
place = (0, 708);
type = Stem;
},
{
place = (106, 22);
place = (106, 22);
type = Stem;
}
);
layerId = m01;
shapes = (
{
closed = 1;
nodes = (
(128,0,l),
(128,381,l),
(129,381,l),
(504,0,l),
(535,0,l),
(157,383,l),
(517,708,l),
(485,708,l),
(129,383,l),
(128,383,l),
(128,708,l),
(106,708,l),
(106,0,l)
);
}
);
width = 565;
},
{
hints = (
{
horizontal = 1;
place = (0, 708);
place = (0, 708);
type = Stem;
},
{
place = (66, 232);
place = (66, 232);
type = Stem;
},
{
place = (66, 231);
place = (66, 231);
type = Stem;
}
);
layerId = "6CD8BB23-51D6-4109-A2DC-8CCFF044BB0C";
shapes = (
{
closed = 1;
nodes = (
(781,0,l),
(502,384,l),
(768,708,l),
(488,708,l),
(299,447,l),
(297,447,l),
(297,708,l),
(66,708,l),
(66,0,l),
(298,0,l),
(298,282,l),
(300,282,l),
(489,0,l)
);
}
);
width = 763;
},
{
hints = (
{
horizontal = 1;
place = (0, 708);
place = (0, 708);
type = Stem;
},
{
place = (94, 72);
place = (94, 72);
type = Stem;
}
);
layerId = "80940EE0-8DDD-4B41-B259-288445DE0F27";
shapes = (
{
closed = 1;
nodes = (
(94,708,l),
(94,0,l),
(166,0,l),
(166,377,l),
(167,377,l),
(521,0,l),
(627,0,l),
(250,387,l),
(607,708,l),
(504,708,l),
(167,390,l),
(166,390,l),
(166,708,l)
);
}
);
width = 628;
},
{
layerId = "823AF154-79AE-4916-A822-17021D358B90";
shapes = (
{
closed = 1;
nodes = (
(711,708,l),
(497,708,l),
(244,420,l),
(241,420,l),
(241,708,l),
(73,708,l),
(73,0,l),
(241,0,l),
(241,326,l),
(243,326,l),
(506,0,l),
(729,0,l),
(406,382,l)
);
}
);
width = 711;
}
);
note = K;
unicode = 75;
},
{
glyphname = L;
lastChange = "2022-03-19 16:18:40 +0000";
layers = (
{
hints = (
{
horizontal = 1;
place = (0, 20);
place = (0, 20);
type = Stem;
},
{
place = (106, 22);
place = (106, 22);
type = Stem;
}
);
layerId = m01;
shapes = (
{
closed = 1;
nodes = (
(480,0,l),
(480,20,l),
(128,20,l),
(128,708,l),
(106,708,l),
(106,0,l)
);
}
);
width = 498;
},
{
hints = (
{
horizontal = 1;
place = (0, 204);
place = (0, 204);
type = Stem;
},
{
place = (66, 240);
place = (66, 240);
type = Stem;
}
);
layerId = "6CD8BB23-51D6-4109-A2DC-8CCFF044BB0C";
shapes = (
{
closed = 1;
nodes = (
(541,0,l),
(541,204,l),
(306,204,l),
(306,708,l),
(66,708,l),
(66,0,l)
);
}
);
width = 549;
},
{
hints = (
{
horizontal = 1;
place = (0, 64);
place = (0, 64);
type = Stem;
},
{
place = (94, 72);
place = (94, 72);
type = Stem;
}
);
layerId = "80940EE0-8DDD-4B41-B259-288445DE0F27";
shapes = (
{
closed = 1;
nodes = (
(94,708,l),
(94,0,l),
(496,0,l),
(496,64,l),
(166,64,l),
(166,708,l)
);
}
);
width = 510;
},
{
layerId = "823AF154-79AE-4916-A822-17021D358B90";
shapes = (
{
closed = 1;
nodes = (
(245,149,l),
(245,708,l),
(73,708,l),
(73,0,l),
(519,0,l),
(519,149,l)
);
}
);
width = 526;
}
);
note = L;
unicode = 76;
},
{
glyphname = M;
lastChange = "2022-03-27 14:44:07 +0000";
layers = (
{
hints = (
{
horizontal = 1;
place = (0, 32);
place = (0, 32);
type = Stem;
},
{
horizontal = 1;
place = (683, 25);
place = (683, 25);
type = Stem;
},
{
place = (106, 22);
place = (106, 22);
type = Stem;
},
{
place = (778, 22);
place = (778, 22);
type = Stem;
}
);
layerId = m01;
shapes = (
{
closed = 1;
nodes = (
(761,708,l),
(453,32,l),
(145,708,l),
(106,708,l),
(106,0,l),
(128,0,l),
(128,683,l),
(131,683,l),
(443,0,l),
(461,0,l),
(774,683,l),
(778,683,l),
(778,0,l),
(800,0,l),
(800,708,l)
);
}
);
width = 906;
},
{
hints = (
{
horizontal = 1;
place = (0, 708);
place = (0, 708);
type = Stem;
},
{
place = (66, 216.5);
place = (66, 216.5);
type = Stem;
},
{
place = (714.5, 227.5);
place = (714.5, 227.5);
type = Stem;
}
);
layerId = "6CD8BB23-51D6-4109-A2DC-8CCFF044BB0C";
shapes = (
{
closed = 1;
nodes = (
(580,0,l),
(712,399,l),
(718,398,l),
(711,0,l),
(942,0,l),
(942,708,l),
(621,708,l),
(510,327,l),
(505,327,l),
(377,708,l),
(66,708,l),
(66,0,l),
(288,0,l),
(277,400,l),
(282,400,l),
(412,0,l)
);
}
);
width = 1008;
},
{
hints = (
{
horizontal = 1;
place = (615, 93);
place = (615, 93);
type = Stem;
},
{
place = (94, 72);
place = (94, 72);
type = Stem;
},
{
place = (720, 72);
place = (720, 72);
type = Stem;
}
);
layerId = "80940EE0-8DDD-4B41-B259-288445DE0F27";
shapes = (
{
closed = 1;
nodes = (
(94,0,l),
(166,0,l),
(166,615,l),
(168,615,l),
(424,0,l),
(462,0,l),
(718,615,l),
(720,615,l),
(720,0,l),
(792,0,l),
(792,708,l),
(682,708,l),
(445,122,l),
(444,122,l),
(204,708,l),
(94,708,l)
);
}
);
width = 886;
},
{
layerId = "823AF154-79AE-4916-A822-17021D358B90";
shapes = (
{
closed = 1;
nodes = (
(635,708,l),
(481,254,l),
(477,254,l),
(316,708,l),
(73,708,l),
(73,0,l),
(234,0,l),
(230,501,l),
(233,501,l),
(412,0,l),
(532,0,l),
(716,501,l),
(719,501,l),
(715,0,l),
(882,0,l),
(882,708,l)
);
}
);
width = 955;
}
);
note = M;
unicode = 77;
},
{
glyphname = N;
lastChange = "2022-03-27 14:43:15 +0000";
layers = (
{
hints = (
{
horizontal = 1;
place = (0, 29);
place = (0, 29);
type = Stem;
},
{
horizontal = 1;
place = (680, 28);
place = (680, 28);
type = Stem;
},
{
place = (106, 22);
place = (106, 22);
type = Stem;
},
{
place = (649, 22);
place = (649, 22);
type = Stem;
}
);
layerId = m01;
shapes = (
{
closed = 1;
nodes = (
(649,708,l),
(649,29,l),
(646,29,l),
(137,708,l),
(106,708,l),
(106,0,l),
(128,0,l),
(128,680,l),
(131,680,l),
(639,0,l),
(671,0,l),
(671,708,l)
);
}
);
width = 777;
},
{
hints = (
{
horizontal = 1;
place = (0, 708);
place = (0, 708);
type = Stem;
},
{
place = (66, 221);
place = (66, 221);
type = Stem;
},
{
place = (504, 221);
place = (504, 221);
type = Stem;
}
);
layerId = "6CD8BB23-51D6-4109-A2DC-8CCFF044BB0C";
shapes = (
{
closed = 1;
nodes = (
(282,338,l),
(286,338,l),
(482,0,l),
(725,0,l),
(725,708,l),
(499,708,l),
(509,349,l),
(505,349,l),
(303,708,l),
(66,708,l),
(66,0,l),
(292,0,l)
);
}
);
width = 791;
},
{
hints = (
{
horizontal = 1;
place = (0, 708);
place = (0, 708);
type = Stem;
},
{
place = (94, 72);
place = (94, 72);
type = Stem;
},
{
place = (598, 72);
place = (598, 72);
type = Stem;
}
);
layerId = "80940EE0-8DDD-4B41-B259-288445DE0F27";
shapes = (
{
closed = 1;
nodes = (
(94,0,l),
(166,0,l),
(166,609,l),
(168,609,l),
(580,0,l),
(670,0,l),
(670,708,l),
(598,708,l),
(598,105,l),
(596,105,l),
(184,708,l),
(94,708,l)
);
}
);
width = 764;
},
{
layerId = "823AF154-79AE-4916-A822-17021D358B90";
shapes = (
{
closed = 1;
nodes = (
(551,708,l),
(555,246,l),
(552,246,l),
(268,708,l),
(73,708,l),
(73,0,l),
(239,0,l),
(235,463,l),
(238,463,l),
(523,0,l),
(717,0,l),
(717,708,l)
);
}
);
width = 790;
}
);
note = N;
unicode = 78;
},
{
glyphname = O;
lastChange = "2022-03-19 16:18:40 +0000";
layers = (
{
hints = (
{
horizontal = 1;
place = (-20, 20);
place = (-20, 20);
type = Stem;
},
{
horizontal = 1;
place = (708, 20);
place = (708, 20);
type = Stem;
},
{
place = (72, 22);
place = (72, 22);
type = Stem;
},
{
place = (778, 22);
place = (778, 22);
type = Stem;
}
);
layerId = m01;
shapes = (
{
closed = 1;
nodes = (
(645,-20,o),
(800,137,o),
(800,354,cs),
(800,571,o),
(647,728,o),
(436,728,cs),
(225,728,o),
(72,571,o),
(72,354,cs),
(72,137,o),
(227,-20,o),
(436,-20,cs)
);
},
{
closed = 1;
nodes = (
(237,0,o),
(94,160,o),
(94,354,cs),
(94,554,o),
(237,708,o),
(436,708,cs),
(635,708,o),
(778,554,o),
(778,354,cs),
(778,154,o),
(630,0,o),
(438,0,cs)
);
}
);
width = 872;
},
{
hints = (
{
horizontal = 1;
place = (-20, 220);
place = (-20, 220);
type = Stem;
},
{
horizontal = 1;
place = (510, 218);
place = (510, 218);
type = Stem;
},
{
place = (34, 253);
place = (34, 253);
type = Stem;
},
{
place = (567, 254);
place = (567, 254);
type = Stem;
}
);
layerId = "6CD8BB23-51D6-4109-A2DC-8CCFF044BB0C";
shapes = (
{
closed = 1;
nodes = (
(34,134,o),
(200,-20,o),
(427,-20,cs),
(654,-20,o),
(821,134,o),
(821,358,cs),
(821,581,o),
(655,728,o),
(427,728,cs),
(199,728,o),
(34,581,o),
(34,358,cs)
);
},
{
closed = 1;
nodes = (
(287,449,o),
(346,510,o),
(427,510,cs),
(508,510,o),
(567,449,o),
(567,358,cs),
(567,266,o),
(507,200,o),
(427,200,cs),
(346,200,o),
(287,266,o),
(287,358,cs)
);
}
);
width = 855;
},
{
hints = (
{
horizontal = 1;
place = (-18, 64);
place = (-18, 64);
type = Stem;
},
{
horizontal = 1;
place = (663, 63);
place = (663, 63);
type = Stem;
},
{
place = (56, 76);
place = (56, 76);
type = Stem;
},
{
place = (718, 76);
place = (718, 76);
type = Stem;
}
);
layerId = "80940EE0-8DDD-4B41-B259-288445DE0F27";
shapes = (
{
closed = 1;
nodes = (
(213,726,o),
(56,569,o),
(56,354,cs),
(56,139,o),
(213,-18,o),
(425,-18,cs),
(637,-18,o),
(794,139,o),
(794,354,cs),
(794,569,o),
(637,726,o),
(425,726,cs)
);
},
{
closed = 1;
nodes = (
(249,46,o),
(132,182,o),
(132,354,cs),
(132,526,o),
(249,663,o),
(425,663,cs),
(601,663,o),
(718,526,o),
(718,354,cs),
(718,182,o),
(601,46,o),
(425,46,cs)
);
}
);
width = 850;
},
{
layerId = "823AF154-79AE-4916-A822-17021D358B90";
shapes = (
{
closed = 1;
nodes = (
(594,727,o),
(425,727,qs),
(257,727,o),
(40,525,o),
(40,357,qs),
(40,190,o),
(258,-19,o),
(425,-19,qs),
(593,-19,o),
(811,190,o),
(811,357,qs),
(811,525,o)
);
},
{
closed = 1;
nodes = (
(514,137,o),
(336,137,o),
(223,261,o),
(223,357,qs),
(223,451,o),
(336,573,o),
(514,573,o),
(628,451,o),
(628,357,qs),
(628,261,o)
);
}
);
width = 851;
}
);
note = O;
unicode = 79;
},
{
glyphname = Odieresis;
lastChange = "2022-03-19 16:25:12 +0000";
layers = (
{
hints = (
{
horizontal = 1;
place = (-20, 20);
place = (-20, 20);
type = Stem;
},
{
horizontal = 1;
place = (708, 20);
place = (708, 20);
type = Stem;
},
{
horizontal = 1;
place = (832, 52);
place = (832, 52);
type = Stem;
},
{
place = (72, 22);
place = (72, 22);
type = Stem;
},
{
place = (338, 46);
place = (338, 46);
type = Stem;
},
{
place = (492, 46);
place = (492, 46);
type = Stem;
},
{
place = (778, 22);
place = (778, 22);
type = Stem;
}
);
layerId = m01;
shapes = (
{
closed = 1;
nodes = (
(645,-20,o),
(800,137,o),
(800,354,cs),
(800,571,o),
(647,728,o),
(436,728,cs),
(225,728,o),
(72,571,o),
(72,354,cs),
(72,137,o),
(227,-20,o),
(436,-20,cs)
);
},
{
closed = 1;
nodes = (
(237,0,o),
(94,160,o),
(94,354,cs),
(94,554,o),
(237,708,o),
(436,708,cs),
(635,708,o),
(778,554,o),
(778,354,cs),
(778,154,o),
(630,0,o),
(438,0,cs)
);
},
{
closed = 1;
nodes = (
(375,757,o),
(382,764,o),
(382,774,cs),
(382,784,o),
(375,791,o),
(365,791,cs),
(355,791,o),
(348,784,o),
(348,774,cs),
(348,764,o),
(355,757,o),
(365,757,cs)
);
},
{
closed = 1;
nodes = (
(517,757,o),
(524,764,o),
(524,774,cs),
(524,784,o),
(517,791,o),
(507,791,cs),
(497,791,o),
(490,784,o),
(490,774,cs),
(490,764,o),
(497,757,o),
(507,757,cs)
);
}
);
width = 872;
},
{
hints = (
{
horizontal = 1;
place = (-20, 220);
place = (-20, 220);
type = Stem;
},
{
horizontal = 1;
place = (510, 218);
place = (510, 218);
type = Stem;
},
{
horizontal = 1;
place = (760, 197);
place = (760, 197);
type = Stem;
},
{
place = (34, 253);
place = (34, 253);
type = Stem;
},
{
place = (567, 254);
place = (567, 254);
type = Stem;
}
);
layerId = "6CD8BB23-51D6-4109-A2DC-8CCFF044BB0C";
shapes = (
{
closed = 1;
nodes = (
(34,134,o),
(200,-20,o),
(427,-20,cs),
(654,-20,o),
(821,134,o),
(821,358,cs),
(821,581,o),
(655,728,o),
(427,728,cs),
(199,728,o),
(34,581,o),
(34,358,cs)
);
},
{
closed = 1;
nodes = (
(287,449,o),
(346,510,o),
(427,510,cs),
(508,510,o),
(567,449,o),
(567,358,cs),
(567,266,o),
(507,200,o),
(427,200,cs),
(346,200,o),
(287,266,o),
(287,358,cs)
);
},
{
closed = 1;
nodes = (
(452,803,o),
(497,760,o),
(553,760,cs),
(606,760,o),
(652,803,o),
(652,858,cs),
(652,911,o),
(606,957,o),
(553,957,cs),
(498,957,o),
(452,911,o),
(452,858,cs)
);
},
{
closed = 1;
nodes = (
(203,803,o),
(248,760,o),
(304,760,cs),
(357,760,o),
(403,803,o),
(403,858,cs),
(403,911,o),
(357,957,o),
(304,957,cs),
(249,957,o),
(203,911,o),
(203,858,cs)
);
}
);
width = 855;
},
{
hints = (
{
horizontal = 1;
place = (-18, 64);
place = (-18, 64);
type = Stem;
},
{
horizontal = 1;
place = (663, 63);
place = (663, 63);
type = Stem;
},
{
horizontal = 1;
place = (796, 102);
place = (796, 102);
type = Stem;
},
{
place = (56, 76);
place = (56, 76);
type = Stem;
},
{
place = (278, 102);
place = (278, 102);
type = Stem;
},
{
place = (470, 102);
place = (470, 102);
type = Stem;
},
{
place = (718, 76);
place = (718, 76);
type = Stem;
}
);
layerId = "80940EE0-8DDD-4B41-B259-288445DE0F27";
shapes = (
{
closed = 1;
nodes = (
(213,726,o),
(56,569,o),
(56,354,cs),
(56,139,o),
(213,-18,o),
(425,-18,cs),
(637,-18,o),
(794,139,o),
(794,354,cs),
(794,569,o),
(637,726,o),
(425,726,cs)
);
},
{
closed = 1;
nodes = (
(249,46,o),
(132,182,o),
(132,354,cs),
(132,526,o),
(249,663,o),
(425,663,cs),
(601,663,o),
(718,526,o),
(718,354,cs),
(718,182,o),
(601,46,o),
(425,46,cs)
);
},
{
closed = 1;
nodes = (
(358,756,o),
(380,780,o),
(380,807,cs),
(380,834,o),
(358,858,o),
(329,858,cs),
(300,858,o),
(278,834,o),
(278,807,cs),
(278,780,o),
(300,756,o),
(329,756,cs)
);
},
{
closed = 1;
nodes = (
(550,756,o),
(572,780,o),
(572,807,cs),
(572,834,o),
(550,858,o),
(521,858,cs),
(492,858,o),
(470,834,o),
(470,807,cs),
(470,780,o),
(492,756,o),
(521,756,cs)
);
}
);
width = 850;
},
{
layerId = "823AF154-79AE-4916-A822-17021D358B90";
shapes = (
{
closed = 1;
nodes = (
(594,727,o),
(425,727,qs),
(257,727,o),
(40,525,o),
(40,357,qs),
(40,190,o),
(258,-19,o),
(425,-19,qs),
(593,-19,o),
(811,190,o),
(811,357,qs),
(811,525,o)
);
},
{
closed = 1;
nodes = (
(514,137,o),
(336,137,o),
(223,261,o),
(223,357,qs),
(223,451,o),
(336,573,o),
(514,573,o),
(628,451,o),
(628,357,qs),
(628,261,o)
);
},
{
closed = 1;
nodes = (
(535,919,qs),
(500,919,o),
(452,871,o),
(452,838,qs),
(452,804,o),
(500,756,o),
(535,756,qs),
(569,756,o),
(618,804,o),
(618,872,o),
(569,919,o)
);
},
{
closed = 1;
nodes = (
(317,919,qs),
(283,919,o),
(234,871,o),
(234,838,qs),
(234,804,o),
(283,756,o),
(317,756,qs),
(352,756,o),
(401,804,o),
(401,872,o),
(352,919,o)
);
}
);
width = 851;
}
);
note = Odieresis;
unicode = 214;
},
{
glyphname = P;
lastChange = "2022-03-19 16:18:40 +0000";
layers = (
{
hints = (
{
horizontal = 1;
place = (348, 19);
place = (348, 19);
type = Stem;
},
{
horizontal = 1;
place = (689, 19);
place = (689, 19);
type = Stem;
},
{
place = (106, 22);
place = (106, 22);
type = Stem;
},
{
place = (495, 22);
place = (495, 22);
type = Stem;
}
);
layerId = m01;
shapes = (
{
closed = 1;
nodes = (
(128,0,l),
(128,348,l),
(311,348,ls),
(428,348,o),
(517,416,o),
(517,532,cs),
(517,656,o),
(416,708,o),
(298,708,cs),
(106,708,l),
(106,0,l)
);
},
{
closed = 1;
nodes = (
(128,689,l),
(307,689,ls),
(418,689,o),
(495,633,o),
(495,532,cs),
(495,423,o),
(412,367,o),
(312,367,cs),
(128,367,l)
);
}
);
width = 572;
},
{
hints = (
{
horizontal = 1;
place = (228, 181);
place = (228, 181);
type = Stem;
},
{
horizontal = 1;
place = (523, 185);
place = (523, 185);
type = Stem;
},
{
place = (66, 237);
place = (66, 237);
type = Stem;
},
{
place = (425, 235);
place = (425, 235);
type = Stem;
}
);
layerId = "6CD8BB23-51D6-4109-A2DC-8CCFF044BB0C";
shapes = (
{
closed = 1;
nodes = (
(303,0,l),
(303,228,l),
(370,228,ls),
(528,228,o),
(660,304,o),
(660,470,cs),
(660,640,o),
(534,708,o),
(370,708,cs),
(66,708,l),
(66,0,l)
);
},
{
closed = 1;
nodes = (
(303,523,l),
(353,523,ls),
(401,523,o),
(425,505,o),
(425,468,cs),
(425,429,o),
(393,409,o),
(353,409,cs),
(303,409,l)
);
}
);
width = 674;
},
{
hints = (
{
horizontal = 1;
place = (329, 61);
place = (329, 61);
type = Stem;
},
{
horizontal = 1;
place = (646, 62);
place = (646, 62);
type = Stem;
},
{
place = (94, 72);
place = (94, 72);
type = Stem;
},
{
place = (461, 72);
place = (461, 72);
type = Stem;
}
);
layerId = "80940EE0-8DDD-4B41-B259-288445DE0F27";
shapes = (
{
closed = 1;
nodes = (
(166,0,l),
(166,329,l),
(292,329,ls),
(440,329,o),
(533,395,o),
(533,519,cs),
(533,643,o),
(442,708,o),
(294,708,cs),
(94,708,l),
(94,0,l)
);
},
{
closed = 1;
nodes = (
(166,646,l),
(288,646,ls),
(403,646,o),
(461,604,o),
(461,519,cs),
(461,435,o),
(400,390,o),
(288,390,cs),
(166,390,l)
);
}
);
width = 580;
},
{
layerId = "823AF154-79AE-4916-A822-17021D358B90";
shapes = (
{
closed = 1;
nodes = (
(459,708,o),
(333,708,qs),
(73,708,l),
(73,0,l),
(244,0,l),
(244,267,l),
(329,267,ls),
(408,267,o),
(529,308,o),
(610,412,o),
(610,490,qs),
(610,605,o)
);
},
{
closed = 1;
nodes = (
(316,403,qs),
(244,403,l),
(244,570,l),
(319,570,ls),
(439,570,o),
(439,489,qs),
(439,403,o)
);
}
);
width = 640;
}
);
note = P;
unicode = 80;
},
{
glyphname = Q;
lastChange = "2022-03-19 16:18:40 +0000";
layers = (
{
hints = (
{
horizontal = 1;
place = (0, 20);
place = (0, 20);
type = Stem;
},
{
horizontal = 1;
place = (708, 20);
place = (708, 20);
type = Stem;
},
{
place = (72, 22);
place = (72, 22);
type = Stem;
},
{
place = (778, 22);
place = (778, 22);
type = Stem;
}
);
layerId = m01;
shapes = (
{
closed = 1;
nodes = (
(550,20,l),
(550,22,l),
(690,51,o),
(800,202,o),
(800,361,cs),
(800,572,o),
(645,728,o),
(436,728,cs),
(225,728,o),
(72,574,o),
(72,361,cs),
(72,148,o),
(231,0,o),
(434,0,cs),
(838,0,l),
(838,20,l)
);
},
{
closed = 1;
nodes = (
(238,20,o),
(94,169,o),
(94,361,cs),
(94,557,o),
(237,708,o),
(436,708,cs),
(633,708,o),
(778,554,o),
(778,361,cs),
(778,178,o),
(637,20,o),
(437,20,cs)
);
}
);
width = 883;
},
{
hints = (
{
horizontal = 1;
place = (0, 183.5);
place = (0, 183.5);
type = Stem;
},
{
horizontal = 1;
place = (510, 218);
place = (510, 218);
type = Stem;
},
{
place = (34, 253);
place = (34, 253);
type = Stem;
},
{
place = (567, 247);
place = (567, 247);
type = Stem;
},
{
horizontal = 1;
place = (0, 200);
place = (0, 200);
type = Stem;
}
);
layerId = "6CD8BB23-51D6-4109-A2DC-8CCFF044BB0C";
shapes = (
{
closed = 1;
nodes = (
(740,180,l),
(740,184,l),
(779,217,o),
(814,295,o),
(814,371,cs),
(814,579,o),
(651,728,o),
(427,728,cs),
(200,728,o),
(34,577,o),
(34,362,cs),
(34,133,o),
(185,0,o),
(414,0,cs),
(852,0,l),
(852,180,l)
);
},
{
closed = 1;
nodes = (
(346,200,o),
(287,266,o),
(287,358,cs),
(287,449,o),
(346,510,o),
(427,510,cs),
(508,510,o),
(567,449,o),
(567,358,cs),
(567,266,o),
(507,200,o),
(427,200,cs)
);
}
);
width = 864;
},
{
hints = (
{
horizontal = 1;
place = (0, 63);
place = (0, 63);
type = Stem;
},
{
horizontal = 1;
place = (663, 63);
place = (663, 63);
type = Stem;
},
{
place = (56, 76);
place = (56, 76);
type = Stem;
},
{
place = (697, 74);
place = (697, 74);
type = Stem;
},
{
horizontal = 1;
place = (0, 64);
place = (0, 64);
type = Stem;
}
);
layerId = "80940EE0-8DDD-4B41-B259-288445DE0F27";
shapes = (
{
closed = 1;
nodes = (
(245,63,o),
(132,198,o),
(132,363,cs),
(132,528,o),
(245,663,o),
(414,663,cs),
(582,663,o),
(697,528,o),
(697,363,cs),
(697,198,o),
(582,63,o),
(414,63,cs)
);
},
{
closed = 1;
nodes = (
(605,64,l),
(605,66,l),
(713,127,o),
(771,236,o),
(771,363,cs),
(771,572,o),
(618,726,o),
(414,726,cs),
(209,726,o),
(56,572,o),
(56,363,cs),
(56,154,o),
(209,0,o),
(414,0,cs),
(819,0,l),
(819,64,l)
);
}
);
width = 843;
},
{
layerId = "823AF154-79AE-4916-A822-17021D358B90";
shapes = (
{
closed = 1;
nodes = (
(696,133,l),
(696,136,l),
(739,169,o),
(801,291,o),
(801,366,qs),
(801,525,o),
(586,727,o),
(254,727,o),
(36,523,o),
(36,363,qs),
(36,192,o),
(242,0,o),
(414,0,qs),
(845,0,l),
(845,136,l)
);
},
{
closed = 1;
nodes = (
(506,146,o),
(419,146,qs),
(331,146,o),
(220,266,o),
(220,361,qs),
(220,453,o),
(334,572,o),
(420,572,qs),
(508,572,o),
(620,454,o),
(620,361,qs),
(620,266,o)
);
}
);
width = 857;
}
);
note = Q;
unicode = 81;
},
{
glyphname = R;
lastChange = "2022-04-03 13:10:46 +0000";
layers = (
{
hints = (
{
horizontal = 1;
place = (358, 18);
place = (358, 18);
type = Stem;
},
{
horizontal = 1;
place = (689, 19);
place = (689, 19);
type = Stem;
},
{
place = (106, 22);
place = (106, 22);
type = Stem;
},
{
place = (502, 22);
place = (502, 22);
type = Stem;
},
{
horizontal = 1;
place = (357, 19);
place = (357, 19);
type = Stem;
}
);
layerId = m01;
shapes = (
{
closed = 1;
nodes = (
(106,0,l),
(128,0,l),
(128,357,l),
(294,357,l),
(508,0,l),
(533,0,l),
(318,358,l),
(409,358,o),
(524,399,o),
(524,533,cs),
(524,666,o),
(425,708,o),
(302,708,cs),
(106,708,l)
);
},
{
closed = 1;
nodes = (
(290,689,ls),
(431,689,o),
(502,637,o),
(502,533,cs),
(502,433,o),
(430,376,o),
(301,376,cs),
(128,376,l),
(128,689,l)
);
}
);
width = 594;
},
{
hints = (
{
horizontal = 1;
place = (253, 156);
place = (253, 156);
type = Stem;
},
{
horizontal = 1;
place = (523, 185);
place = (523, 185);
type = Stem;
},
{
place = (66, 230);
place = (66, 230);
type = Stem;
},
{
place = (424, 233);
place = (424, 233);
type = Stem;
},
{
place = (66, 228);
place = (66, 228);
type = Stem;
}
);
layerId = "6CD8BB23-51D6-4109-A2DC-8CCFF044BB0C";
shapes = (
{
closed = 1;
nodes = (
(66,0,l),
(296,0,l),
(296,253,l),
(303,253,l),
(439,0,l),
(713,0,l),
(533,287,l),
(612,323,o),
(657,393,o),
(657,478,cs),
(657,643,o),
(534,708,o),
(371,708,cs),
(66,708,l)
);
},
{
closed = 1;
nodes = (
(351,523,ls),
(400,523,o),
(424,505,o),
(424,468,cs),
(424,429,o),
(396,409,o),
(341,409,cs),
(294,409,l),
(294,523,l)
);
}
);
width = 714;
},
{
hints = (
{
horizontal = 1;
place = (331, 62);
place = (331, 62);
type = Stem;
},
{
horizontal = 1;
place = (646, 62);
place = (646, 62);
type = Stem;
},
{
place = (94, 72);
place = (94, 72);
type = Stem;
},
{
place = (472, 72);
place = (472, 72);
type = Stem;
}
);
layerId = "80940EE0-8DDD-4B41-B259-288445DE0F27";
shapes = (
{
closed = 1;
nodes = (
(94,0,l),
(166,0,l),
(166,331,l),
(286,331,l),
(482,0,l),
(570,0,l),
(363,337,l),
(470,349,o),
(544,416,o),
(544,519,cs),
(544,650,o),
(451,708,o),
(302,708,cs),
(94,708,l)
);
},
{
closed = 1;
nodes = (
(294,646,ls),
(413,646,o),
(472,604,o),
(472,519,cs),
(472,436,o),
(407,393,o),
(291,393,cs),
(166,393,l),
(166,646,l)
);
}
);
width = 599;
},
{
layerId = "823AF154-79AE-4916-A822-17021D358B90";
shapes = (
{
closed = 1;
nodes = (
(536,324,o),
(614,424,o),
(614,494,qs),
(614,552,o),
(569,638,o),
(489,686,o),
(397,708,o),
(343,708,qs),
(73,708,l),
(73,0,l),
(241,0,l),
(241,281,l),
(299,281,l),
(452,0,l),
(652,0,l),
(467,303,l)
);
},
{
closed = 1;
nodes = (
(321,405,qs),
(240,405,l),
(240,570,l),
(331,570,ls),
(445,570,o),
(445,491,qs),
(445,405,o)
);
}
);
width = 663;
}
);
note = R;
unicode = 82;
},
{
glyphname = S;
lastChange = "2022-03-19 16:18:40 +0000";
layers = (
{
hints = (
{
horizontal = 1;
place = (-20, 20);
place = (-20, 20);
type = Stem;
},
{
horizontal = 1;
place = (708, 20);
place = (708, 20);
type = Stem;
},
{
place = (85, 22);
place = (85, 22);
type = Stem;
},
{
place = (476, 22);
place = (476, 22);
type = Stem;
}
);
layerId = m01;
shapes = (
{
closed = 1;
nodes = (
(498,217,o),
(481,256,o),
(458,281,cs),
(447,293,o),
(431,305,o),
(410,317,cs),
(369,340,o),
(340,349,o),
(283,368,cs),
(230,385,o),
(202,397,o),
(164,424,cs),
(126,451,o),
(107,491,o),
(107,543,cs),
(107,647,o),
(198,708,o),
(302,708,cs),
(374,708,o),
(429,683,o),
(468,634,c),
(485,649,l),
(442,702,o),
(382,728,o),
(303,728,cs),
(180,728,o),
(85,656,o),
(85,543,cs),
(85,432,o),
(149,388,o),
(284,345,cs),
(343,326,o),
(372,315,o),
(414,288,cs),
(456,261,o),
(476,222,o),
(476,170,cs),
(476,66,o),
(391,0,o),
(282,0,cs),
(205,0,o),
(140,27,o),
(89,82,c),
(72,67,l),
(125,9,o),
(195,-20,o),
(283,-20,cs),
(404,-20,o),
(498,53,o),
(498,170,cs)
);
}
);
width = 570;
},
{
hints = (
{
horizontal = 1;
place = (-20, 196);
place = (-20, 196);
type = Stem;
},
{
horizontal = 1;
place = (533, 195);
place = (533, 195);
type = Stem;
},
{
place = (0, 609);
place = (0, 609);
type = Stem;
}
);
layerId = "6CD8BB23-51D6-4109-A2DC-8CCFF044BB0C";
shapes = (
{
closed = 1;
nodes = (
(590,273,o),
(577,310,o),
(561,335,cs),
(545,360,o),
(512,386,o),
(489,401,cs),
(465,416,o),
(420,434,o),
(397,442,cs),
(380,447,o),
(314,469,o),
(295,479,cs),
(286,484,o),
(281,491,o),
(281,501,cs),
(281,522,o),
(300,533,o),
(339,533,cs),
(379,533,o),
(430,509,o),
(461,472,c),
(609,623,l),
(537,688,o),
(434,728,o),
(339,728,cs),
(266,728,o),
(198,710,o),
(139,673,cs),
(80,636,o),
(42,569,o),
(42,485,cs),
(42,372,o),
(109,308,o),
(225,278,cs),
(275,265,o),
(350,241,o),
(350,209,cs),
(350,187,o),
(332,176,o),
(297,176,cs),
(241,176,o),
(180,206,o),
(145,245,c),
(0,87,l),
(73,22,o),
(186,-20,o),
(298,-20,cs),
(455,-20,o),
(590,73,o),
(590,233,cs)
);
}
);
width = 617;
},
{
hints = (
{
horizontal = 1;
place = (-18, 62);
place = (-18, 62);
type = Stem;
},
{
horizontal = 1;
place = (665, 61);
place = (665, 61);
type = Stem;
},
{
place = (68, 72);
place = (68, 72);
type = Stem;
},
{
place = (431, 73);
place = (431, 73);
type = Stem;
}
);
layerId = "80940EE0-8DDD-4B41-B259-288445DE0F27";
shapes = (
{
closed = 1;
nodes = (
(504,226,o),
(492,260,o),
(481,283,cs),
(469,306,o),
(435,331,o),
(420,343,cs),
(394,361,o),
(325,383,o),
(294,393,cs),
(250,408,o),
(241,410,o),
(207,427,cs),
(162,451,o),
(140,481,o),
(140,532,cs),
(140,616,o),
(212,665,o),
(291,665,cs),
(355,665,o),
(404,641,o),
(437,594,c),
(494,640,l),
(458,689,o),
(383,726,o),
(294,726,cs),
(219,726,o),
(151,702,o),
(104,642,cs),
(49,571,o),
(56,447,o),
(129,394,cs),
(217,330,o),
(260,344,o),
(357,297,cs),
(405,273,o),
(431,233,o),
(431,181,cs),
(431,96,o),
(355,44,o),
(274,44,cs),
(203,44,o),
(145,80,o),
(112,133,c),
(50,87,l),
(99,19,o),
(184,-18,o),
(273,-18,cs),
(397,-18,o),
(504,54,o),
(504,186,cs)
);
}
);
width = 564;
},
{
layerId = "823AF154-79AE-4916-A822-17021D358B90";
shapes = (
{
closed = 1;
nodes = (
(386,726,o),
(324,726,qs),
(273,726,o),
(178,700,o),
(98,649,o),
(50,560,o),
(50,504,qs),
(50,458,o),
(80,388,o),
(136,342,o),
(192,314,o),
(231,301,qs),
(267,289,o),
(299,278,o),
(345,258,o),
(363,241,o),
(378,216,o),
(378,200,qs),
(378,160,o),
(323,123,o),
(280,123,qs),
(238,123,o),
(153,165,o),
(127,198,q),
(15,84,l),
(61,36,o),
(203,-18,o),
(280,-18,qs),
(394,-18,o),
(551,103,o),
(551,218,qs),
(551,258,o),
(521,325,o),
(483,365,o),
(414,402,o),
(370,418,o),
(331,431,qs),
(301,440,o),
(269,453,o),
(236,472,o),
(222,497,o),
(222,514,qs),
(222,552,o),
(281,585,o),
(321,585,qs),
(355,585,o),
(426,551,o),
(447,524,q),
(556,639,l),
(511,681,o)
);
}
);
width = 591;
}
);
note = S;
unicode = 83;
},
{
glyphname = T;
lastChange = "2022-04-05 08:45:02 +0000";
layers = (
{
hints = (
{
horizontal = 1;
place = (688, 20);
place = (688, 20);
type = Stem;
},
{
place = (259, 22);
place = (259, 22);
type = Stem;
}
);
layerId = m01;
shapes = (
{
closed = 1;
nodes = (
(281,0,l),
(281,688,l),
(522,688,l),
(522,708,l),
(18,708,l),
(18,688,l),
(259,688,l),
(259,0,l)
);
}
);
width = 540;
},
{
hints = (
{
horizontal = 1;
place = (507, 201);
place = (507, 201);
type = Stem;
},
{
place = (181, 238);
place = (181, 238);
type = Stem;
}
);
layerId = "6CD8BB23-51D6-4109-A2DC-8CCFF044BB0C";
shapes = (
{
closed = 1;
nodes = (
(593,507,l),
(593,708,l),
(7,708,l),
(7,507,l),
(181,507,l),
(181,0,l),
(419,0,l),
(419,507,l)
);
}
);
width = 600;
},
{
hints = (
{
horizontal = 1;
place = (644, 64);
place = (644, 64);
type = Stem;
},
{
place = (249, 72);
place = (249, 72);
type = Stem;
}
);
layerId = "80940EE0-8DDD-4B41-B259-288445DE0F27";
shapes = (
{
closed = 1;
nodes = (
(558,644,l),
(558,708,l),
(12,708,l),
(12,644,l),
(249,644,l),
(249,0,l),
(321,0,l),
(321,644,l)
);
}
);
width = 570;
},
{
layerId = "823AF154-79AE-4916-A822-17021D358B90";
shapes = (
{
closed = 1;
nodes = (
(5,708,l),
(5,562,l),
(205,562,l),
(205,0,l),
(376,0,l),
(376,562,l),
(576,562,l),
(576,708,l)
);
}
);
width = 581;
}
);
note = T;
unicode = 84;
},
{
glyphname = U;
lastChange = "2022-03-19 16:18:40 +0000";
layers = (
{
hints = (
{
horizontal = 1;
place = (-20, 20);
place = (-20, 20);
type = Stem;
},
{
place = (96, 22);
place = (96, 22);
type = Stem;
},
{
place = (614, 22);
place = (614, 22);
type = Stem;
}
);
layerId = m01;
shapes = (
{
closed = 1;
nodes = (
(554,-20,o),
(636,93,o),
(636,268,cs),
(636,708,l),
(614,708,l),
(614,272,ls),
(614,101,o),
(535,0,o),
(366,0,cs),
(192,0,o),
(118,108,o),
(118,272,cs),
(118,708,l),
(96,708,l),
(96,268,ls),
(96,93,o),
(178,-20,o),
(366,-20,cs)
);
}
);
width = 732;
},
{
hints = (
{
horizontal = 1;
place = (-20, 216);
place = (-20, 216);
type = Stem;
},
{
place = (56, 238);
place = (56, 238);
type = Stem;
},
{
place = (482, 237);
place = (482, 237);
type = Stem;
}
);
layerId = "6CD8BB23-51D6-4109-A2DC-8CCFF044BB0C";
shapes = (
{
closed = 1;
nodes = (
(597,-20,o),
(719,103,o),
(719,278,cs),
(719,708,l),
(482,708,l),
(482,304,ls),
(482,236,o),
(448,196,o),
(388,196,cs),
(328,196,o),
(294,236,o),
(294,304,cs),
(294,708,l),
(56,708,l),
(56,278,ls),
(56,102,o),
(172,-20,o),
(384,-20,cs)
);
}
);
width = 775;
},
{
hints = (
{
horizontal = 1;
place = (-21, 67);
place = (-21, 67);
type = Stem;
},
{
place = (90, 72);
place = (90, 72);
type = Stem;
},
{
place = (548, 72);
place = (548, 72);
type = Stem;
}
);
layerId = "80940EE0-8DDD-4B41-B259-288445DE0F27";
shapes = (
{
closed = 1;
nodes = (
(450,-79,o),
(620,53,o),
(620,264,cs),
(620,708,l),
(548,708,l),
(548,272,ls),
(548,144,o),
(488,46,o),
(355,46,cs),
(222,46,o),
(162,144,o),
(162,272,cs),
(162,708,l),
(90,708,l),
(90,264,ls),
(90,154,o),
(121,49,o),
(247,1,cs)
);
}
);
width = 710;
},
{
layerId = "823AF154-79AE-4916-A822-17021D358B90";
shapes = (
{
closed = 1;
nodes = (
(502,708,l),
(502,281,ls),
(502,218,o),
(437,135,o),
(369,135,qs),
(302,135,o),
(236,218,o),
(236,281,qs),
(236,708,l),
(66,708,l),
(66,267,ls),
(66,138,o),
(230,-19,o),
(506,-19,o),
(673,139,o),
(673,267,qs),
(673,708,l)
);
}
);
width = 738;
}
);
note = U;
unicode = 85;
},
{
glyphname = Udieresis;
lastChange = "2022-04-03 13:11:12 +0000";
layers = (
{
hints = (
{
horizontal = 1;
place = (-20, 20);
place = (-20, 20);
type = Stem;
},
{
horizontal = 1;
place = (832, 52);
place = (832, 52);
type = Stem;
},
{
place = (96, 22);
place = (96, 22);
type = Stem;
},
{
place = (266, 46);
place = (266, 46);
type = Stem;
},
{
place = (420, 46);
place = (420, 46);
type = Stem;
},
{
place = (614, 22);
place = (614, 22);
type = Stem;
}
);
layerId = m01;
shapes = (
{
closed = 1;
nodes = (
(554,-20,o),
(636,93,o),
(636,268,cs),
(636,708,l),
(614,708,l),
(614,272,ls),
(614,101,o),
(535,0,o),
(366,0,cs),
(192,0,o),
(118,108,o),
(118,272,cs),
(118,708,l),
(96,708,l),
(96,268,ls),
(96,93,o),
(178,-20,o),
(366,-20,cs)
);
},
{
closed = 1;
nodes = (
(294,770,o),
(301,777,o),
(301,787,cs),
(301,797,o),
(294,804,o),
(284,804,cs),
(274,804,o),
(267,797,o),
(267,787,cs),
(267,777,o),
(274,770,o),
(284,770,cs)
);
},
{
closed = 1;
nodes = (
(459,770,o),
(466,777,o),
(466,787,cs),
(466,797,o),
(459,804,o),
(449,804,cs),
(439,804,o),
(432,797,o),
(432,787,cs),
(432,777,o),
(439,770,o),
(449,770,cs)
);
}
);
width = 732;
},
{
hints = (
{
horizontal = 1;
place = (-20, 216);
place = (-20, 216);
type = Stem;
},
{
horizontal = 1;
place = (760, 197);
place = (760, 197);
type = Stem;
},
{
place = (56, 238);
place = (56, 238);
type = Stem;
},
{
place = (482, 237);
place = (482, 237);
type = Stem;
},
{
place = (482, 132);
place = (482, 132);
type = Stem;
},
{
place = (165, 129);
place = (165, 129);
type = Stem;
}
);
layerId = "6CD8BB23-51D6-4109-A2DC-8CCFF044BB0C";
shapes = (
{
closed = 1;
nodes = (
(56,278,ls),
(56,102,o),
(172,-20,o),
(384,-20,cs),
(597,-20,o),
(719,103,o),
(719,278,cs),
(719,708,l),
(482,708,l),
(482,304,ls),
(482,236,o),
(448,196,o),
(388,196,cs),
(328,196,o),
(294,236,o),
(294,304,cs),
(294,708,l),
(56,708,l)
);
},
{
closed = 1;
nodes = (
(414,803,o),
(459,760,o),
(515,760,cs),
(568,760,o),
(614,803,o),
(614,858,cs),
(614,911,o),
(568,957,o),
(515,957,cs),
(460,957,o),
(414,911,o),
(414,858,cs)
);
},
{
closed = 1;
nodes = (
(165,803,o),
(210,760,o),
(266,760,cs),
(319,760,o),
(365,803,o),
(365,858,cs),
(365,911,o),
(319,957,o),
(266,957,cs),
(211,957,o),
(165,911,o),
(165,858,cs)
);
}
);
width = 775;
},
{
hints = (
{
horizontal = 1;
place = (-21, 67);
place = (-21, 67);
type = Stem;
},
{
horizontal = 1;
place = (796, 102);
place = (796, 102);
type = Stem;
},
{
place = (90, 72);
place = (90, 72);
type = Stem;
},
{
place = (209, 102);
place = (209, 102);
type = Stem;
},
{
place = (401, 102);
place = (401, 102);
type = Stem;
},
{
place = (548, 72);
place = (548, 72);
type = Stem;
}
);
layerId = "80940EE0-8DDD-4B41-B259-288445DE0F27";
shapes = (
{
closed = 1;
nodes = (
(90,264,ls),
(90,154,o),
(142,-22,o),
(355,-22,cs),
(565,-22,o),
(620,147,o),
(620,264,cs),
(620,708,l),
(548,708,l),
(548,272,ls),
(548,144,o),
(488,46,o),
(355,46,cs),
(222,46,o),
(162,144,o),
(162,272,cs),
(162,708,l),
(90,708,l)
);
},
{
closed = 1;
nodes = (
(289,763,o),
(311,787,o),
(311,814,cs),
(311,841,o),
(289,865,o),
(260,865,cs),
(231,865,o),
(209,841,o),
(209,814,cs),
(209,787,o),
(231,763,o),
(260,763,cs)
);
},
{
closed = 1;
nodes = (
(481,763,o),
(503,787,o),
(503,814,cs),
(503,841,o),
(481,865,o),
(452,865,cs),
(423,865,o),
(401,841,o),
(401,814,cs),
(401,787,o),
(423,763,o),
(452,763,cs)
);
}
);
width = 710;
},
{
layerId = "823AF154-79AE-4916-A822-17021D358B90";
shapes = (
{
closed = 1;
nodes = (
(502,708,l),
(502,281,ls),
(502,218,o),
(437,135,o),
(369,135,qs),
(302,135,o),
(236,218,o),
(236,281,qs),
(236,708,l),
(66,708,l),
(66,267,ls),
(66,138,o),
(230,-19,o),
(506,-19,o),
(673,139,o),
(673,267,qs),
(673,708,l)
);
},
{
closed = 1;
nodes = (
(479,925,qs),
(444,925,o),
(396,877,o),
(396,844,qs),
(396,810,o),
(444,762,o),
(479,762,qs),
(513,762,o),
(562,810,o),
(562,878,o),
(513,925,o)
);
},
{
closed = 1;
nodes = (
(261,925,qs),
(227,925,o),
(178,877,o),
(178,844,qs),
(178,810,o),
(227,762,o),
(261,762,qs),
(296,762,o),
(345,810,o),
(345,878,o),
(296,925,o)
);
}
);
width = 738;
}
);
note = Udieresis;
unicode = 220;
},
{
glyphname = V;
lastChange = "2022-03-27 14:45:16 +0000";
layers = (
{
hints = (
{
horizontal = 1;
place = (0, 20);
place = (0, 20);
type = Stem;
},
{
place = (18, 570);
place = (18, 570);
type = Stem;
}
);
layerId = m01;
shapes = (
{
closed = 1;
nodes = (
(302,20,l),
(300,20,l),
(42,708,l),
(18,708,l),
(284,0,l),
(318,0,l),
(588,708,l),
(564,708,l)
);
}
);
width = 606;
},
{
hints = (
{
horizontal = 1;
place = (0, 708);
place = (0, 708);
type = Stem;
},
{
place = (-16, 771);
place = (-16, 771);
type = Stem;
}
);
layerId = "6CD8BB23-51D6-4109-A2DC-8CCFF044BB0C";
shapes = (
{
closed = 1;
nodes = (
(755,708,l),
(486,708,l),
(374,270,l),
(370,270,l),
(253,708,l),
(-16,708,l),
(235,0,l),
(499,0,l)
);
}
);
width = 739;
},
{
guides = (
{
pos = (311,-109);
}
);
hints = (
{
horizontal = 1;
place = (0, 708);
place = (0, 708);
type = Stem;
},
{
place = (3, 617);
place = (3, 617);
type = Stem;
},
{
horizontal = 1;
place = (0, 93);
place = (0, 93);
type = Stem;
}
);
layerId = "80940EE0-8DDD-4B41-B259-288445DE0F27";
shapes = (
{
closed = 1;
nodes = (
(273,0,l),
(349,0,l),
(620,708,l),
(543,708,l),
(313,93,l),
(311,93,l),
(81,708,l),
(3,708,l)
);
}
);
width = 623;
},
{
layerId = "823AF154-79AE-4916-A822-17021D358B90";
shapes = (
{
closed = 1;
nodes = (
(345,206,l),
(341,206,l),
(177,708,l),
(-15,708,l),
(253,0,l),
(424,0,l),
(697,708,l),
(508,708,l)
);
}
);
width = 682;
}
);
note = V;
unicode = 86;
},
{
glyphname = W;
lastChange = "2022-03-27 14:43:58 +0000";
layers = (
{
hints = (
{
horizontal = 1;
place = (0, 20);
place = (0, 20);
type = Stem;
},
{
horizontal = 1;
place = (687, 21);
place = (687, 21);
type = Stem;
},
{
place = (28, 900);
place = (28, 900);
type = Stem;
}
);
layerId = m01;
shapes = (
{
closed = 1;
nodes = (
(701,20,l),
(698,20,l),
(493,708,l),
(459,708,l),
(258,20,l),
(255,20,l),
(51,708,l),
(28,708,l),
(240,0,l),
(274,0,l),
(475,687,l),
(477,687,l),
(682,0,l),
(716,0,l),
(928,708,l),
(905,708,l)
);
}
);
width = 956;
},
{
hints = (
{
horizontal = 1;
place = (0, 708);
place = (0, 708);
type = Stem;
},
{
place = (0, 1077);
place = (0, 1077);
type = Stem;
}
);
layerId = "6CD8BB23-51D6-4109-A2DC-8CCFF044BB0C";
shapes = (
{
closed = 1;
nodes = (
(640,0,l),
(880,0,l),
(1077,708,l),
(833,708,l),
(756,310,l),
(752,310,l),
(663,708,l),
(414,708,l),
(332,310,l),
(328,310,l),
(252,708,l),
(0,708,l),
(193,0,l),
(433,0,l),
(536,400,l),
(540,400,l)
);
}
);
width = 1077;
},
{
hints = (
{
horizontal = 1;
place = (0, 99);
place = (0, 99);
type = Stem;
},
{
horizontal = 1;
place = (608, 100);
place = (608, 100);
type = Stem;
},
{
place = (14, 944);
place = (14, 944);
type = Stem;
}
);
layerId = "80940EE0-8DDD-4B41-B259-288445DE0F27";
shapes = (
{
closed = 1;
nodes = (
(223,0,l),
(307,0,l),
(485,608,l),
(487,608,l),
(665,0,l),
(749,0,l),
(958,708,l),
(882,708,l),
(709,99,l),
(707,99,l),
(530,708,l),
(444,708,l),
(267,99,l),
(265,99,l),
(90,708,l),
(14,708,l)
);
}
);
width = 972;
},
{
layerId = "823AF154-79AE-4916-A822-17021D358B90";
shapes = (
{
closed = 1;
nodes = (
(733,237,l),
(730,237,l),
(603,708,l),
(425,708,l),
(299,237,l),
(296,237,l),
(184,708,l),
(0,708,l),
(201,0,l),
(371,0,l),
(511,479,l),
(514,479,l),
(654,0,l),
(823,0,l),
(1025,708,l),
(847,708,l)
);
}
);
width = 1025;
}
);
note = W;
unicode = 87;
},
{
glyphname = X;
lastChange = "2022-03-19 16:18:40 +0000";
layers = (
{
hints = (
{
horizontal = 1;
place = (0, 708);
place = (0, 708);
type = Stem;
},
{
place = (32, 526);
place = (32, 526);
type = Stem;
}
);
layerId = m01;
shapes = (
{
closed = 1;
nodes = (
(58,0,l),
(295,354,l),
(531,0,l),
(558,0,l),
(308,371,l),
(533,708,l),
(508,708,l),
(295,388,l),
(82,708,l),
(56,708,l),
(282,371,l),
(32,0,l)
);
}
);
width = 590;
},
{
hints = (
{
horizontal = 1;
place = (0, 708);
place = (0, 708);
type = Stem;
},
{
place = (-12, 824);
place = (-12, 824);
type = Stem;
}
);
layerId = "6CD8BB23-51D6-4109-A2DC-8CCFF044BB0C";
shapes = (
{
closed = 1;
nodes = (
(812,0,l),
(551,372,l),
(787,708,l),
(507,708,l),
(400,522,l),
(288,708,l),
(1,708,l),
(241,369,l),
(-12,0,l),
(270,0,l),
(393,207,l),
(521,0,l)
);
}
);
width = 800;
},
{
hints = (
{
horizontal = 1;
place = (0, 708);
place = (0, 708);
type = Stem;
},
{
place = (19, 611);
place = (19, 611);
type = Stem;
}
);
layerId = "80940EE0-8DDD-4B41-B259-288445DE0F27";
shapes = (
{
closed = 1;
nodes = (
(42,708,l),
(279,372,l),
(19,0,l),
(109,0,l),
(324,319,l),
(540,0,l),
(630,0,l),
(370,371,l),
(605,708,l),
(519,708,l),
(326,422,l),
(132,708,l)
);
}
);
width = 649;
},
{
layerId = "823AF154-79AE-4916-A822-17021D358B90";
shapes = (
{
closed = 1;
nodes = (
(679,708,l),
(480,708,l),
(350,488,l),
(218,708,l),
(12,708,l),
(240,374,l),
(-8,0,l),
(196,0,l),
(345,250,l),
(500,0,l),
(711,0,l),
(455,374,l)
);
}
);
width = 703;
}
);
note = X;
unicode = 88;
},
{
glyphname = Y;
lastChange = "2022-03-19 16:18:40 +0000";
layers = (
{
hints = (
{
horizontal = 1;
place = (0, 708);
place = (0, 708);
type = Stem;
},
{
place = (258, 22);
place = (258, 22);
type = Stem;
}
);
layerId = m01;
shapes = (
{
closed = 1;
nodes = (
(280,0,l),
(280,310,l),
(523,708,l),
(498,708,l),
(270,332,l),
(41,708,l),
(15,708,l),
(258,310,l),
(258,0,l)
);
}
);
width = 538;
},
{
hints = (
{
horizontal = 1;
place = (0, 708);
place = (0, 708);
type = Stem;
},
{
place = (243, 238);
place = (243, 238);
type = Stem;
}
);
layerId = "6CD8BB23-51D6-4109-A2DC-8CCFF044BB0C";
shapes = (
{
closed = 1;
nodes = (
(762,708,l),
(482,708,l),
(375,500,l),
(263,708,l),
(-24,708,l),
(243,290,l),
(243,0,l),
(481,0,l),
(481,290,l)
);
}
);
width = 738;
},
{
hints = (
{
horizontal = 1;
place = (0, 708);
place = (0, 708);
type = Stem;
},
{
place = (265, 72);
place = (265, 72);
type = Stem;
}
);
layerId = "80940EE0-8DDD-4B41-B259-288445DE0F27";
shapes = (
{
closed = 1;
nodes = (
(602,708,l),
(518,708,l),
(303,365,l),
(90,708,l),
(0,708,l),
(265,305,l),
(265,0,l),
(337,0,l),
(337,305,l)
);
}
);
width = 602;
},
{
layerId = "823AF154-79AE-4916-A822-17021D358B90";
shapes = (
{
closed = 1;
nodes = (
(338,446,l),
(187,708,l),
(-20,708,l),
(246,300,l),
(246,0,l),
(417,0,l),
(417,300,l),
(689,708,l),
(489,708,l)
);
}
);
width = 669;
}
);
note = Y;
unicode = 89;
},
{
glyphname = Z;
lastChange = "2022-03-19 16:35:09 +0000";
layers = (
{
hints = (
{
horizontal = 1;
place = (0, 20);
place = (0, 20);
type = Stem;
},
{
horizontal = 1;
place = (688, 20);
place = (688, 20);
type = Stem;
},
{
place = (54, 21);
place = (54, 21);
type = Stem;
},
{
place = (520, 20);
place = (520, 20);
type = Stem;
}
);
layerId = m01;
shapes = (
{
closed = 1;
nodes = (
(543,-1,l),
(543,19,l),
(66,19,l),
(551,707,l),
(58,707,l),
(58,687,l),
(511,687,l),
(26,-1,l)
);
}
);
width = 594;
},
{
hints = (
{
horizontal = 1;
place = (0, 203);
place = (0, 203);
type = Stem;
},
{
horizontal = 1;
place = (511, 197);
place = (511, 197);
type = Stem;
},
{
place = (44, 584);
place = (44, 584);
type = Stem;
}
);
layerId = "6CD8BB23-51D6-4109-A2DC-8CCFF044BB0C";
shapes = (
{
closed = 1;
nodes = (
(628,0,l),
(628,203,l),
(357,203,l),
(671,708,l),
(55,708,l),
(55,511,l),
(319,511,l),
(0,0,l)
);
}
);
width = 672;
},
{
hints = (
{
horizontal = 1;
place = (0, 64);
place = (0, 64);
type = Stem;
},
{
horizontal = 1;
place = (644, 64);
place = (644, 64);
type = Stem;
},
{
place = (31, 510);
place = (31, 510);
type = Stem;
}
);
layerId = "80940EE0-8DDD-4B41-B259-288445DE0F27";
shapes = (
{
closed = 1;
nodes = (
(42,708,l),
(42,644,l),
(445,644,l),
(-12,0,l),
(541,0,l),
(541,64,l),
(122,64,l),
(577,708,l)
);
}
);
width = 572;
},
{
layerId = "823AF154-79AE-4916-A822-17021D358B90";
shapes = (
{
closed = 1;
nodes = (
(267,148,l),
(659,708,l),
(47,708,l),
(47,563,l),
(376,563,l),
(-23,0,l),
(597,0,l),
(597,148,l)
);
}
);
width = 635;
}
);
note = Z;
unicode = 90;
},
{
glyphname = a;
lastChange = "2022-03-19 16:18:40 +0000";
layers = (
{
hints = (
{
horizontal = 1;
place = (-14, 19);
place = (-14, 19);
type = Stem;
},
{
horizontal = 1;
place = (251, 19);
place = (251, 19);
type = Stem;
},
{
horizontal = 1;
place = (455, 19);
place = (455, 19);
type = Stem;
},
{
place = (66, 22);
place = (66, 22);
type = Stem;
},
{
place = (396, 22);
place = (396, 22);
type = Stem;
},
{
place = (397, 21);
place = (397, 21);
type = Stem;
}
);
layerId = m01;
shapes = (
{
closed = 1;
nodes = (
(396,270,l),
(259,270,o),
(228,270,o),
(156,244,cs),
(101,224,o),
(66,181,o),
(66,118,cs),
(66,33,o),
(137,-14,o),
(220,-14,cs),
(299,-14,o),
(369,30,o),
(394,110,c),
(397,110,l),
(397,71,o),
(400,35,o),
(405,0,c),
(426,0,l),
(421,33,o),
(418,68,o),
(418,104,cs),
(418,306,ls),
(418,418,o),
(356,474,o),
(248,474,cs),
(190,474,o),
(139,455,o),
(96,417,c),
(108,400,l),
(149,437,o),
(196,455,o),
(248,455,cs),
(340,455,o),
(396,406,o),
(396,307,cs)
);
},
{
closed = 1;
nodes = (
(396,207,ls),
(396,91,o),
(338,5,o),
(220,5,cs),
(152,5,o),
(88,42,o),
(88,118,cs),
(88,207,o),
(167,251,o),
(325,251,cs),
(396,251,l)
);
}
);
width = 512;
},
{
hints = (
{
horizontal = 1;
place = (0, 125);
place = (0, 125);
type = Stem;
},
{
horizontal = 1;
place = (218, 114);
place = (218, 114);
type = Stem;
},
{
horizontal = 1;
place = (381, 165);
place = (381, 165);
type = Stem;
},
{
place = (26, 195);
place = (26, 195);
type = Stem;
},
{
place = (347, 202);
place = (347, 202);
type = Stem;
},
{
horizontal = 1;
place = (-14, 139);
place = (-14, 139);
type = Stem;
},
{
place = (340, 209);
place = (340, 209);
type = Stem;
}
);
layerId = "6CD8BB23-51D6-4109-A2DC-8CCFF044BB0C";
shapes = (
{
closed = 1;
nodes = (
(347,200,ls),
(347,156,o),
(318,125,o),
(274,125,cs),
(249,125,o),
(221,139,o),
(221,166,cs),
(221,201,o),
(259,218,o),
(334,218,cs),
(347,218,l)
);
},
{
closed = 1;
nodes = (
(332,332,l),
(255,332,o),
(191,323,o),
(128,299,cs),
(64,275,o),
(26,224,o),
(26,155,cs),
(26,40,o),
(113,-14,o),
(209,-14,cs),
(260,-14,o),
(314,5,o),
(338,42,c),
(340,42,l),
(340,0,l),
(549,0,l),
(549,277,ls),
(549,356,o),
(534,415,o),
(498,467,cs),
(461,518,o),
(392,546,o),
(296,546,cs),
(203,546,o),
(109,510,o),
(46,450,c),
(161,336,l),
(197,366,o),
(234,381,o),
(272,381,cs),
(312,381,o),
(332,365,o),
(332,334,cs)
);
}
);
width = 591;
},
{
hints = (
{
horizontal = 1;
place = (-12, 56);
place = (-12, 56);
type = Stem;
},
{
horizontal = 1;
place = (234, 53);
place = (234, 53);
type = Stem;
},
{
horizontal = 1;
place = (423, 57);
place = (423, 57);
type = Stem;
},
{
place = (55, 70);
place = (55, 70);
type = Stem;
},
{
place = (385, 64);
place = (385, 64);
type = Stem;
},
{
place = (389, 60);
place = (389, 60);
type = Stem;
}
);
layerId = "80940EE0-8DDD-4B41-B259-288445DE0F27";
shapes = (
{
closed = 1;
nodes = (
(385,287,l),
(287,291,o),
(205,281,o),
(155,263,cs),
(94,240,o),
(55,204,o),
(55,130,cs),
(55,35,o),
(133,-12,o),
(217,-12,cs),
(290,-12,o),
(346,17,o),
(387,76,c),
(389,76,l),
(389,52,o),
(391,27,o),
(396,0,c),
(457,0,l),
(452,28,o),
(449,63,o),
(449,105,cs),
(449,310,ls),
(449,419,o),
(374,480,o),
(267,480,cs),
(189,480,o),
(128,458,o),
(83,413,c),
(121,368,l),
(158,405,o),
(204,423,o),
(260,423,cs),
(343,423,o),
(385,383,o),
(385,302,cs)
);
},
{
closed = 1;
nodes = (
(385,199,ls),
(385,112,o),
(327,44,o),
(235,44,cs),
(174,44,o),
(125,72,o),
(125,133,cs),
(125,176,o),
(155,204,o),
(205,217,cs),
(255,230,o),
(301,234,o),
(385,234,c)
);
}
);
width = 534;
},
{
layerId = "823AF154-79AE-4916-A822-17021D358B90";
shapes = (
{
closed = 1;
nodes = (
(304,98,o),
(255,98,qs),
(226,98,o),
(184,123,o),
(184,149,qs),
(184,217,o),
(337,217,qs),
(358,217,l),
(358,200,ls),
(358,153,o)
);
},
{
closed = 1;
nodes = (
(263,392,qs),
(303,392,o),
(353,355,o),
(353,320,qs),
(353,312,l),
(33,312,o),
(33,144,qs),
(33,89,o),
(93,15,o),
(170,-12,o),
(214,-12,qs),
(259,-12,o),
(337,23,o),
(355,53,q),
(358,53,l),
(358,0,l),
(508,0,l),
(508,251,ls),
(508,389,o),
(402,514,o),
(279,514,qs),
(146,514,o),
(57,430,q),
(140,341,l),
(195,392,o)
);
}
);
width = 566;
}
);
note = a;
unicode = 97;
},
{
glyphname = adieresis;
lastChange = "2022-03-19 16:29:37 +0000";
layers = (
{
hints = (
{
horizontal = 1;
place = (-14, 19);
place = (-14, 19);
type = Stem;
},
{
horizontal = 1;
place = (251, 19);
place = (251, 19);
type = Stem;
},
{
horizontal = 1;
place = (455, 19);
place = (455, 19);
type = Stem;
},
{
horizontal = 1;
place = (632, 52);
place = (632, 52);
type = Stem;
},
{
place = (66, 22);
place = (66, 22);
type = Stem;
},
{
place = (151, 46);
place = (151, 46);
type = Stem;
},
{
place = (305, 46);
place = (305, 46);
type = Stem;
},
{
place = (396, 22);
place = (396, 22);
type = Stem;
},
{
place = (397, 21);
place = (397, 21);
type = Stem;
}
);
layerId = m01;
shapes = (
{
closed = 1;
nodes = (
(299,-14,o),
(369,30,o),
(394,110,c),
(397,110,l),
(397,71,o),
(400,35,o),
(405,0,c),
(426,0,l),
(421,33,o),
(418,68,o),
(418,104,cs),
(418,306,ls),
(418,418,o),
(356,474,o),
(248,474,cs),
(190,474,o),
(139,455,o),
(96,417,c),
(108,400,l),
(149,437,o),
(196,455,o),
(248,455,cs),
(340,455,o),
(396,406,o),
(396,307,cs),
(396,270,l),
(316,270,ls),
(259,270,o),
(211,264,o),
(156,244,cs),
(101,224,o),
(66,181,o),
(66,118,cs),
(66,33,o),
(137,-14,o),
(220,-14,cs)
);
},
{
closed = 1;
nodes = (
(152,5,o),
(88,42,o),
(88,118,cs),
(88,207,o),
(167,251,o),
(325,251,cs),
(396,251,l),
(396,207,ls),
(396,158,o),
(385,114,o),
(360,73,cs),
(335,32,o),
(285,5,o),
(220,5,cs)
);
},
{
closed = 1;
nodes = (
(189,501,o),
(196,508,o),
(196,518,cs),
(196,528,o),
(189,535,o),
(179,535,cs),
(169,535,o),
(162,528,o),
(162,518,cs),
(162,508,o),
(169,501,o),
(179,501,cs)
);
},
{
closed = 1;
nodes = (
(331,501,o),
(338,508,o),
(338,518,cs),
(338,528,o),
(331,535,o),
(321,535,cs),
(311,535,o),
(304,528,o),
(304,518,cs),
(304,508,o),
(311,501,o),
(321,501,cs)
);
}
);
width = 512;
},
{
hints = (
{
horizontal = 1;
place = (0, 125);
place = (0, 125);
type = Stem;
},
{
horizontal = 1;
place = (218, 114);
place = (218, 114);
type = Stem;
},
{
horizontal = 1;
place = (381, 165);
place = (381, 165);
type = Stem;
},
{
horizontal = 1;
place = (580, 197);
place = (580, 197);
type = Stem;
},
{
place = (26, 195);
place = (26, 195);
type = Stem;
},
{
place = (347, 202);
place = (347, 202);
type = Stem;
},
{
horizontal = 1;
place = (-14, 139);
place = (-14, 139);
type = Stem;
},
{
place = (340, 209);
place = (340, 209);
type = Stem;
}
);
layerId = "6CD8BB23-51D6-4109-A2DC-8CCFF044BB0C";
shapes = (
{
closed = 1;
nodes = (
(347,200,ls),
(347,156,o),
(318,125,o),
(274,125,cs),
(249,125,o),
(221,139,o),
(221,166,cs),
(221,201,o),
(259,218,o),
(334,218,cs),
(347,218,l)
);
},
{
closed = 1;
nodes = (
(332,332,l),
(255,332,o),
(191,323,o),
(128,299,cs),
(64,275,o),
(26,224,o),
(26,155,cs),
(26,40,o),
(113,-14,o),
(209,-14,cs),
(260,-14,o),
(314,5,o),
(338,42,c),
(340,42,l),
(340,0,l),
(549,0,l),
(549,277,ls),
(549,356,o),
(534,415,o),
(498,467,cs),
(461,518,o),
(392,546,o),
(296,546,cs),
(203,546,o),
(109,510,o),
(46,450,c),
(161,336,l),
(197,366,o),
(234,381,o),
(272,381,cs),
(312,381,o),
(332,365,o),
(332,334,cs)
);
},
{
closed = 1;
nodes = (
(326,623,o),
(371,580,o),
(427,580,cs),
(480,580,o),
(526,623,o),
(526,678,cs),
(526,731,o),
(480,777,o),
(427,777,cs),
(372,777,o),
(326,731,o),
(326,678,cs)
);
},
{
closed = 1;
nodes = (
(77,623,o),
(122,580,o),
(178,580,cs),
(231,580,o),
(277,623,o),
(277,678,cs),
(277,731,o),
(231,777,o),
(178,777,cs),
(123,777,o),
(77,731,o),
(77,678,cs)
);
}
);
width = 591;
},
{
hints = (
{
horizontal = 1;
place = (-12, 56);
place = (-12, 56);
type = Stem;
},
{
horizontal = 1;
place = (234, 53);
place = (234, 53);
type = Stem;
},
{
horizontal = 1;
place = (423, 57);
place = (423, 57);
type = Stem;
},
{
horizontal = 1;
place = (596, 102);
place = (596, 102);
type = Stem;
},
{
place = (55, 70);
place = (55, 70);
type = Stem;
},
{
place = (385, 64);
place = (385, 64);
type = Stem;
},
{
place = (389, 60);
place = (389, 60);
type = Stem;
},
{
place = (119, 102);
place = (119, 102);
type = Stem;
},
{
place = (311, 102);
place = (311, 102);
type = Stem;
}
);
layerId = "80940EE0-8DDD-4B41-B259-288445DE0F27";
shapes = (
{
closed = 1;
nodes = (
(385,287,l),
(320,287,o),
(279,286,o),
(224,279,cs),
(197,275,o),
(174,270,o),
(155,263,cs),
(94,240,o),
(55,204,o),
(55,130,cs),
(55,35,o),
(133,-12,o),
(217,-12,cs),
(290,-12,o),
(346,17,o),
(387,76,c),
(389,76,l),
(389,52,o),
(391,27,o),
(396,0,c),
(457,0,l),
(452,28,o),
(449,63,o),
(449,105,cs),
(449,310,ls),
(449,419,o),
(374,480,o),
(267,480,cs),
(189,480,o),
(128,458,o),
(83,413,c),
(121,368,l),
(158,405,o),
(204,423,o),
(260,423,cs),
(343,423,o),
(385,383,o),
(385,302,cs)
);
},
{
closed = 1;
nodes = (
(385,199,ls),
(385,112,o),
(327,44,o),
(235,44,cs),
(174,44,o),
(125,72,o),
(125,133,cs),
(125,176,o),
(155,204,o),
(205,217,cs),
(255,230,o),
(301,234,o),
(365,234,cs),
(385,234,l)
);
},
{
closed = 1;
nodes = (
(199,511,o),
(221,535,o),
(221,562,cs),
(221,589,o),
(199,613,o),
(170,613,cs),
(141,613,o),
(119,589,o),
(119,562,cs),
(119,535,o),
(141,511,o),
(170,511,cs)
);
},
{
closed = 1;
nodes = (
(391,511,o),
(413,535,o),
(413,562,cs),
(413,589,o),
(391,613,o),
(362,613,cs),
(333,613,o),
(311,589,o),
(311,562,cs),
(311,535,o),
(333,511,o),
(362,511,cs)
);
}
);
width = 534;
},
{
layerId = "823AF154-79AE-4916-A822-17021D358B90";
shapes = (
{
closed = 1;
nodes = (
(304,98,o),
(255,98,qs),
(226,98,o),
(184,123,o),
(184,149,qs),
(184,217,o),
(337,217,qs),
(358,217,l),
(358,200,ls),
(358,153,o)
);
},
{
closed = 1;
nodes = (
(263,392,qs),
(303,392,o),
(353,355,o),
(353,320,qs),
(353,312,l),
(33,312,o),
(33,144,qs),
(33,89,o),
(93,15,o),
(170,-12,o),
(214,-12,qs),
(259,-12,o),
(337,23,o),
(355,53,q),
(358,53,l),
(358,0,l),
(508,0,l),
(508,251,ls),
(508,389,o),
(402,514,o),
(279,514,qs),
(146,514,o),
(57,430,q),
(140,341,l),
(195,392,o)
);
},
{
closed = 1;
nodes = (
(394,710,qs),
(359,710,o),
(311,662,o),
(311,629,qs),
(311,595,o),
(359,547,o),
(394,547,qs),
(428,547,o),
(477,595,o),
(477,663,o),
(428,710,o)
);
},
{
closed = 1;
nodes = (
(176,710,qs),
(142,710,o),
(93,662,o),
(93,629,qs),
(93,595,o),
(142,547,o),
(176,547,qs),
(211,547,o),
(260,595,o),
(260,663,o),
(211,710,o)
);
}
);
width = 566;
}
);
note = adieresis;
unicode = 228;
},
{
glyphname = b;
lastChange = "2022-03-19 16:18:40 +0000";
layers = (
{
hints = (
{
horizontal = 1;
place = (-14, 19);
place = (-14, 19);
type = Stem;
},
{
horizontal = 1;
place = (455, 19);
place = (455, 19);
type = Stem;
},
{
place = (102, 22);
place = (102, 22);
type = Stem;
},
{
place = (542, 22);
place = (542, 22);
type = Stem;
},
{
place = (102, 21);
place = (102, 21);
type = Stem;
}
);
layerId = m01;
shapes = (
{
closed = 1;
nodes = (
(127,124,l),
(160,37,o),
(243,-14,o),
(334,-14,cs),
(467,-14,o),
(564,89,o),
(564,229,cs),
(564,372,o),
(470,474,o),
(334,474,cs),
(245,474,o),
(166,424,o),
(127,335,c),
(124,335,l),
(124,756,l),
(102,756,l),
(102,0,l),
(124,0,l),
(124,124,l)
);
},
{
closed = 1;
nodes = (
(542,104,o),
(458,5,o),
(334,5,cs),
(214,5,o),
(123,106,o),
(123,230,cs),
(123,354,o),
(214,455,o),
(334,455,cs),
(458,455,o),
(542,354,o),
(542,229,cs)
);
}
);
width = 626;
},
{
hints = (
{
horizontal = 1;
place = (-14, 190);
place = (-14, 190);
type = Stem;
},
{
horizontal = 1;
place = (352, 188);
place = (352, 188);
type = Stem;
},
{
place = (53, 230);
place = (53, 230);
type = Stem;
},
{
place = (448, 214);
place = (448, 214);
type = Stem;
},
{
horizontal = 1;
place = (0, 176);
place = (0, 176);
type = Stem;
},
{
place = (53, 207);
place = (53, 207);
type = Stem;
},
{
place = (53, 219);
place = (53, 219);
type = Stem;
}
);
layerId = "6CD8BB23-51D6-4109-A2DC-8CCFF044BB0C";
shapes = (
{
closed = 1;
nodes = (
(291,14,o),
(357,-14,o),
(422,-14,cs),
(571,-14,o),
(662,116,o),
(662,265,cs),
(662,412,o),
(570,540,o),
(422,540,cs),
(370,540,o),
(316,519,o),
(285,484,c),
(283,484,l),
(283,756,l),
(53,756,l),
(53,0,l),
(260,0,l),
(260,55,l),
(262,55,l)
);
},
{
closed = 1;
nodes = (
(448,213,o),
(415,176,o),
(362,176,cs),
(309,176,o),
(272,214,o),
(272,265,cs),
(272,313,o),
(310,352,o),
(362,352,cs),
(415,352,o),
(448,313,o),
(448,265,cs)
);
}
);
width = 694;
},
{
hints = (
{
horizontal = 1;
place = (-12, 58);
place = (-12, 58);
type = Stem;
},
{
horizontal = 1;
place = (423, 57);
place = (423, 57);
type = Stem;
},
{
place = (92, 68);
place = (92, 68);
type = Stem;
},
{
place = (509, 72);
place = (509, 72);
type = Stem;
},
{
place = (92, 60);
place = (92, 60);
type = Stem;
}
);
layerId = "80940EE0-8DDD-4B41-B259-288445DE0F27";
shapes = (
{
closed = 1;
nodes = (
(162,79,l),
(201,22,o),
(270,-12,o),
(339,-12,cs),
(483,-12,o),
(581,94,o),
(581,234,cs),
(581,374,o),
(483,480,o),
(339,480,cs),
(270,480,o),
(201,446,o),
(162,387,c),
(160,387,l),
(160,756,l),
(92,756,l),
(92,0,l),
(160,0,l),
(160,79,l)
);
},
{
closed = 1;
nodes = (
(509,126,o),
(441,46,o),
(332,46,cs),
(228,46,o),
(152,126,o),
(152,234,cs),
(152,342,o),
(228,423,o),
(332,423,cs),
(441,423,o),
(509,342,o),
(509,234,cs)
);
}
);
width = 637;
},
{
layerId = "823AF154-79AE-4916-A822-17021D358B90";
shapes = (
{
closed = 1;
nodes = (
(489,512,o),
(384,512,qs),
(289,512,o),
(232,445,q),
(230,445,l),
(230,756,l),
(66,756,l),
(66,0,l),
(217,0,l),
(217,65,l),
(219,65,l),
(243,28,o),
(332,-14,o),
(382,-14,qs),
(490,-14,o),
(619,141,o),
(619,251,qs),
(619,359,o)
);
},
{
closed = 1;
nodes = (
(398,122,o),
(343,122,qs),
(290,122,o),
(223,199,o),
(223,250,qs),
(223,300,o),
(290,378,o),
(343,378,qs),
(398,378,o),
(461,303,o),
(461,251,qs),
(461,198,o)
);
}
);
width = 659;
}
);
note = b;
unicode = 98;
},
{
glyphname = c;
lastChange = "2022-03-29 17:00:53 +0000";
layers = (
{
hints = (
{
horizontal = 1;
place = (-14, 19);
place = (-14, 19);
type = Stem;
},
{
horizontal = 1;
place = (455, 19);
place = (455, 19);
type = Stem;
},
{
place = (62, 22);
place = (62, 22);
type = Stem;
}
);
layerId = m01;
shapes = (
{
closed = 1;
nodes = (
(332,-13,o),
(364,-7,o),
(391,4,c),
(391,27,l),
(364,13,o),
(332,6,o),
(297,6,cs),
(170,6,o),
(85,105,o),
(85,230,cs),
(85,355,o),
(170,456,o),
(297,456,cs),
(332,456,o),
(363,447,o),
(391,430,c),
(391,455,l),
(363,468,o),
(332,475,o),
(297,475,cs),
(162,475,o),
(63,371,o),
(63,230,cs),
(63,89,o),
(161,-13,o),
(297,-13,cs)
);
}
);
width = 396;
},
{
hints = (
{
horizontal = 1;
place = (-20, 196);
place = (-20, 196);
type = Stem;
},
{
horizontal = 1;
place = (352, 194);
place = (352, 194);
type = Stem;
},
{
place = (32, 227);
place = (32, 227);
type = Stem;
}
);
layerId = "6CD8BB23-51D6-4109-A2DC-8CCFF044BB0C";
shapes = (
{
closed = 1;
nodes = (
(488,30,q),
(423,196,l),
(397,176,o),
(349,176,qs),
(313,176,o),
(259,221,o),
(259,305,o),
(313,352,o),
(349,352,qs),
(400,352,o),
(424,331,q),
(488,511,l),
(444,546,o),
(342,546,qs),
(208,546,o),
(32,389,o),
(32,263,qs),
(32,135,o),
(206,-20,o),
(339,-20,qs),
(440,-20,o)
);
}
);
width = 478;
},
{
hints = (
{
horizontal = 1;
place = (-12, 58);
place = (-12, 58);
type = Stem;
},
{
horizontal = 1;
place = (423, 57);
place = (423, 57);
type = Stem;
},
{
place = (56, 72);
place = (56, 72);
type = Stem;
}
);
layerId = "80940EE0-8DDD-4B41-B259-288445DE0F27";
shapes = (
{
closed = 1;
nodes = (
(405,78,l),
(378,57,o),
(345,46,o),
(306,46,c),
(199,46,o),
(128,126,o),
(128,234,c),
(128,343,o),
(200,423,o),
(307,423,c),
(345,423,o),
(380,409,o),
(405,386,c),
(405,458,l),
(374,472,o),
(340,480,o),
(306,480,c),
(157,480,o),
(56,377,o),
(56,234,c),
(56,91,o),
(157,-12,o),
(306,-12,c),
(343,-12,o),
(376,-5,o),
(405,8,c)
);
}
);
width = 409;
},
{
hints = (
{
horizontal = 1;
place = (-15, 138);
place = (-15, 138);
type = Stem;
},
{
horizontal = 1;
place = (378, 137);
place = (378, 137);
type = Stem;
},
{
horizontal = 1;
place = (-15, 138);
place = (-15, 138);
type = Stem;
},
{
horizontal = 1;
place = (378, 137);
place = (378, 137);
type = Stem;
},
{
place = (39, 166);
place = (39, 166);
type = Stem;
},
{
place = (40, 166);
place = (40, 166);
type = Stem;
}
);
layerId = "823AF154-79AE-4916-A822-17021D358B90";
shapes = (
{
closed = 1;
nodes = (
(411,514,o),
(317,514,qs),
(198,514,o),
(39,368,o),
(39,249,qs),
(39,128,o),
(197,-16,o),
(318,-16,qs),
(409,-16,o),
(464,48,q),
(411,152,l),
(381,122,o),
(322,122,qs),
(269,122,o),
(205,196,o),
(205,302,o),
(269,375,o),
(320,377,qs),
(373,379,o),
(413,353,q),
(464,474,l)
);
}
);
width = 494;
}
);
note = c;
unicode = 99;
},
{
glyphname = d;
lastChange = "2022-03-19 16:18:40 +0000";
layers = (
{
hints = (
{
horizontal = 1;
place = (-14, 19);
place = (-14, 19);
type = Stem;
},
{
horizontal = 1;
place = (455, 19);
place = (455, 19);
type = Stem;
},
{
place = (62, 22);
place = (62, 22);
type = Stem;
},
{
place = (502, 22);
place = (502, 22);
type = Stem;
},
{
place = (503, 21);
place = (503, 21);
type = Stem;
}
);
layerId = m01;
shapes = (
{
closed = 1;
nodes = (
(381,-14,o),
(460,36,o),
(499,124,c),
(502,124,l),
(502,0,l),
(524,0,l),
(524,756,l),
(502,756,l),
(502,335,l),
(499,335,l),
(460,424,o),
(381,474,o),
(292,474,cs),
(159,474,o),
(62,369,o),
(62,229,cs),
(62,89,o),
(159,-14,o),
(292,-14,cs)
);
},
{
closed = 1;
nodes = (
(168,5,o),
(84,104,o),
(84,229,cs),
(84,354,o),
(168,455,o),
(292,455,cs),
(412,455,o),
(503,354,o),
(503,230,cs),
(503,106,o),
(412,5,o),
(292,5,cs)
);
}
);
width = 626;
},
{
hints = (
{
horizontal = 1;
place = (0, 176);
place = (0, 176);
type = Stem;
},
{
horizontal = 1;
place = (352, 188);
place = (352, 188);
type = Stem;
},
{
place = (32, 214);
place = (32, 214);
type = Stem;
},
{
place = (411, 230);
place = (411, 230);
type = Stem;
},
{
horizontal = 1;
place = (-14, 190);
place = (-14, 190);
type = Stem;
},
{
place = (434, 207);
place = (434, 207);
type = Stem;
},
{
place = (422, 219);
place = (422, 219);
type = Stem;
}
);
layerId = "6CD8BB23-51D6-4109-A2DC-8CCFF044BB0C";
shapes = (
{
closed = 1;
nodes = (
(409,484,l),
(378,519,o),
(324,540,o),
(272,540,cs),
(124,540,o),
(32,412,o),
(32,265,cs),
(32,116,o),
(123,-14,o),
(272,-14,cs),
(337,-14,o),
(403,14,o),
(432,55,c),
(434,55,l),
(434,0,l),
(641,0,l),
(641,756,l),
(411,756,l),
(411,484,l)
);
},
{
closed = 1;
nodes = (
(246,313,o),
(279,352,o),
(332,352,cs),
(384,352,o),
(422,313,o),
(422,265,cs),
(422,214,o),
(385,176,o),
(332,176,cs),
(279,176,o),
(246,213,o),
(246,265,cs)
);
}
);
width = 694;
},
{
hints = (
{
horizontal = 1;
place = (-12, 58);
place = (-12, 58);
type = Stem;
},
{
horizontal = 1;
place = (423, 57);
place = (423, 57);
type = Stem;
},
{
place = (56, 72);
place = (56, 72);
type = Stem;
},
{
place = (477, 68);
place = (477, 68);
type = Stem;
},
{
place = (485, 60);
place = (485, 60);
type = Stem;
}
);
layerId = "80940EE0-8DDD-4B41-B259-288445DE0F27";
shapes = (
{
closed = 1;
nodes = (
(475,387,l),
(436,446,o),
(367,480,o),
(298,480,cs),
(154,480,o),
(56,374,o),
(56,234,cs),
(56,94,o),
(154,-12,o),
(298,-12,cs),
(367,-12,o),
(436,22,o),
(475,79,c),
(477,79,l),
(477,0,l),
(545,0,l),
(545,756,l),
(477,756,l),
(477,387,l)
);
},
{
closed = 1;
nodes = (
(196,46,o),
(128,126,o),
(128,234,cs),
(128,342,o),
(196,423,o),
(305,423,cs),
(409,423,o),
(485,342,o),
(485,234,cs),
(485,126,o),
(409,46,o),
(305,46,cs)
);
}
);
width = 637;
},
{
layerId = "823AF154-79AE-4916-A822-17021D358B90";
shapes = (
{
closed = 1;
nodes = (
(428,756,l),
(428,445,l),
(426,445,l),
(369,512,o),
(274,512,qs),
(169,512,o),
(39,359,o),
(39,251,qs),
(39,141,o),
(168,-14,o),
(276,-14,qs),
(326,-14,o),
(415,28,o),
(439,65,q),
(441,65,l),
(441,0,l),
(592,0,l),
(592,756,l)
);
},
{
closed = 1;
nodes = (
(368,122,o),
(315,122,qs),
(260,122,o),
(197,198,o),
(197,251,qs),
(197,303,o),
(260,378,o),
(315,378,qs),
(368,378,o),
(435,300,o),
(435,250,qs),
(435,199,o)
);
}
);
width = 658;
}
);
note = d;
unicode = 100;
},
{
glyphname = e;
lastChange = "2022-03-19 16:18:40 +0000";
layers = (
{
hints = (
{
horizontal = 1;
place = (-14, 20);
place = (-14, 20);
type = Stem;
},
{
horizontal = 1;
place = (235, 19);
place = (235, 19);
type = Stem;
},
{
horizontal = 1;
place = (455, 19);
place = (455, 19);
type = Stem;
},
{
place = (62, 22);
place = (62, 22);
type = Stem;
},
{
place = (473, 21);
place = (473, 21);
type = Stem;
},
{
place = (62, 23);
place = (62, 23);
type = Stem;
}
);
layerId = m01;
shapes = (
{
closed = 1;
nodes = (
(368,-14,o),
(429,16,o),
(476,76,c),
(460,90,l),
(417,34,o),
(361,6,o),
(291,6,cs),
(159,6,o),
(84,112,o),
(84,235,c),
(494,235,l),
(494,254,ls),
(494,373,o),
(417,474,o),
(281,474,cs),
(157,474,o),
(62,374,o),
(62,235,cs),
(62,90,o),
(155,-14,o),
(291,-14,cs)
);
},
{
closed = 1;
nodes = (
(85,327,o),
(144,455,o),
(280,455,cs),
(393,455,o),
(470,374,o),
(473,254,c),
(85,254,l)
);
}
);
width = 556;
},
{
hints = (
{
horizontal = 1;
place = (-20, 169);
place = (-20, 169);
type = Stem;
},
{
horizontal = 1;
place = (209, 124);
place = (209, 124);
type = Stem;
},
{
horizontal = 1;
place = (397, 149);
place = (397, 149);
type = Stem;
},
{
place = (32, 212);
place = (32, 212);
type = Stem;
}
);
layerId = "6CD8BB23-51D6-4109-A2DC-8CCFF044BB0C";
shapes = (
{
closed = 1;
nodes = (
(244,333,l),
(248,366,o),
(280,397,o),
(327,397,cs),
(372,397,o),
(403,370,o),
(403,333,c)
);
},
{
closed = 1;
nodes = (
(602,425,o),
(489,546,o),
(325,546,cs),
(158,546,o),
(32,432,o),
(32,263,cs),
(32,97,o),
(154,-20,o),
(330,-20,cs),
(446,-20,o),
(539,27,o),
(586,103,c),
(422,186,l),
(403,161,o),
(374,149,o),
(336,149,cs),
(292,149,o),
(250,173,o),
(246,209,c),
(600,209,l),
(601,225,o),
(602,241,o),
(602,258,cs)
);
}
);
width = 630;
},
{
hints = (
{
horizontal = 1;
place = (-12, 58);
place = (-12, 58);
type = Stem;
},
{
horizontal = 1;
place = (216, 54);
place = (216, 54);
type = Stem;
},
{
horizontal = 1;
place = (423, 57);
place = (423, 57);
type = Stem;
},
{
place = (56, 72);
place = (56, 72);
type = Stem;
},
{
place = (447, 69);
place = (447, 69);
type = Stem;
},
{
place = (56, 71);
place = (56, 71);
type = Stem;
}
);
layerId = "80940EE0-8DDD-4B41-B259-288445DE0F27";
shapes = (
{
closed = 1;
nodes = (
(128,270,l),
(135,353,o),
(204,423,o),
(292,423,cs),
(387,423,o),
(443,361,o),
(447,270,c)
);
},
{
closed = 1;
nodes = (
(516,383,o),
(433,480,o),
(292,480,cs),
(159,480,o),
(56,374,o),
(56,234,cs),
(56,93,o),
(159,-12,o),
(298,-12,cs),
(380,-12,o),
(447,21,o),
(499,87,c),
(448,127,l),
(420,82,o),
(363,46,o),
(298,46,cs),
(203,46,o),
(130,121,o),
(127,216,c),
(515,216,l),
(516,224,o),
(516,235,o),
(516,248,cs)
);
}
);
width = 572;
},
{
layerId = "823AF154-79AE-4916-A822-17021D358B90";
shapes = (
{
closed = 1;
nodes = (
(263,401,o),
(309,401,qs),
(356,401,o),
(407,347,o),
(407,306,q),
(196,306,l),
(199,345,o)
);
},
{
closed = 1;
nodes = (
(420,514,o),
(308,514,qs),
(192,514,o),
(39,367,o),
(39,247,qs),
(39,125,o),
(196,-16,o),
(313,-16,qs),
(466,-16,o),
(539,90,q),
(425,162,l),
(387,110,o),
(315,110,qs),
(270,110,o),
(200,164,o),
(196,204,q),
(557,204,l),
(558,216,o),
(558,243,qs),
(558,369,o)
);
}
);
width = 596;
}
);
note = e;
unicode = 101;
},
{
glyphname = f;
lastChange = "2022-03-29 16:58:13 +0000";
layers = (
{
hints = (
{
horizontal = 1;
place = (441, 19);
place = (441, 19);
type = Stem;
},
{
horizontal = 1;
place = (750, 18);
place = (750, 18);
type = Stem;
},
{
place = (120, 23);
place = (120, 23);
type = Stem;
},
{
place = (121, 22);
place = (121, 22);
type = Stem;
}
);
layerId = m01;
shapes = (
{
closed = 1;
nodes = (
(286,762,l),
(273,766,o),
(257,768,o),
(240,768,cs),
(175,768,o),
(120,728,o),
(120,625,cs),
(120,460,l),
(24,460,l),
(24,441,l),
(121,441,l),
(121,0,l),
(143,0,l),
(143,441,l),
(268,441,l),
(268,460,l),
(143,460,l),
(143,626,ls),
(143,695,o),
(173,750,o),
(241,750,cs),
(254,750,o),
(267,748,o),
(282,745,c)
);
}
);
width = 282;
},
{
hints = (
{
horizontal = 1;
place = (361, 165);
place = (361, 165);
type = Stem;
},
{
horizontal = 1;
place = (607, 179);
place = (607, 179);
type = Stem;
},
{
place = (90, 230);
place = (90, 230);
type = Stem;
}
);
layerId = "6CD8BB23-51D6-4109-A2DC-8CCFF044BB0C";
shapes = (
{
closed = 1;
nodes = (
(441,771,l),
(416,781,o),
(381,786,o),
(336,786,cs),
(172,786,o),
(90,703,o),
(90,538,cs),
(90,526,l),
(0,526,l),
(0,361,l),
(90,361,l),
(90,0,l),
(320,0,l),
(320,361,l),
(431,361,l),
(431,526,l),
(320,526,l),
(320,533,ls),
(320,582,o),
(340,607,o),
(381,607,cs),
(396,607,o),
(411,604,o),
(426,598,c)
);
}
);
width = 458;
},
{
hints = (
{
horizontal = 1;
place = (411, 57);
place = (411, 57);
type = Stem;
},
{
horizontal = 1;
place = (708, 60);
place = (708, 60);
type = Stem;
},
{
place = (110, 68);
place = (110, 68);
type = Stem;
},
{
place = (110, 178);
place = (110, 178);
type = Stem;
}
);
layerId = "80940EE0-8DDD-4B41-B259-288445DE0F27";
shapes = (
{
closed = 1;
nodes = (
(178,468,l),
(178,588,ls),
(178,665,o),
(198,708,o),
(266,708,cs),
(281,708,o),
(297,706,o),
(313,701,c),
(325,761,l),
(309,766,o),
(290,768,o),
(269,768,cs),
(164,768,o),
(110,704,o),
(110,596,cs),
(110,468,l),
(12,468,l),
(12,411,l),
(110,411,l),
(110,0,l),
(178,0,l),
(178,411,l),
(288,411,l),
(288,468,l)
);
}
);
width = 295;
},
{
layerId = "823AF154-79AE-4916-A822-17021D358B90";
shapes = (
{
closed = 1;
nodes = (
(305,775,qs),
(91,775,o),
(91,546,qs),
(91,498,l),
(0,498,l),
(0,375,l),
(91,375,l),
(91,0,l),
(255,0,l),
(255,375,l),
(366,375,l),
(366,498,l),
(255,498,l),
(255,548,ls),
(255,642,o),
(328,642,qs),
(352,642,o),
(373,635,q),
(384,765,l),
(353,775,o)
);
}
);
width = 394;
}
);
note = f;
unicode = 102;
},
{
glyphname = g;
lastChange = "2022-03-19 16:18:40 +0000";
layers = (
{
hints = (
{
horizontal = 1;
place = (-250, 19);
place = (-250, 19);
type = Stem;
},
{
horizontal = 1;
place = (-14, 18);
place = (-14, 18);
type = Stem;
},
{
horizontal = 1;
place = (455, 19);
place = (455, 19);
type = Stem;
},
{
place = (62, 22);
place = (62, 22);
type = Stem;
},
{
place = (502, 22);
place = (502, 22);
type = Stem;
},
{
place = (503, 21);
place = (503, 21);
type = Stem;
}
);
layerId = m01;
shapes = (
{
closed = 1;
nodes = (
(380,-250,o),
(441,-219,o),
(475,-167,cs),
(509,-114,o),
(524,-50,o),
(524,26,cs),
(524,460,l),
(502,460,l),
(502,335,l),
(499,335,l),
(460,424,o),
(381,474,o),
(292,474,cs),
(159,474,o),
(62,369,o),
(62,229,cs),
(62,89,o),
(159,-14,o),
(292,-14,cs),
(383,-14,o),
(466,37,o),
(499,124,c),
(502,124,l),
(502,28,ls),
(502,-43,o),
(489,-100,o),
(460,-151,cs),
(431,-202,o),
(374,-231,o),
(297,-231,cs),
(220,-231,o),
(157,-204,o),
(109,-149,c),
(94,-164,l),
(145,-221,o),
(212,-250,o),
(297,-250,cs)
);
},
{
closed = 1;
nodes = (
(168,4,o),
(84,104,o),
(84,229,cs),
(84,354,o),
(168,455,o),
(292,455,cs),
(412,455,o),
(503,354,o),
(503,230,cs),
(503,106,o),
(412,4,o),
(292,4,cs)
);
}
);
width = 626;
},
{
hints = (
{
horizontal = 1;
place = (-240, 174);
place = (-240, 174);
type = Stem;
},
{
horizontal = 1;
place = (0, 176);
place = (0, 176);
type = Stem;
},
{
horizontal = 1;
place = (352, 188);
place = (352, 188);
type = Stem;
},
{
place = (32, 214);
place = (32, 214);
type = Stem;
},
{
place = (417, 224);
place = (417, 224);
type = Stem;
},
{
horizontal = 1;
place = (352, 174);
place = (352, 174);
type = Stem;
},
{
place = (424, 217);
place = (424, 217);
type = Stem;
},
{
place = (422, 219);
place = (422, 219);
type = Stem;
}
);
layerId = "6CD8BB23-51D6-4109-A2DC-8CCFF044BB0C";
shapes = (
{
closed = 1;
nodes = (
(32,114,o),
(117,0,o),
(272,0,cs),
(332,0,o),
(387,24,o),
(414,56,c),
(417,56,l),
(417,33,ls),
(417,-28,o),
(364,-66,o),
(293,-66,cs),
(234,-66,o),
(181,-47,o),
(133,-10,c),
(32,-163,l),
(108,-214,o),
(202,-240,o),
(313,-240,cs),
(401,-240,o),
(473,-223,o),
(538,-180,cs),
(602,-137,o),
(641,-57,o),
(641,54,cs),
(641,526,l),
(424,526,l),
(424,473,l),
(421,473,l),
(388,518,o),
(338,540,o),
(272,540,cs),
(124,540,o),
(32,412,o),
(32,265,cs)
);
},
{
closed = 1;
nodes = (
(246,313,o),
(279,352,o),
(332,352,cs),
(384,352,o),
(422,313,o),
(422,265,cs),
(422,214,o),
(385,176,o),
(332,176,cs),
(279,176,o),
(246,213,o),
(246,265,cs)
);
}
);
width = 697;
},
{
hints = (
{
horizontal = 1;
place = (-240, 60);
place = (-240, 60);
type = Stem;
},
{
horizontal = 1;
place = (0, 58);
place = (0, 58);
type = Stem;
},
{
horizontal = 1;
place = (423, 57);
place = (423, 57);
type = Stem;
},
{
place = (56, 72);
place = (56, 72);
type = Stem;
},
{
place = (477, 68);
place = (477, 68);
type = Stem;
},
{
place = (485, 60);
place = (485, 60);
type = Stem;
}
);
layerId = "80940EE0-8DDD-4B41-B259-288445DE0F27";
shapes = (
{
closed = 1;
nodes = (
(66,-146,l),
(122,-205,o),
(206,-240,o),
(291,-240,cs),
(390,-240,o),
(461,-207,o),
(496,-156,cs),
(531,-104,o),
(545,-53,o),
(545,4,cs),
(545,468,l),
(477,468,l),
(477,387,l),
(475,387,l),
(439,446,o),
(369,480,o),
(298,480,cs),
(155,480,o),
(56,374,o),
(56,238,cs),
(56,99,o),
(154,0,o),
(298,0,cs),
(367,0,o),
(440,36,o),
(475,92,c),
(477,92,l),
(477,4,ls),
(477,-105,o),
(421,-180,o),
(294,-180,cs),
(225,-180,o),
(154,-143,o),
(115,-94,c)
);
},
{
closed = 1;
nodes = (
(196,58,o),
(128,137,o),
(128,240,cs),
(128,343,o),
(196,423,o),
(305,423,cs),
(408,423,o),
(485,340,o),
(485,240,cs),
(485,132,o),
(410,58,o),
(305,58,cs)
);
}
);
width = 632;
},
{
layerId = "823AF154-79AE-4916-A822-17021D358B90";
shapes = (
{
closed = 1;
nodes = (
(437,498,l),
(437,434,l),
(435,434,l),
(383,512,o),
(276,512,qs),
(168,512,o),
(39,359,o),
(39,143,o),
(168,-5,o),
(277,-5,qs),
(377,-5,o),
(428,61,q),
(431,61,l),
(431,31,ls),
(431,-33,o),
(360,-108,o),
(290,-108,qs),
(197,-108,o),
(125,-45,q),
(43,-162,l),
(92,-199,o),
(232,-240,o),
(299,-240,qs),
(436,-240,o),
(592,-95,o),
(592,47,qs),
(592,498,l)
);
},
{
closed = 1;
nodes = (
(315,125,qs),
(262,125,o),
(198,200,o),
(198,252,qs),
(198,306,o),
(261,378,o),
(369,378,o),
(436,305,o),
(436,199,o),
(370,125,o)
);
}
);
width = 658;
}
);
note = g;
unicode = 103;
},
{
glyphname = h;
lastChange = "2022-03-19 16:18:40 +0000";
layers = (
{
hints = (
{
horizontal = 1;
place = (455, 19);
place = (455, 19);
type = Stem;
},
{
place = (102, 22);
place = (102, 22);
type = Stem;
},
{
place = (451, 22);
place = (451, 22);
type = Stem;
}
);
layerId = m01;
shapes = (
{
closed = 1;
nodes = (
(124,0,l),
(124,230,ls),
(124,367,o),
(203,455,o),
(307,455,cs),
(362,455,o),
(403,430,o),
(423,393,cs),
(443,356,o),
(451,319,o),
(451,276,cs),
(451,0,l),
(473,0,l),
(473,278,ls),
(473,389,o),
(424,474,o),
(307,474,cs),
(226,474,o),
(153,423,o),
(126,339,c),
(124,339,l),
(124,756,l),
(102,756,l),
(102,0,l)
);
}
);
width = 569;
},
{
hints = (
{
horizontal = 1;
place = (352, 188);
place = (352, 188);
type = Stem;
},
{
place = (53, 231);
place = (53, 231);
type = Stem;
},
{
place = (386, 232);
place = (386, 232);
type = Stem;
}
);
layerId = "6CD8BB23-51D6-4109-A2DC-8CCFF044BB0C";
shapes = (
{
closed = 1;
nodes = (
(367,540,o),
(314,509,o),
(286,468,c),
(284,468,l),
(284,756,l),
(53,756,l),
(53,0,l),
(284,0,l),
(284,279,ls),
(284,327,o),
(307,352,o),
(336,352,cs),
(369,352,o),
(386,328,o),
(386,280,cs),
(386,0,l),
(618,0,l),
(618,320,ls),
(618,376,o),
(607,424,o),
(580,469,cs),
(553,513,o),
(501,540,o),
(430,540,cs)
);
}
);
width = 666;
},
{
hints = (
{
horizontal = 1;
place = (423, 57);
place = (423, 57);
type = Stem;
},
{
place = (92, 68);
place = (92, 68);
type = Stem;
},
{
place = (429, 68);
place = (429, 68);
type = Stem;
}
);
layerId = "80940EE0-8DDD-4B41-B259-288445DE0F27";
shapes = (
{
closed = 1;
nodes = (
(160,756,l),
(92,756,l),
(92,0,l),
(160,0,l),
(160,240,ls),
(160,357,o),
(223,423,o),
(302,423,cs),
(395,423,o),
(429,364,o),
(429,259,cs),
(429,0,l),
(497,0,l),
(497,287,ls),
(497,406,o),
(435,480,o),
(319,480,cs),
(252,480,o),
(186,444,o),
(162,391,c),
(160,391,l)
);
}
);
width = 583;
},
{
layerId = "823AF154-79AE-4916-A822-17021D358B90";
shapes = (
{
closed = 1;
nodes = (
(557,393,o),
(469,512,o),
(375,512,qs),
(326,512,o),
(250,467,o),
(232,435,q),
(230,435,l),
(230,756,l),
(66,756,l),
(66,0,l),
(230,0,l),
(230,269,ls),
(230,315,o),
(278,375,o),
(319,375,qs),
(392,375,o),
(392,270,qs),
(392,0,l),
(557,0,l),
(557,308,ls)
);
}
);
width = 617;
}
);
note = h;
unicode = 104;
},
{
glyphname = i;
lastChange = "2022-03-29 16:59:34 +0000";
layers = (
{
hints = (
{
horizontal = 1;
place = (632, 52);
place = (632, 52);
type = Stem;
},
{
place = (90, 46);
place = (90, 46);
type = Stem;
},
{
place = (102, 22);
place = (102, 22);
type = Stem;
}
);
layerId = m01;
shapes = (
{
closed = 1;
nodes = (
(124,0,l),
(124,460,l),
(102,460,l),
(102,0,l)
);
},
{
closed = 1;
nodes = (
(123,650,o),
(130,657,o),
(130,667,cs),
(130,677,o),
(123,684,o),
(113,684,cs),
(103,684,o),
(96,677,o),
(96,667,cs),
(96,657,o),
(103,650,o),
(113,650,cs)
);
}
);
width = 226;
},
{
hints = (
{
horizontal = 1;
place = (0, 796);
place = (0, 796);
type = Stem;
},
{
place = (54, 231);
place = (54, 231);
type = Stem;
},
{
horizontal = 1;
place = (561, 235);
place = (561, 235);
type = Stem;
}
);
layerId = "6CD8BB23-51D6-4109-A2DC-8CCFF044BB0C";
shapes = (
{
closed = 1;
nodes = (
(285,0,l),
(285,526,l),
(54,526,l),
(54,0,l)
);
},
{
closed = 1;
nodes = (
(50,702,o),
(104,650,o),
(171,650,cs),
(235,650,o),
(289,702,o),
(289,767,cs),
(289,831,o),
(234,885,o),
(171,885,cs),
(106,885,o),
(50,831,o),
(50,767,cs)
);
}
);
width = 339;
},
{
hints = (
{
horizontal = 1;
place = (600, 96);
place = (600, 96);
type = Stem;
},
{
place = (91, 68);
place = (91, 68);
type = Stem;
},
{
place = (77, 96);
place = (77, 96);
type = Stem;
}
);
layerId = "80940EE0-8DDD-4B41-B259-288445DE0F27";
shapes = (
{
closed = 1;
nodes = (
(91,468,l),
(91,0,l),
(159,0,l),
(159,468,l)
);
},
{
closed = 1;
nodes = (
(100,745,o),
(77,724,o),
(77,697,cs),
(77,670,o),
(100,649,o),
(125,649,cs),
(150,649,o),
(173,670,o),
(173,697,cs),
(173,724,o),
(150,745,o),
(125,745,cs)
);
}
);
width = 250;
},
{
layerId = "823AF154-79AE-4916-A822-17021D358B90";
shapes = (
{
closed = 1;
nodes = (
(187,830,o),
(109,830,o),
(54,776,o),
(54,740,qs),
(54,703,o),
(109,650,o),
(187,650,o),
(242,702,o),
(242,740,qs),
(242,777,o)
);
},
{
closed = 1;
nodes = (
(66,498,l),
(66,0,l),
(230,0,l),
(230,498,l)
);
}
);
width = 296;
}
);
note = i;
unicode = 105;
},
{
glyphname = j;
lastChange = "2022-03-29 16:59:42 +0000";
layers = (
{
hints = (
{
horizontal = 1;
place = (-241, 19);
place = (-241, 19);
type = Stem;
},
{
horizontal = 1;
place = (632, 52);
place = (632, 52);
type = Stem;
},
{
place = (102, 22);
place = (102, 22);
type = Stem;
},
{
place = (90, 46);
place = (90, 46);
type = Stem;
}
);
layerId = m01;
shapes = (
{
closed = 1;
nodes = (
(99,-241,o),
(124,-197,o),
(124,-97,cs),
(124,460,l),
(102,460,l),
(102,-99,ls),
(102,-173,o),
(89,-222,o),
(12,-222,cs),
(5,-222,o),
(-4,-221,o),
(-13,-219,c),
(-17,-238,l),
(-9,-240,o),
(1,-241,o),
(12,-241,cs)
);
},
{
closed = 1;
nodes = (
(123,650,o),
(130,657,o),
(130,667,cs),
(130,677,o),
(123,684,o),
(113,684,cs),
(103,684,o),
(96,677,o),
(96,667,cs),
(96,657,o),
(103,650,o),
(113,650,cs)
);
}
);
width = 226;
},
{
hints = (
{
horizontal = 1;
place = (-240, 195);
place = (-240, 195);
type = Stem;
},
{
horizontal = 1;
place = (563, 233);
place = (563, 233);
type = Stem;
},
{
place = (61, 231);
place = (61, 231);
type = Stem;
},
{
place = (57, 239);
place = (57, 239);
type = Stem;
}
);
layerId = "6CD8BB23-51D6-4109-A2DC-8CCFF044BB0C";
shapes = (
{
closed = 1;
nodes = (
(-41,-228,l),
(-14,-236,o),
(18,-240,o),
(55,-240,cs),
(213,-240,o),
(292,-156,o),
(292,12,cs),
(292,526,l),
(61,526,l),
(61,19,ls),
(61,-24,o),
(43,-45,o),
(8,-45,cs),
(-5,-45,o),
(-17,-43,o),
(-29,-40,c)
);
},
{
closed = 1;
nodes = (
(113,892,o),
(57,839,o),
(57,771,cs),
(57,703,o),
(113,650,o),
(176,650,cs),
(238,650,o),
(296,703,o),
(296,771,cs),
(296,839,o),
(238,892,o),
(176,892,cs)
);
}
);
width = 346;
},
{
hints = (
{
horizontal = 1;
place = (-240, 58);
place = (-240, 58);
type = Stem;
},
{
horizontal = 1;
place = (600, 96);
place = (600, 96);
type = Stem;
},
{
place = (92, 68);
place = (92, 68);
type = Stem;
},
{
place = (78, 96);
place = (78, 96);
type = Stem;
}
);
layerId = "80940EE0-8DDD-4B41-B259-288445DE0F27";
shapes = (
{
closed = 1;
nodes = (
(-27,-233,l),
(-11,-238,o),
(7,-240,o),
(27,-240,cs),
(116,-240,o),
(160,-191,o),
(160,-93,cs),
(160,468,l),
(92,468,l),
(92,-82,ls),
(92,-149,o),
(79,-182,o),
(26,-182,cs),
(11,-182,o),
(-4,-180,o),
(-17,-176,c)
);
},
{
closed = 1;
nodes = (
(101,746,o),
(78,725,o),
(78,698,cs),
(78,671,o),
(101,650,o),
(126,650,cs),
(151,650,o),
(174,671,o),
(174,698,cs),
(174,725,o),
(151,746,o),
(126,746,cs)
);
}
);
width = 251;
},
{
layerId = "823AF154-79AE-4916-A822-17021D358B90";
shapes = (
{
closed = 1;
nodes = (
(190,831,o),
(112,831,o),
(57,777,o),
(57,741,qs),
(57,704,o),
(112,651,o),
(190,651,o),
(245,703,o),
(245,741,qs),
(245,778,o)
);
},
{
closed = 1;
nodes = (
(69,498,l),
(69,-13,ls),
(69,-55,o),
(43,-100,o),
(9,-100,qs),
(-11,-100,o),
(-26,-95,q),
(-37,-232,l),
(-8,-240,o),
(34,-240,qs),
(92,-240,o),
(173,-205,o),
(215,-139,o),
(233,-63,o),
(233,-13,qs),
(233,498,l)
);
}
);
width = 299;
}
);
note = j;
unicode = 106;
},
{
glyphname = k;
lastChange = "2022-03-19 16:18:40 +0000";
layers = (
{
hints = (
{
horizontal = 1;
place = (0, 756);
place = (0, 756);
type = Stem;
},
{
place = (102, 22);
place = (102, 22);
type = Stem;
}
);
layerId = m01;
shapes = (
{
closed = 1;
nodes = (
(124,0,l),
(124,243,l),
(125,243,l),
(389,0,l),
(422,0,l),
(151,247,l),
(394,460,l),
(363,460,l),
(125,248,l),
(124,248,l),
(124,756,l),
(102,756,l),
(102,0,l)
);
}
);
width = 445;
},
{
hints = (
{
horizontal = 1;
place = (0, 756);
place = (0, 756);
type = Stem;
},
{
place = (53, 231);
place = (53, 231);
type = Stem;
}
);
layerId = "6CD8BB23-51D6-4109-A2DC-8CCFF044BB0C";
shapes = (
{
closed = 1;
nodes = (
(410,0,l),
(679,0,l),
(510,289,l),
(680,526,l),
(412,526,l),
(287,325,l),
(284,325,l),
(284,756,l),
(53,756,l),
(53,0,l),
(284,0,l),
(284,229,l),
(287,229,l)
);
}
);
width = 670;
},
{
hints = (
{
horizontal = 1;
place = (246, 11);
place = (246, 11);
type = Stem;
},
{
place = (92, 68);
place = (92, 68);
type = Stem;
}
);
layerId = "80940EE0-8DDD-4B41-B259-288445DE0F27";
shapes = (
{
closed = 1;
nodes = (
(92,756,l),
(92,0,l),
(160,0,l),
(160,246,l),
(163,246,l),
(401,0,l),
(501,0,l),
(241,254,l),
(477,468,l),
(379,468,l),
(163,257,l),
(160,257,l),
(160,756,l)
);
}
);
width = 510;
},
{
layerId = "823AF154-79AE-4916-A822-17021D358B90";
shapes = (
{
closed = 1;
nodes = (
(392,498,l),
(233,296,l),
(230,296,l),
(230,756,l),
(65,756,l),
(65,0,l),
(230,0,l),
(230,239,l),
(233,239,l),
(396,0,l),
(599,0,l),
(399,273,l),
(591,498,l)
);
}
);
width = 595;
}
);
note = k;
unicode = 107;
},
{
glyphname = l;
lastChange = "2022-03-19 16:18:40 +0000";
layers = (
{
hints = (
{
horizontal = 1;
place = (0, 756);
place = (0, 756);
type = Stem;
},
{
place = (102, 22);
place = (102, 22);
type = Stem;
}
);
layerId = m01;
shapes = (
{
closed = 1;
nodes = (
(124,0,l),
(124,756,l),
(102,756,l),
(102,0,l)
);
}
);
width = 226;
},
{
hints = (
{
horizontal = 1;
place = (0, 756);
place = (0, 756);
type = Stem;
},
{
place = (53, 236);
place = (53, 236);
type = Stem;
}
);
layerId = "6CD8BB23-51D6-4109-A2DC-8CCFF044BB0C";
shapes = (
{
closed = 1;
nodes = (
(289,0,l),
(289,756,l),
(53,756,l),
(53,0,l)
);
}
);
width = 342;
},
{
hints = (
{
horizontal = 1;
place = (0, 756);
place = (0, 756);
type = Stem;
},
{
place = (92, 68);
place = (92, 68);
type = Stem;
}
);
layerId = "80940EE0-8DDD-4B41-B259-288445DE0F27";
shapes = (
{
closed = 1;
nodes = (
(92,756,l),
(92,0,l),
(160,0,l),
(160,756,l)
);
}
);
width = 252;
},
{
layerId = "823AF154-79AE-4916-A822-17021D358B90";
shapes = (
{
closed = 1;
nodes = (
(66,756,l),
(66,0,l),
(232,0,l),
(232,756,l)
);
}
);
width = 298;
}
);
note = l;
unicode = 108;
},
{
glyphname = m;
lastChange = "2022-03-19 16:18:40 +0000";
layers = (
{
hints = (
{
horizontal = 1;
place = (455, 19);
place = (455, 19);
type = Stem;
},
{
place = (105, 22);
place = (105, 22);
type = Stem;
},
{
place = (435, 22);
place = (435, 22);
type = Stem;
},
{
place = (771, 22);
place = (771, 22);
type = Stem;
},
{
place = (105, 21);
place = (105, 21);
type = Stem;
}
);
layerId = m01;
shapes = (
{
closed = 1;
nodes = (
(127,0,l),
(127,230,ls),
(127,367,o),
(201,455,o),
(300,455,cs),
(352,455,o),
(390,432,o),
(409,394,cs),
(428,356,o),
(435,319,o),
(435,276,cs),
(435,0,l),
(457,0,l),
(457,230,ls),
(457,367,o),
(532,455,o),
(631,455,cs),
(730,455,o),
(771,369,o),
(771,276,cs),
(771,0,l),
(793,0,l),
(793,278,ls),
(793,347,o),
(778,404,o),
(728,444,cs),
(703,464,o),
(670,474,o),
(631,474,cs),
(548,474,o),
(479,421,o),
(454,333,c),
(452,333,l),
(435,427,o),
(385,474,o),
(300,474,cs),
(224,474,o),
(155,423,o),
(128,339,c),
(126,339,l),
(126,385,o),
(125,425,o),
(122,460,c),
(100,460,l),
(103,431,o),
(105,393,o),
(105,344,cs),
(105,0,l)
);
}
);
width = 889;
},
{
hints = (
{
horizontal = 1;
place = (352, 188);
place = (352, 188);
type = Stem;
},
{
place = (53, 225);
place = (53, 225);
type = Stem;
},
{
place = (375, 231);
place = (375, 231);
type = Stem;
},
{
place = (697, 231);
place = (697, 231);
type = Stem;
},
{
horizontal = 1;
place = (352, 174);
place = (352, 174);
type = Stem;
},
{
place = (53, 231);
place = (53, 231);
type = Stem;
}
);
layerId = "6CD8BB23-51D6-4109-A2DC-8CCFF044BB0C";
shapes = (
{
closed = 1;
nodes = (
(606,279,ls),
(606,326,o),
(626,352,o),
(654,352,cs),
(685,352,o),
(697,335,o),
(697,280,cs),
(697,0,l),
(928,0,l),
(928,320,ls),
(928,368,o),
(917,415,o),
(890,462,cs),
(863,509,o),
(810,540,o),
(739,540,cs),
(672,540,o),
(619,515,o),
(579,464,c),
(551,515,o),
(501,540,o),
(429,540,cs),
(364,540,o),
(311,508,o),
(280,468,c),
(278,468,l),
(278,526,l),
(53,526,l),
(53,0,l),
(284,0,l),
(284,279,ls),
(284,330,o),
(307,352,o),
(332,352,cs),
(363,352,o),
(375,329,o),
(375,276,cs),
(375,0,l),
(606,0,l)
);
}
);
width = 976;
},
{
hints = (
{
horizontal = 1;
place = (423, 57);
place = (423, 57);
type = Stem;
},
{
place = (90, 65);
place = (90, 65);
type = Stem;
},
{
place = (407, 68);
place = (407, 68);
type = Stem;
},
{
place = (729, 68);
place = (729, 68);
type = Stem;
},
{
place = (90, 68);
place = (90, 68);
type = Stem;
}
);
layerId = "80940EE0-8DDD-4B41-B259-288445DE0F27";
shapes = (
{
closed = 1;
nodes = (
(155,388,l),
(155,408,o),
(154,435,o),
(151,468,c),
(86,468,l),
(89,439,o),
(90,405,o),
(90,365,cs),
(90,0,l),
(158,0,l),
(158,240,ls),
(158,357,o),
(222,423,o),
(294,423,cs),
(379,423,o),
(407,372,o),
(407,273,cs),
(407,0,l),
(475,0,l),
(475,249,ls),
(475,346,o),
(517,423,o),
(608,423,cs),
(689,423,o),
(729,368,o),
(729,259,cs),
(729,0,l),
(797,0,l),
(797,287,ls),
(797,406,o),
(735,480,o),
(619,480,cs),
(542,480,o),
(488,447,o),
(455,381,c),
(430,447,o),
(382,480,o),
(311,480,cs),
(244,480,o),
(185,443,o),
(157,388,c)
);
}
);
width = 883;
},
{
layerId = "823AF154-79AE-4916-A822-17021D358B90";
shapes = (
{
closed = 1;
nodes = (
(864,359,o),
(832,447,o),
(747,512,o),
(683,512,qs),
(578,512,o),
(524,427,q),
(480,512,o),
(374,512,qs),
(322,512,o),
(244,464,o),
(225,429,q),
(223,429,l),
(223,498,l),
(64,498,l),
(64,0,l),
(229,0,l),
(229,270,ls),
(229,316,o),
(273,377,o),
(311,377,qs),
(382,377,o),
(382,284,qs),
(382,0,l),
(546,0,l),
(546,269,ls),
(546,314,o),
(589,377,o),
(629,377,qs),
(700,377,o),
(700,272,qs),
(700,0,l),
(864,0,l),
(864,308,ls)
);
}
);
width = 924;
}
);
note = m;
unicode = 109;
},
{
glyphname = n;
lastChange = "2022-03-19 16:18:40 +0000";
layers = (
{
hints = (
{
horizontal = 1;
place = (455, 19);
place = (455, 19);
type = Stem;
},
{
place = (105, 21);
place = (105, 21);
type = Stem;
},
{
place = (454, 22);
place = (454, 22);
type = Stem;
},
{
place = (105, 22);
place = (105, 22);
type = Stem;
}
);
layerId = m01;
shapes = (
{
closed = 1;
nodes = (
(127,0,l),
(127,230,ls),
(127,367,o),
(206,455,o),
(310,455,cs),
(365,455,o),
(406,430,o),
(426,393,cs),
(446,356,o),
(454,319,o),
(454,276,cs),
(454,0,l),
(476,0,l),
(476,278,ls),
(476,389,o),
(427,474,o),
(310,474,cs),
(229,474,o),
(156,423,o),
(128,339,c),
(126,339,l),
(126,385,o),
(125,425,o),
(122,460,c),
(100,460,l),
(103,431,o),
(105,393,o),
(105,344,cs),
(105,0,l)
);
}
);
width = 572;
},
{
hints = (
{
horizontal = 1;
place = (352, 174);
place = (352, 174);
type = Stem;
},
{
place = (53, 231);
place = (53, 231);
type = Stem;
},
{
place = (386, 232);
place = (386, 232);
type = Stem;
},
{
place = (53, 225);
place = (53, 225);
type = Stem;
}
);
layerId = "6CD8BB23-51D6-4109-A2DC-8CCFF044BB0C";
shapes = (
{
closed = 1;
nodes = (
(284,0,l),
(284,280,ls),
(284,325,o),
(305,352,o),
(336,352,cs),
(369,352,o),
(386,328,o),
(386,280,cs),
(386,0,l),
(618,0,l),
(618,320,ls),
(618,376,o),
(607,424,o),
(580,469,cs),
(553,513,o),
(501,540,o),
(430,540,cs),
(366,540,o),
(308,509,o),
(280,468,c),
(278,468,l),
(278,526,l),
(53,526,l),
(53,0,l)
);
}
);
width = 666;
},
{
hints = (
{
horizontal = 1;
place = (423, 57);
place = (423, 57);
type = Stem;
},
{
place = (90, 68);
place = (90, 68);
type = Stem;
},
{
place = (427, 68);
place = (427, 68);
type = Stem;
},
{
place = (90, 65);
place = (90, 65);
type = Stem;
}
);
layerId = "80940EE0-8DDD-4B41-B259-288445DE0F27";
shapes = (
{
closed = 1;
nodes = (
(86,468,l),
(89,439,o),
(90,405,o),
(90,365,cs),
(90,0,l),
(158,0,l),
(158,240,ls),
(158,357,o),
(221,423,o),
(300,423,cs),
(393,423,o),
(427,364,o),
(427,259,cs),
(427,0,l),
(495,0,l),
(495,287,ls),
(495,406,o),
(433,480,o),
(317,480,cs),
(250,480,o),
(182,441,o),
(157,388,c),
(155,388,l),
(155,408,o),
(154,435,o),
(151,468,c)
);
}
);
width = 581;
},
{
layerId = "823AF154-79AE-4916-A822-17021D358B90";
shapes = (
{
closed = 1;
nodes = (
(556,393,o),
(467,512,o),
(374,512,qs),
(324,512,o),
(243,464,o),
(225,429,q),
(223,429,l),
(223,498,l),
(64,498,l),
(64,0,l),
(229,0,l),
(229,270,ls),
(229,315,o),
(275,377,o),
(317,377,qs),
(391,377,o),
(391,272,qs),
(391,0,l),
(556,0,l),
(556,308,ls)
);
}
);
width = 616;
}
);
note = n;
unicode = 110;
},
{
glyphname = o;
lastChange = "2022-03-19 16:18:40 +0000";
layers = (
{
hints = (
{
horizontal = 1;
place = (-14, 19);
place = (-14, 19);
type = Stem;
},
{
horizontal = 1;
place = (455, 19);
place = (455, 19);
type = Stem;
},
{
place = (62, 22);
place = (62, 22);
type = Stem;
},
{
place = (521, 22);
place = (521, 22);
type = Stem;
}
);
layerId = m01;
shapes = (
{
closed = 1;
nodes = (
(443,-14,o),
(543,88,o),
(543,231,cs),
(543,374,o),
(443,474,o),
(302,474,cs),
(161,474,o),
(62,374,o),
(62,231,cs),
(62,88,o),
(161,-14,o),
(302,-14,cs)
);
},
{
closed = 1;
nodes = (
(170,5,o),
(84,103,o),
(84,231,cs),
(84,359,o),
(170,455,o),
(302,455,cs),
(434,455,o),
(521,359,o),
(521,231,cs),
(521,103,o),
(434,5,o),
(302,5,cs)
);
}
);
width = 605;
},
{
hints = (
{
horizontal = 1;
place = (-20, 196);
place = (-20, 196);
type = Stem;
},
{
horizontal = 1;
place = (351, 195);
place = (351, 195);
type = Stem;
},
{
place = (32, 214);
place = (32, 214);
type = Stem;
},
{
place = (418, 214);
place = (418, 214);
type = Stem;
}
);
layerId = "6CD8BB23-51D6-4109-A2DC-8CCFF044BB0C";
shapes = (
{
closed = 1;
nodes = (
(632,438,o),
(498,546,o),
(331,546,cs),
(164,546,o),
(32,438,o),
(32,265,cs),
(32,90,o),
(164,-20,o),
(331,-20,cs),
(498,-20,o),
(632,90,o),
(632,265,cs)
);
},
{
closed = 1;
nodes = (
(246,324,o),
(290,352,o),
(333,351,cs),
(376,350,o),
(418,321,o),
(418,265,cs),
(418,206,o),
(375,176,o),
(332,177,cs),
(289,177,o),
(246,206,o),
(246,265,cs)
);
}
);
width = 664;
},
{
hints = (
{
horizontal = 1;
place = (-12, 58);
place = (-12, 58);
type = Stem;
},
{
horizontal = 1;
place = (423, 57);
place = (423, 57);
type = Stem;
},
{
place = (56, 72);
place = (56, 72);
type = Stem;
},
{
place = (483, 72);
place = (483, 72);
type = Stem;
}
);
layerId = "80940EE0-8DDD-4B41-B259-288445DE0F27";
shapes = (
{
closed = 1;
nodes = (
(450,-12,o),
(555,93,o),
(555,234,cs),
(555,375,o),
(450,480,o),
(305,480,cs),
(161,480,o),
(56,375,o),
(56,234,cs),
(56,93,o),
(161,-12,o),
(305,-12,cs)
);
},
{
closed = 1;
nodes = (
(412,423,o),
(483,342,o),
(483,234,cs),
(483,126,o),
(412,46,o),
(305,46,cs),
(200,46,o),
(128,127,o),
(128,234,cs),
(128,342,o),
(200,423,o),
(305,423,cs)
);
}
);
width = 611;
},
{
layerId = "823AF154-79AE-4916-A822-17021D358B90";
shapes = (
{
closed = 1;
nodes = (
(315,514,qs),
(199,514,o),
(39,370,o),
(39,132,o),
(199,-16,o),
(315,-16,qs),
(432,-16,o),
(592,132,o),
(592,370,o),
(432,514,o)
);
},
{
closed = 1;
nodes = (
(371,122,o),
(261,122,o),
(198,199,o),
(198,303,o),
(260,378,o),
(370,378,o),
(434,302,o),
(434,251,qs),
(434,199,o)
);
}
);
width = 632;
}
);
note = o;
unicode = 111;
},
{
glyphname = odieresis;
lastChange = "2022-03-19 16:18:40 +0000";
layers = (
{
hints = (
{
horizontal = 1;
place = (-14, 19);
place = (-14, 19);
type = Stem;
},
{
horizontal = 1;
place = (455, 19);
place = (455, 19);
type = Stem;
},
{
horizontal = 1;
place = (632, 52);
place = (632, 52);
type = Stem;
},
{
place = (62, 22);
place = (62, 22);
type = Stem;
},
{
place = (204, 46);
place = (204, 46);
type = Stem;
},
{
place = (358, 46);
place = (358, 46);
type = Stem;
},
{
place = (521, 22);
place = (521, 22);
type = Stem;
}
);
layerId = m01;
shapes = (
{
closed = 1;
nodes = (
(443,-14,o),
(543,88,o),
(543,231,cs),
(543,374,o),
(443,474,o),
(302,474,cs),
(161,474,o),
(62,374,o),
(62,231,cs),
(62,88,o),
(161,-14,o),
(302,-14,cs)
);
},
{
closed = 1;
nodes = (
(170,5,o),
(84,103,o),
(84,231,cs),
(84,359,o),
(170,455,o),
(302,455,cs),
(434,455,o),
(521,359,o),
(521,231,cs),
(521,103,o),
(434,5,o),
(302,5,cs)
);
},
{
closed = 1;
nodes = (
(244,501,o),
(251,508,o),
(251,518,cs),
(251,528,o),
(244,535,o),
(234,535,cs),
(224,535,o),
(217,528,o),
(217,518,cs),
(217,508,o),
(224,501,o),
(234,501,cs)
);
},
{
closed = 1;
nodes = (
(386,501,o),
(393,508,o),
(393,518,cs),
(393,528,o),
(386,535,o),
(376,535,cs),
(366,535,o),
(359,528,o),
(359,518,cs),
(359,508,o),
(366,501,o),
(376,501,cs)
);
}
);
width = 605;
},
{
hints = (
{
horizontal = 1;
place = (-20, 196);
place = (-20, 196);
type = Stem;
},
{
horizontal = 1;
place = (351, 195);
place = (351, 195);
type = Stem;
},
{
horizontal = 1;
place = (580, 197);
place = (580, 197);
type = Stem;
},
{
place = (32, 214);
place = (32, 214);
type = Stem;
},
{
place = (418, 214);
place = (418, 214);
type = Stem;
}
);
layerId = "6CD8BB23-51D6-4109-A2DC-8CCFF044BB0C";
shapes = (
{
closed = 1;
nodes = (
(164,546,o),
(32,438,o),
(32,265,cs),
(32,90,o),
(164,-20,o),
(331,-20,cs),
(498,-20,o),
(632,90,o),
(632,265,cs),
(632,438,o),
(498,546,o),
(331,546,cs)
);
},
{
closed = 1;
nodes = (
(246,322,o),
(287,350,o),
(329,351,cs),
(373,352,o),
(418,323,o),
(418,265,cs),
(418,207,o),
(376,178,o),
(334,177,cs),
(291,175,o),
(246,205,o),
(246,265,cs)
);
},
{
closed = 1;
nodes = (
(357,623,o),
(402,580,o),
(458,580,cs),
(511,580,o),
(557,623,o),
(557,678,cs),
(557,731,o),
(511,777,o),
(458,777,cs),
(403,777,o),
(357,731,o),
(357,678,cs)
);
},
{
closed = 1;
nodes = (
(108,623,o),
(153,580,o),
(209,580,cs),
(262,580,o),
(308,623,o),
(308,678,cs),
(308,731,o),
(262,777,o),
(209,777,cs),
(154,777,o),
(108,731,o),
(108,678,cs)
);
}
);
width = 664;
},
{
hints = (
{
horizontal = 1;
place = (-12, 58);
place = (-12, 58);
type = Stem;
},
{
horizontal = 1;
place = (423, 57);
place = (423, 57);
type = Stem;
},
{
place = (56, 72);
place = (56, 72);
type = Stem;
},
{
place = (483, 72);
place = (483, 72);
type = Stem;
},
{
horizontal = 1;
place = (596, 102);
place = (596, 102);
type = Stem;
},
{
place = (158, 102);
place = (158, 102);
type = Stem;
},
{
place = (350, 102);
place = (350, 102);
type = Stem;
}
);
layerId = "80940EE0-8DDD-4B41-B259-288445DE0F27";
shapes = (
{
closed = 1;
nodes = (
(161,480,o),
(56,375,o),
(56,234,cs),
(56,93,o),
(161,-12,o),
(305,-12,cs),
(450,-12,o),
(555,93,o),
(555,234,cs),
(555,375,o),
(450,480,o),
(305,480,cs)
);
},
{
closed = 1;
nodes = (
(412,423,o),
(483,342,o),
(483,234,cs),
(483,126,o),
(412,46,o),
(305,46,cs),
(200,46,o),
(128,127,o),
(128,234,cs),
(128,342,o),
(200,423,o),
(305,423,cs)
);
},
{
closed = 1;
nodes = (
(238,490,o),
(260,514,o),
(260,541,cs),
(260,568,o),
(238,592,o),
(209,592,cs),
(180,592,o),
(158,568,o),
(158,541,cs),
(158,514,o),
(180,490,o),
(209,490,cs)
);
},
{
closed = 1;
nodes = (
(430,490,o),
(452,514,o),
(452,541,cs),
(452,568,o),
(430,592,o),
(401,592,cs),
(372,592,o),
(350,568,o),
(350,541,cs),
(350,514,o),
(372,490,o),
(401,490,cs)
);
}
);
width = 611;
},
{
layerId = "823AF154-79AE-4916-A822-17021D358B90";
shapes = (
{
closed = 1;
nodes = (
(315,514,qs),
(199,514,o),
(39,370,o),
(39,132,o),
(199,-16,o),
(315,-16,qs),
(432,-16,o),
(592,132,o),
(592,370,o),
(432,514,o)
);
},
{
closed = 1;
nodes = (
(371,122,o),
(261,122,o),
(198,199,o),
(198,303,o),
(260,378,o),
(370,378,o),
(434,302,o),
(434,251,qs),
(434,199,o)
);
},
{
closed = 1;
nodes = (
(424,739,qs),
(389,739,o),
(341,691,o),
(341,658,qs),
(341,624,o),
(389,576,o),
(424,576,qs),
(458,576,o),
(507,624,o),
(507,692,o),
(458,739,o)
);
},
{
closed = 1;
nodes = (
(206,739,qs),
(172,739,o),
(123,691,o),
(123,658,qs),
(123,624,o),
(172,576,o),
(206,576,qs),
(241,576,o),
(290,624,o),
(290,692,o),
(241,739,o)
);
}
);
width = 632;
}
);
note = odieresis;
unicode = 246;
},
{
glyphname = p;
lastChange = "2022-03-19 16:18:40 +0000";
layers = (
{
hints = (
{
horizontal = 1;
place = (-14, 19);
place = (-14, 19);
type = Stem;
},
{
horizontal = 1;
place = (455, 19);
place = (455, 19);
type = Stem;
},
{
place = (102, 22);
place = (102, 22);
type = Stem;
},
{
place = (542, 22);
place = (542, 22);
type = Stem;
},
{
place = (102, 21);
place = (102, 21);
type = Stem;
}
);
layerId = m01;
shapes = (
{
closed = 1;
nodes = (
(124,-240,l),
(124,124,l),
(127,124,l),
(160,37,o),
(243,-14,o),
(334,-14,cs),
(467,-14,o),
(564,89,o),
(564,229,cs),
(564,372,o),
(470,474,o),
(334,474,cs),
(245,474,o),
(166,424,o),
(127,335,c),
(124,335,l),
(124,460,l),
(102,460,l),
(102,-240,l)
);
},
{
closed = 1;
nodes = (
(214,5,o),
(123,106,o),
(123,230,cs),
(123,354,o),
(214,455,o),
(334,455,cs),
(458,455,o),
(542,354,o),
(542,229,cs),
(542,104,o),
(458,5,o),
(334,5,cs)
);
}
);
width = 626;
},
{
hints = (
{
horizontal = 1;
place = (-14, 190);
place = (-14, 190);
type = Stem;
},
{
horizontal = 1;
place = (352, 174);
place = (352, 174);
type = Stem;
},
{
place = (53, 229);
place = (53, 229);
type = Stem;
},
{
place = (448, 214);
place = (448, 214);
type = Stem;
},
{
horizontal = 1;
place = (352, 188);
place = (352, 188);
type = Stem;
},
{
place = (53, 217);
place = (53, 217);
type = Stem;
},
{
place = (53, 219);
place = (53, 219);
type = Stem;
}
);
layerId = "6CD8BB23-51D6-4109-A2DC-8CCFF044BB0C";
shapes = (
{
closed = 1;
nodes = (
(53,-240,l),
(282,-240,l),
(282,41,l),
(284,41,l),
(316,6,o),
(370,-14,o),
(423,-14,cs),
(571,-14,o),
(662,116,o),
(662,265,cs),
(662,412,o),
(570,540,o),
(422,540,cs),
(369,540,o),
(309,516,o),
(272,473,c),
(270,473,l),
(270,526,l),
(53,526,l)
);
},
{
closed = 1;
nodes = (
(448,213,o),
(415,176,o),
(362,176,cs),
(309,176,o),
(272,214,o),
(272,265,cs),
(272,313,o),
(310,352,o),
(362,352,cs),
(415,352,o),
(448,313,o),
(448,265,cs)
);
}
);
width = 694;
},
{
hints = (
{
horizontal = 1;
place = (-12, 58);
place = (-12, 58);
type = Stem;
},
{
horizontal = 1;
place = (423, 57);
place = (423, 57);
type = Stem;
},
{
place = (90, 68);
place = (90, 68);
type = Stem;
},
{
place = (507, 72);
place = (507, 72);
type = Stem;
},
{
place = (90, 60);
place = (90, 60);
type = Stem;
}
);
layerId = "80940EE0-8DDD-4B41-B259-288445DE0F27";
shapes = (
{
closed = 1;
nodes = (
(90,-240,l),
(158,-240,l),
(158,79,l),
(161,79,l),
(200,22,o),
(269,-12,o),
(337,-12,cs),
(481,-12,o),
(579,94,o),
(579,234,cs),
(579,374,o),
(481,480,o),
(337,480,cs),
(268,480,o),
(198,446,o),
(161,387,c),
(158,387,l),
(158,468,l),
(90,468,l)
);
},
{
closed = 1;
nodes = (
(439,423,o),
(507,342,o),
(507,234,cs),
(507,126,o),
(439,46,o),
(330,46,cs),
(226,46,o),
(150,126,o),
(150,234,cs),
(150,342,o),
(226,423,o),
(330,423,cs)
);
}
);
width = 635;
},
{
layerId = "823AF154-79AE-4916-A822-17021D358B90";
shapes = (
{
closed = 1;
nodes = (
(487,512,o),
(382,512,qs),
(330,512,o),
(247,470,o),
(223,437,q),
(220,437,l),
(220,498,l),
(64,498,l),
(64,-240,l),
(228,-240,l),
(228,55,l),
(230,55,l),
(253,23,o),
(335,-14,o),
(381,-14,qs),
(489,-14,o),
(618,141,o),
(618,251,qs),
(618,359,o)
);
},
{
closed = 1;
nodes = (
(397,122,o),
(342,122,qs),
(289,122,o),
(222,199,o),
(222,250,qs),
(222,300,o),
(289,378,o),
(342,378,qs),
(397,378,o),
(459,303,o),
(459,251,qs),
(459,198,o)
);
}
);
width = 657;
}
);
note = p;
unicode = 112;
},
{
glyphname = q;
lastChange = "2022-03-19 16:18:40 +0000";
layers = (
{
hints = (
{
horizontal = 1;
place = (-14, 19);
place = (-14, 19);
type = Stem;
},
{
horizontal = 1;
place = (455, 19);
place = (455, 19);
type = Stem;
},
{
place = (62, 22);
place = (62, 22);
type = Stem;
},
{
place = (502, 22);
place = (502, 22);
type = Stem;
},
{
place = (503, 21);
place = (503, 21);
type = Stem;
}
);
layerId = m01;
shapes = (
{
closed = 1;
nodes = (
(524,-240,l),
(524,460,l),
(502,460,l),
(502,335,l),
(499,335,l),
(460,424,o),
(381,474,o),
(292,474,cs),
(156,474,o),
(62,372,o),
(62,229,cs),
(62,89,o),
(159,-14,o),
(292,-14,cs),
(383,-14,o),
(466,37,o),
(499,124,c),
(502,124,l),
(502,-240,l)
);
},
{
closed = 1;
nodes = (
(168,5,o),
(84,104,o),
(84,229,cs),
(84,354,o),
(168,455,o),
(292,455,cs),
(412,455,o),
(503,354,o),
(503,230,cs),
(503,106,o),
(412,5,o),
(292,5,cs)
);
}
);
width = 626;
},
{
hints = (
{
horizontal = 1;
place = (-14, 190);
place = (-14, 190);
type = Stem;
},
{
horizontal = 1;
place = (352, 174);
place = (352, 174);
type = Stem;
},
{
place = (32, 214);
place = (32, 214);
type = Stem;
},
{
place = (412, 229);
place = (412, 229);
type = Stem;
},
{
place = (424, 217);
place = (424, 217);
type = Stem;
},
{
horizontal = 1;
place = (352, 188);
place = (352, 188);
type = Stem;
},
{
place = (422, 219);
place = (422, 219);
type = Stem;
}
);
layerId = "6CD8BB23-51D6-4109-A2DC-8CCFF044BB0C";
shapes = (
{
closed = 1;
nodes = (
(324,-14,o),
(378,6,o),
(410,41,c),
(412,41,l),
(412,-240,l),
(641,-240,l),
(641,526,l),
(424,526,l),
(424,473,l),
(422,473,l),
(385,516,o),
(325,540,o),
(272,540,cs),
(124,540,o),
(32,412,o),
(32,265,cs),
(32,116,o),
(123,-14,o),
(271,-14,cs)
);
},
{
closed = 1;
nodes = (
(246,313,o),
(279,352,o),
(332,352,cs),
(384,352,o),
(422,313,o),
(422,265,cs),
(422,214,o),
(385,176,o),
(332,176,cs),
(279,176,o),
(246,213,o),
(246,265,cs)
);
}
);
width = 694;
},
{
hints = (
{
horizontal = 1;
place = (-12, 58);
place = (-12, 58);
type = Stem;
},
{
horizontal = 1;
place = (423, 57);
place = (423, 57);
type = Stem;
},
{
place = (56, 72);
place = (56, 72);
type = Stem;
},
{
place = (477, 68);
place = (477, 68);
type = Stem;
},
{
place = (485, 60);
place = (485, 60);
type = Stem;
}
);
layerId = "80940EE0-8DDD-4B41-B259-288445DE0F27";
shapes = (
{
closed = 1;
nodes = (
(477,-240,l),
(545,-240,l),
(545,468,l),
(477,468,l),
(477,387,l),
(474,387,l),
(437,446,o),
(367,480,o),
(298,480,cs),
(154,480,o),
(56,374,o),
(56,234,cs),
(56,94,o),
(154,-12,o),
(298,-12,cs),
(366,-12,o),
(435,22,o),
(474,79,c),
(477,79,l)
);
},
{
closed = 1;
nodes = (
(196,46,o),
(128,126,o),
(128,234,cs),
(128,342,o),
(196,423,o),
(305,423,cs),
(409,423,o),
(485,342,o),
(485,234,cs),
(485,126,o),
(409,46,o),
(305,46,cs)
);
}
);
width = 635;
},
{
layerId = "823AF154-79AE-4916-A822-17021D358B90";
shapes = (
{
closed = 1;
nodes = (
(437,498,l),
(437,437,l),
(434,437,l),
(410,470,o),
(326,512,o),
(274,512,qs),
(169,512,o),
(39,359,o),
(39,251,qs),
(39,141,o),
(167,-14,o),
(276,-14,qs),
(322,-14,o),
(403,23,o),
(427,55,q),
(429,55,l),
(429,-240,l),
(592,-240,l),
(592,498,l)
);
},
{
closed = 1;
nodes = (
(368,122,o),
(315,122,qs),
(260,122,o),
(197,198,o),
(197,251,qs),
(197,303,o),
(260,378,o),
(315,378,qs),
(368,378,o),
(435,300,o),
(435,250,qs),
(435,199,o)
);
}
);
width = 657;
}
);
note = q;
unicode = 113;
},
{
glyphname = r;
lastChange = "2022-03-27 15:04:59 +0000";
layers = (
{
hints = (
{
horizontal = 1;
place = (455, 19);
place = (455, 19);
type = Stem;
},
{
place = (105, 21);
place = (105, 21);
type = Stem;
},
{
place = (105, 22);
place = (105, 22);
type = Stem;
}
);
layerId = m01;
shapes = (
{
closed = 1;
nodes = (
(127,0,l),
(127,238,ls),
(127,310,o),
(147,376,o),
(199,421,cs),
(224,444,o),
(255,455,o),
(292,455,cs),
(297,455,o),
(302,455,o),
(305,454,c),
(305,473,l),
(301,474,o),
(295,474,o),
(287,474,cs),
(215,474,o),
(153,430,o),
(128,339,c),
(126,339,l),
(126,385,o),
(125,425,o),
(122,460,c),
(100,460,l),
(103,431,o),
(105,393,o),
(105,344,cs),
(105,0,l)
);
}
);
width = 317;
},
{
hints = (
{
horizontal = 1;
place = (345, 181);
place = (345, 181);
type = Stem;
},
{
place = (53, 231);
place = (53, 231);
type = Stem;
},
{
horizontal = 1;
place = (345, 195);
place = (345, 195);
type = Stem;
},
{
place = (53, 222);
place = (53, 222);
type = Stem;
}
);
layerId = "6CD8BB23-51D6-4109-A2DC-8CCFF044BB0C";
shapes = (
{
closed = 1;
nodes = (
(284,0,l),
(284,255,ls),
(284,306,o),
(324,345,o),
(383,345,cs),
(402,345,o),
(418,343,o),
(432,339,c),
(450,535,l),
(439,538,o),
(424,540,o),
(406,540,cs),
(349,540,o),
(301,510,o),
(277,466,c),
(275,466,l),
(275,526,l),
(53,526,l),
(53,0,l)
);
}
);
width = 470;
},
{
hints = (
{
horizontal = 1;
place = (417, 63);
place = (417, 63);
type = Stem;
},
{
place = (90, 68);
place = (90, 68);
type = Stem;
},
{
place = (90, 65);
place = (90, 65);
type = Stem;
}
);
layerId = "80940EE0-8DDD-4B41-B259-288445DE0F27";
shapes = (
{
closed = 1;
nodes = (
(60,0,l),
(128,0,l),
(128,240,ls),
(128,357,o),
(186,417,o),
(265,417,cs),
(286,417,o),
(302,415,o),
(313,411,c),
(322,475,l),
(310,478,o),
(295,480,o),
(277,480,cs),
(212,480,o),
(154,443,o),
(127,388,c),
(125,388,l),
(125,408,o),
(124,435,o),
(121,468,c),
(56,468,l),
(59,439,o),
(60,405,o),
(60,365,cs)
);
}
);
width = 330;
},
{
layerId = "823AF154-79AE-4916-A822-17021D358B90";
shapes = (
{
closed = 1;
nodes = (
(359,512,qs),
(315,512,o),
(243,465,o),
(224,426,q),
(222,426,l),
(222,498,l),
(64,498,l),
(64,0,l),
(228,0,l),
(228,256,ls),
(228,296,o),
(286,369,o),
(345,369,qs),
(368,369,o),
(387,364,q),
(394,508,l),
(383,512,o)
);
}
);
width = 414;
}
);
note = r;
unicode = 114;
},
{
glyphname = s;
lastChange = "2022-03-19 16:18:40 +0000";
layers = (
{
hints = (
{
horizontal = 1;
place = (-12, 19);
place = (-12, 19);
type = Stem;
},
{
horizontal = 1;
place = (455, 19);
place = (455, 19);
type = Stem;
},
{
place = (69, 22);
place = (69, 22);
type = Stem;
},
{
place = (339, 22);
place = (339, 22);
type = Stem;
}
);
layerId = m01;
shapes = (
{
closed = 1;
nodes = (
(296,-12,o),
(361,40,o),
(361,120,cs),
(361,159,o),
(346,188,o),
(318,208,cs),
(289,227,o),
(264,236,o),
(221,247,cs),
(180,258,o),
(154,266,o),
(141,272,cs),
(108,288,o),
(91,316,o),
(91,357,cs),
(91,424,o),
(150,455,o),
(210,455,cs),
(262,455,o),
(303,435,o),
(332,396,c),
(351,407,l),
(320,452,o),
(273,474,o),
(210,474,cs),
(134,474,o),
(69,431,o),
(69,356,cs),
(69,283,o),
(110,256,o),
(190,235,cs),
(195,234,o),
(226,226,o),
(234,223,cs),
(238,222,o),
(245,219,o),
(256,216,cs),
(266,213,o),
(273,210,o),
(278,207,cs),
(283,204,o),
(289,201,o),
(297,197,cs),
(325,181,o),
(339,157,o),
(339,118,cs),
(339,50,o),
(277,7,o),
(212,7,cs),
(149,7,o),
(101,30,o),
(68,77,c),
(50,65,l),
(87,14,o),
(140,-12,o),
(211,-12,cs)
);
}
);
width = 415;
},
{
hints = (
{
horizontal = 1;
place = (-20, 157);
place = (-20, 157);
type = Stem;
},
{
horizontal = 1;
place = (383, 163);
place = (383, 163);
type = Stem;
},
{
place = (4, 494);
place = (4, 494);
type = Stem;
}
);
layerId = "6CD8BB23-51D6-4109-A2DC-8CCFF044BB0C";
shapes = (
{
closed = 1;
nodes = (
(484,260,o),
(414,311,o),
(319,331,cs),
(290,337,o),
(271,342,o),
(262,346,cs),
(253,349,o),
(249,354,o),
(249,361,cs),
(249,376,o),
(262,383,o),
(288,383,cs),
(321,383,o),
(355,372,o),
(390,349,c),
(498,478,l),
(431,523,o),
(354,546,o),
(269,546,cs),
(198,546,o),
(129,526,o),
(77,466,cs),
(51,436,o),
(38,400,o),
(38,357,cs),
(38,265,o),
(106,216,o),
(186,197,cs),
(218,190,o),
(240,183,o),
(252,178,cs),
(263,173,o),
(269,166,o),
(269,158,cs),
(269,144,o),
(258,137,o),
(236,137,cs),
(193,137,o),
(153,153,o),
(117,186,c),
(4,55,l),
(67,7,o),
(160,-20,o),
(251,-20,cs),
(304,-20,o),
(356,-7,o),
(404,21,cs),
(452,48,o),
(484,100,o),
(484,167,cs)
);
}
);
width = 513;
},
{
hints = (
{
horizontal = 1;
place = (-12, 58);
place = (-12, 58);
type = Stem;
},
{
horizontal = 1;
place = (423, 57);
place = (423, 57);
type = Stem;
},
{
place = (60, 65);
place = (60, 65);
type = Stem;
},
{
place = (332, 67);
place = (332, 67);
type = Stem;
}
);
layerId = "80940EE0-8DDD-4B41-B259-288445DE0F27";
shapes = (
{
closed = 1;
nodes = (
(391,396,l),
(362,448,o),
(294,480,o),
(227,480,cs),
(134,480,o),
(60,433,o),
(60,344,cs),
(60,303,o),
(78,271,o),
(108,252,cs),
(138,233,o),
(159,226,o),
(194,218,cs),
(243,207,o),
(278,195,o),
(300,182,cs),
(321,169,o),
(332,151,o),
(332,128,cs),
(332,71,o),
(286,46,o),
(222,46,cs),
(169,46,o),
(117,76,o),
(92,119,c),
(38,79,l),
(79,18,o),
(141,-12,o),
(223,-12,cs),
(320,-12,o),
(399,34,o),
(399,133,cs),
(399,205,o),
(348,247,o),
(237,270,cs),
(157,286,o),
(125,307,o),
(125,350,cs),
(125,398,o),
(169,423,o),
(224,423,cs),
(275,423,o),
(319,397,o),
(339,357,c)
);
}
);
width = 444;
},
{
layerId = "823AF154-79AE-4916-A822-17021D358B90";
shapes = (
{
closed = 1;
nodes = (
(247,514,qs),
(166,514,o),
(40,429,o),
(40,347,qs),
(40,236,o),
(185,202,qs),
(241,189,o),
(284,167,o),
(284,123,o),
(249,102,o),
(225,102,qs),
(154,102,o),
(103,158,q),
(11,61,l),
(49,24,o),
(166,-16,o),
(228,-16,qs),
(316,-16,o),
(441,67,o),
(441,154,qs),
(441,270,o),
(282,306,qs),
(229,318,o),
(191,336,o),
(191,376,o),
(227,396,o),
(253,396,qs),
(310,396,o),
(357,351,q),
(447,444,l),
(372,514,o)
);
}
);
width = 472;
}
);
note = s;
unicode = 115;
},
{
glyphname = t;
lastChange = "2022-04-03 13:07:36 +0000";
layers = (
{
hints = (
{
horizontal = 1;
place = (-12, 19);
place = (-12, 19);
type = Stem;
},
{
horizontal = 1;
place = (441, 19);
place = (441, 19);
type = Stem;
},
{
place = (119, 23);
place = (119, 23);
type = Stem;
},
{
place = (120, 22);
place = (120, 22);
type = Stem;
}
);
layerId = m01;
shapes = (
{
closed = 1;
nodes = (
(142,32,o),
(142,65,o),
(142,95,c),
(142,441,l),
(277,441,l),
(277,460,l),
(142,460,l),
(142,595,l),
(119,595,l),
(119,460,l),
(20,460,l),
(20,441,l),
(120,441,l),
(120,95,ls),
(120,30,o),
(120,34,o),
(120,-12,c),
(126,-12,o),
(129,-12,o),
(142,-12,c)
);
}
);
width = 314;
},
{
hints = (
{
horizontal = 1;
place = (-14, 170);
place = (-14, 170);
type = Stem;
},
{
horizontal = 1;
place = (361, 165);
place = (361, 165);
type = Stem;
},
{
place = (74, 223);
place = (74, 223);
type = Stem;
},
{
place = (73, 224);
place = (73, 224);
type = Stem;
}
);
layerId = "6CD8BB23-51D6-4109-A2DC-8CCFF044BB0C";
shapes = (
{
closed = 1;
nodes = (
(126,-14,o),
(228,-14,o),
(297,-14,c),
(297,117,o),
(297,145,o),
(297,221,cs),
(297,361,l),
(411,361,l),
(411,526,l),
(297,526,l),
(297,644,l),
(73,644,l),
(73,526,l),
(0,526,l),
(0,361,l),
(74,361,l),
(74,173,ls),
(74,113,o),
(75,40,o),
(75,-14,c)
);
}
);
width = 426;
},
{
hints = (
{
horizontal = 1;
place = (-6, 58);
place = (-6, 58);
type = Stem;
},
{
horizontal = 1;
place = (411, 57);
place = (411, 57);
type = Stem;
},
{
place = (101, 68);
place = (101, 68);
type = Stem;
}
);
layerId = "80940EE0-8DDD-4B41-B259-288445DE0F27";
shapes = (
{
closed = 1;
nodes = (
(169,468,l),
(169,600,l),
(101,600,l),
(101,468,l),
(4,468,l),
(4,411,l),
(101,411,l),
(101,119,ls),
(101,65,o),
(101,12,o),
(101,-6,c),
(130,-6,o),
(142,-6,o),
(169,-6,c),
(169,42,o),
(169,42,o),
(169,138,cs),
(169,411,l),
(301,411,l),
(301,468,l)
);
}
);
width = 321;
},
{
layerId = "823AF154-79AE-4916-A822-17021D358B90";
shapes = (
{
closed = 1;
nodes = (
(242,498,l),
(242,629,l),
(81,629,l),
(81,498,l),
(2,498,l),
(2,375,l),
(82,375,l),
(82,165,l),
(82,-12,l),
(242,-12,l),
(242,70,l),
(242,375,l),
(359,375,l),
(359,498,l)
);
}
);
width = 382;
}
);
note = t;
unicode = 116;
},
{
glyphname = u;
lastChange = "2022-03-19 16:18:40 +0000";
layers = (
{
hints = (
{
horizontal = 1;
place = (-14, 19);
place = (-14, 19);
type = Stem;
},
{
place = (94, 22);
place = (94, 22);
type = Stem;
},
{
place = (444, 21);
place = (444, 21);
type = Stem;
},
{
place = (443, 22);
place = (443, 22);
type = Stem;
}
);
layerId = m01;
shapes = (
{
closed = 1;
nodes = (
(341,-14,o),
(414,37,o),
(442,121,c),
(444,121,l),
(444,75,o),
(445,35,o),
(448,0,c),
(470,0,l),
(467,29,o),
(465,67,o),
(465,116,cs),
(465,460,l),
(443,460,l),
(443,230,ls),
(443,93,o),
(364,5,o),
(260,5,cs),
(205,5,o),
(164,30,o),
(144,67,cs),
(124,104,o),
(116,141,o),
(116,184,cs),
(116,460,l),
(94,460,l),
(94,182,ls),
(94,71,o),
(143,-14,o),
(260,-14,cs)
);
}
);
width = 572;
},
{
hints = (
{
horizontal = 1;
place = (0, 176);
place = (0, 176);
type = Stem;
},
{
place = (45, 232);
place = (45, 232);
type = Stem;
},
{
place = (379, 231);
place = (379, 231);
type = Stem;
},
{
place = (385, 225);
place = (385, 225);
type = Stem;
}
);
layerId = "6CD8BB23-51D6-4109-A2DC-8CCFF044BB0C";
shapes = (
{
closed = 1;
nodes = (
(379,526,l),
(379,248,ls),
(379,203,o),
(358,176,o),
(327,176,cs),
(294,176,o),
(277,200,o),
(277,248,cs),
(277,526,l),
(45,526,l),
(45,206,ls),
(45,150,o),
(56,102,o),
(83,58,cs),
(110,13,o),
(162,-14,o),
(233,-14,cs),
(297,-14,o),
(355,17,o),
(383,58,c),
(385,58,l),
(385,0,l),
(610,0,l),
(610,526,l)
);
}
);
width = 663;
},
{
hints = (
{
horizontal = 1;
place = (-12, 57);
place = (-12, 57);
type = Stem;
},
{
place = (86, 68);
place = (86, 68);
type = Stem;
},
{
place = (423, 68);
place = (423, 68);
type = Stem;
},
{
place = (426, 65);
place = (426, 65);
type = Stem;
}
);
layerId = "80940EE0-8DDD-4B41-B259-288445DE0F27";
shapes = (
{
closed = 1;
nodes = (
(495,0,l),
(492,29,o),
(491,63,o),
(491,103,cs),
(491,468,l),
(423,468,l),
(423,228,ls),
(423,111,o),
(360,45,o),
(281,45,cs),
(188,45,o),
(154,104,o),
(154,209,cs),
(154,468,l),
(86,468,l),
(86,181,ls),
(86,62,o),
(148,-12,o),
(264,-12,cs),
(331,-12,o),
(399,27,o),
(424,80,c),
(426,80,l),
(426,60,o),
(427,33,o),
(430,0,c)
);
}
);
width = 581;
},
{
layerId = "823AF154-79AE-4916-A822-17021D358B90";
shapes = (
{
closed = 1;
nodes = (
(386,498,l),
(386,229,ls),
(386,184,o),
(339,122,o),
(298,122,qs),
(224,122,o),
(224,228,qs),
(224,498,l),
(59,498,l),
(59,190,ls),
(59,105,o),
(147,-14,o),
(240,-14,qs),
(290,-14,o),
(372,34,o),
(390,69,q),
(392,69,l),
(392,0,l),
(550,0,l),
(550,498,l)
);
}
);
width = 614;
}
);
note = u;
unicode = 117;
},
{
glyphname = udieresis;
lastChange = "2022-04-03 13:22:52 +0000";
layers = (
{
hints = (
{
horizontal = 1;
place = (-14, 19);
place = (-14, 19);
type = Stem;
},
{
horizontal = 1;
place = (632, 52);
place = (632, 52);
type = Stem;
},
{
place = (94, 22);
place = (94, 22);
type = Stem;
},
{
place = (178, 46);
place = (178, 46);
type = Stem;
},
{
place = (332, 46);
place = (332, 46);
type = Stem;
},
{
place = (444, 21);
place = (444, 21);
type = Stem;
},
{
place = (443, 22);
place = (443, 22);
type = Stem;
}
);
layerId = m01;
shapes = (
{
closed = 1;
nodes = (
(341,-14,o),
(414,37,o),
(442,121,c),
(444,121,l),
(444,75,o),
(445,35,o),
(448,0,c),
(470,0,l),
(467,29,o),
(465,67,o),
(465,460,c),
(443,460,l),
(443,230,ls),
(443,93,o),
(364,5,o),
(260,5,cs),
(158,5,o),
(116,86,o),
(116,184,cs),
(116,460,l),
(94,460,l),
(94,182,ls),
(94,71,o),
(143,-14,o),
(260,-14,cs)
);
},
{
closed = 1;
nodes = (
(217,502,o),
(224,509,o),
(224,519,cs),
(224,529,o),
(217,536,o),
(207,536,cs),
(197,536,o),
(190,529,o),
(190,519,cs),
(190,509,o),
(197,502,o),
(207,502,cs)
);
},
{
closed = 1;
nodes = (
(359,502,o),
(366,509,o),
(366,519,cs),
(366,529,o),
(359,536,o),
(349,536,cs),
(339,536,o),
(332,529,o),
(332,519,cs),
(332,509,o),
(339,502,o),
(349,502,cs)
);
}
);
width = 572;
},
{
hints = (
{
horizontal = 1;
place = (0, 176);
place = (0, 176);
type = Stem;
},
{
horizontal = 1;
place = (580, 197);
place = (580, 197);
type = Stem;
},
{
place = (45, 232);
place = (45, 232);
type = Stem;
},
{
place = (379, 231);
place = (379, 231);
type = Stem;
},
{
place = (385, 225);
place = (385, 225);
type = Stem;
}
);
layerId = "6CD8BB23-51D6-4109-A2DC-8CCFF044BB0C";
shapes = (
{
closed = 1;
nodes = (
(297,-14,o),
(355,17,o),
(383,58,c),
(385,58,l),
(385,0,l),
(610,0,l),
(610,526,l),
(379,526,l),
(379,248,ls),
(379,203,o),
(358,176,o),
(327,176,cs),
(294,176,o),
(277,200,o),
(277,248,cs),
(277,526,l),
(45,526,l),
(45,206,ls),
(45,83,o),
(98,-14,o),
(233,-14,cs)
);
},
{
closed = 1;
nodes = (
(258,580,o),
(304,623,o),
(304,678,cs),
(304,731,o),
(258,777,o),
(205,777,cs),
(150,777,o),
(104,731,o),
(104,678,cs),
(104,623,o),
(149,580,o),
(205,580,cs)
);
},
{
closed = 1;
nodes = (
(507,580,o),
(553,623,o),
(553,678,cs),
(553,731,o),
(507,777,o),
(454,777,cs),
(399,777,o),
(353,731,o),
(353,678,cs),
(353,623,o),
(398,580,o),
(454,580,cs)
);
}
);
width = 663;
},
{
layerId = "80940EE0-8DDD-4B41-B259-288445DE0F27";
shapes = (
{
closed = 1;
nodes = (
(237,515,o),
(251,529,o),
(251,550,cs),
(251,571,o),
(237,585,o),
(216,585,cs),
(195,585,o),
(181,571,o),
(181,550,cs),
(181,529,o),
(195,515,o),
(216,515,cs)
);
},
{
closed = 1;
nodes = (
(76,181,ls),
(76,62,o),
(138,-12,o),
(254,-12,cs),
(321,-12,o),
(389,27,o),
(414,80,c),
(416,80,l),
(416,60,o),
(417,33,o),
(420,0,c),
(485,0,l),
(482,29,o),
(481,63,o),
(481,468,c),
(413,468,l),
(413,228,ls),
(413,111,o),
(350,45,o),
(271,45,cs),
(178,45,o),
(144,104,o),
(144,209,cs),
(144,468,l),
(76,468,l)
);
},
{
closed = 1;
nodes = (
(367,515,o),
(381,529,o),
(381,550,cs),
(381,571,o),
(367,585,o),
(346,585,cs),
(325,585,o),
(311,571,o),
(311,550,cs),
(311,529,o),
(325,515,o),
(346,515,cs)
);
}
);
width = 600;
},
{
layerId = "823AF154-79AE-4916-A822-17021D358B90";
shapes = (
{
closed = 1;
nodes = (
(386,498,l),
(386,229,ls),
(386,184,o),
(339,122,o),
(298,122,qs),
(224,122,o),
(224,228,qs),
(224,498,l),
(59,498,l),
(59,190,ls),
(59,105,o),
(147,-14,o),
(240,-14,qs),
(290,-14,o),
(372,34,o),
(390,69,q),
(392,69,l),
(392,0,l),
(550,0,l),
(550,498,l)
);
},
{
closed = 1;
nodes = (
(416,702,qs),
(381,702,o),
(333,654,o),
(333,621,qs),
(333,587,o),
(381,539,o),
(416,539,qs),
(450,539,o),
(499,587,o),
(499,655,o),
(450,702,o)
);
},
{
closed = 1;
nodes = (
(198,702,qs),
(164,702,o),
(115,654,o),
(115,621,qs),
(115,587,o),
(164,539,o),
(198,539,qs),
(233,539,o),
(282,587,o),
(282,655,o),
(233,702,o)
);
}
);
width = 614;
}
);
note = udieresis;
unicode = 252;
},
{
glyphname = v;
lastChange = "2022-03-27 14:47:11 +0000";
layers = (
{
hints = (
{
horizontal = 1;
place = (0, 22);
place = (0, 22);
type = Stem;
},
{
place = (24, 386);
place = (24, 386);
type = Stem;
}
);
layerId = m01;
shapes = (
{
closed = 1;
nodes = (
(221,22,l),
(219,22,l),
(48,460,l),
(24,460,l),
(205,0,l),
(234,0,l),
(410,460,l),
(386,460,l)
);
}
);
width = 434;
},
{
hints = (
{
horizontal = 1;
place = (0, 526);
place = (0, 526);
type = Stem;
},
{
place = (-8, 654);
place = (-8, 654);
type = Stem;
}
);
layerId = "6CD8BB23-51D6-4109-A2DC-8CCFF044BB0C";
shapes = (
{
closed = 1;
nodes = (
(646,526,l),
(399,526,l),
(327,242,l),
(323,242,l),
(248,526,l),
(-8,526,l),
(192,0,l),
(443,0,l)
);
}
);
width = 638;
},
{
hints = (
{
horizontal = 1;
place = (0, 468);
place = (0, 468);
type = Stem;
},
{
place = (16, 456);
place = (16, 456);
type = Stem;
},
{
horizontal = 1;
place = (0, 72);
place = (0, 72);
type = Stem;
}
);
layerId = "80940EE0-8DDD-4B41-B259-288445DE0F27";
shapes = (
{
closed = 1;
nodes = (
(246,72,l),
(244,72,l),
(92,468,l),
(16,468,l),
(207,0,l),
(282,0,l),
(472,468,l),
(399,468,l)
);
}
);
width = 488;
},
{
layerId = "823AF154-79AE-4916-A822-17021D358B90";
shapes = (
{
closed = 1;
nodes = (
(288,175,l),
(285,175,l),
(180,498,l),
(-1,498,l),
(195,0,l),
(372,0,l),
(568,498,l),
(393,498,l)
);
}
);
width = 567;
}
);
note = v;
unicode = 118;
},
{
glyphname = w;
lastChange = "2022-03-27 14:48:07 +0000";
layers = (
{
hints = (
{
horizontal = 1;
place = (0, 22);
place = (0, 22);
type = Stem;
},
{
horizontal = 1;
place = (436, 24);
place = (436, 24);
type = Stem;
},
{
place = (34, 630);
place = (34, 630);
type = Stem;
}
);
layerId = m01;
shapes = (
{
closed = 1;
nodes = (
(515,22,l),
(513,22,l),
(364,460,l),
(333,460,l),
(185,22,l),
(183,22,l),
(57,460,l),
(34,460,l),
(168,0,l),
(198,0,l),
(347,436,l),
(349,436,l),
(499,0,l),
(529,0,l),
(664,460,l),
(641,460,l)
);
}
);
width = 698;
},
{
hints = (
{
horizontal = 1;
place = (0, 526);
place = (0, 526);
type = Stem;
},
{
place = (-5, 983);
place = (-5, 983);
type = Stem;
}
);
layerId = "6CD8BB23-51D6-4109-A2DC-8CCFF044BB0C";
shapes = (
{
closed = 1;
nodes = (
(566,0,l),
(796,0,l),
(978,526,l),
(742,526,l),
(678,254,l),
(675,254,l),
(602,526,l),
(380,526,l),
(312,254,l),
(308,254,l),
(242,526,l),
(-5,526,l),
(175,0,l),
(404,0,l),
(483,270,l),
(485,270,l)
);
}
);
width = 973;
},
{
hints = (
{
horizontal = 1;
place = (0, 88);
place = (0, 88);
type = Stem;
},
{
horizontal = 1;
place = (379, 89);
place = (379, 89);
type = Stem;
},
{
place = (26, 694);
place = (26, 694);
type = Stem;
}
);
layerId = "80940EE0-8DDD-4B41-B259-288445DE0F27";
shapes = (
{
closed = 1;
nodes = (
(248,0,l),
(371,379,l),
(373,379,l),
(498,0,l),
(572,0,l),
(720,468,l),
(648,468,l),
(536,88,l),
(534,88,l),
(406,468,l),
(340,468,l),
(214,88,l),
(212,88,l),
(99,468,l),
(26,468,l),
(174,0,l)
);
}
);
width = 746;
},
{
layerId = "823AF154-79AE-4916-A822-17021D358B90";
shapes = (
{
closed = 1;
nodes = (
(614,183,l),
(612,183,l),
(520,498,l),
(355,498,l),
(266,183,l),
(263,183,l),
(177,498,l),
(0,498,l),
(172,0,l),
(337,0,l),
(433,310,l),
(435,310,l),
(533,0,l),
(698,0,l),
(871,498,l),
(701,498,l)
);
}
);
width = 871;
}
);
note = w;
unicode = 119;
},
{
glyphname = x;
lastChange = "2022-03-19 16:18:40 +0000";
layers = (
{
hints = (
{
horizontal = 1;
place = (0, 460);
place = (0, 460);
type = Stem;
},
{
place = (28, 396);
place = (28, 396);
type = Stem;
}
);
layerId = m01;
shapes = (
{
closed = 1;
nodes = (
(56,0,l),
(224,228,l),
(395,0,l),
(424,0,l),
(239,243,l),
(399,460,l),
(370,460,l),
(225,258,l),
(79,460,l),
(51,460,l),
(210,243,l),
(28,0,l)
);
}
);
width = 452;
},
{
hints = (
{
horizontal = 1;
place = (0, 526);
place = (0, 526);
type = Stem;
},
{
place = (-8, 691);
place = (-8, 691);
type = Stem;
}
);
layerId = "6CD8BB23-51D6-4109-A2DC-8CCFF044BB0C";
shapes = (
{
closed = 1;
nodes = (
(683,0,l),
(484,270,l),
(673,526,l),
(419,526,l),
(344,416,l),
(268,526,l),
(6,526,l),
(195,270,l),
(-8,0,l),
(252,0,l),
(338,119,l),
(419,0,l)
);
}
);
width = 675;
},
{
hints = (
{
horizontal = 1;
place = (0, 468);
place = (0, 468);
type = Stem;
},
{
place = (16, 452);
place = (16, 452);
type = Stem;
}
);
layerId = "80940EE0-8DDD-4B41-B259-288445DE0F27";
shapes = (
{
closed = 1;
nodes = (
(98,0,l),
(241,195,l),
(380,0,l),
(468,0,l),
(282,245,l),
(452,468,l),
(370,468,l),
(242,290,l),
(114,468,l),
(27,468,l),
(200,242,l),
(16,0,l)
);
}
);
width = 484;
},
{
layerId = "823AF154-79AE-4916-A822-17021D358B90";
shapes = (
{
closed = 1;
nodes = (
(579,498,l),
(394,498,l),
(300,365,l),
(207,498,l),
(16,498,l),
(196,261,l),
(-3,0,l),
(187,0,l),
(297,153,l),
(404,0,l),
(597,0,l),
(400,261,l)
);
}
);
width = 594;
}
);
note = x;
unicode = 120;
},
{
glyphname = y;
lastChange = "2022-03-19 16:18:40 +0000";
layers = (
{
hints = (
{
horizontal = 1;
place = (-242, 20);
place = (-242, 20);
type = Stem;
},
{
place = (24, 380);
place = (24, 380);
type = Stem;
}
);
layerId = m01;
shapes = (
{
closed = 1;
nodes = (
(117,-242,o),
(154,-212,o),
(176,-152,cs),
(404,460,l),
(380,460,l),
(217,12,l),
(48,460,l),
(24,460,l),
(206,-13,l),
(162,-133,ls),
(141,-192,o),
(109,-222,o),
(67,-222,cs),
(53,-222,o),
(41,-220,o),
(30,-216,c),
(24,-235,l),
(36,-240,o),
(50,-242,o),
(65,-242,cs)
);
}
);
width = 428;
},
{
hints = (
{
horizontal = 1;
place = (-240, 194);
place = (-240, 194);
type = Stem;
},
{
place = (-8, 654);
place = (-8, 654);
type = Stem;
}
);
layerId = "6CD8BB23-51D6-4109-A2DC-8CCFF044BB0C";
shapes = (
{
closed = 1;
nodes = (
(201,9,ls),
(187,-28,o),
(159,-46,o),
(117,-46,cs),
(96,-46,o),
(75,-42,o),
(52,-34,c),
(23,-224,l),
(64,-235,o),
(108,-240,o),
(154,-240,cs),
(301,-240,o),
(375,-172,o),
(430,-32,cs),
(646,526,l),
(399,526,l),
(330,249,l),
(326,249,l),
(248,526,l),
(-8,526,l),
(205,20,l)
);
}
);
width = 638;
},
{
hints = (
{
horizontal = 1;
place = (-240, 60);
place = (-240, 60);
type = Stem;
},
{
place = (16, 456);
place = (16, 456);
type = Stem;
}
);
layerId = "80940EE0-8DDD-4B41-B259-288445DE0F27";
shapes = (
{
closed = 1;
nodes = (
(16,468,l),
(216,1,l),
(178,-97,ls),
(157,-153,o),
(132,-180,o),
(88,-180,cs),
(71,-180,o),
(54,-177,o),
(38,-172,c),
(31,-234,l),
(51,-238,o),
(71,-240,o),
(92,-240,cs),
(168,-240,o),
(208,-200,o),
(239,-121,cs),
(472,468,l),
(398,468,l),
(253,73,l),
(251,73,l),
(92,468,l)
);
}
);
width = 488;
},
{
layerId = "823AF154-79AE-4916-A822-17021D358B90";
shapes = (
{
closed = 1;
nodes = (
(295,178,l),
(292,178,l),
(181,498,l),
(-1,498,l),
(207,8,l),
(191,-33,ls),
(178,-69,o),
(143,-100,o),
(107,-100,qs),
(83,-100,o),
(54,-91,q),
(36,-229,l),
(80,-240,o),
(126,-240,qs),
(215,-240,o),
(313,-159,o),
(345,-75,qs),
(568,498,l),
(394,498,l)
);
}
);
width = 567;
}
);
note = y;
unicode = 121;
},
{
glyphname = z;
lastChange = "2022-03-19 16:30:59 +0000";
layers = (
{
hints = (
{
horizontal = 1;
place = (0, 19);
place = (0, 19);
type = Stem;
},
{
horizontal = 1;
place = (441, 19);
place = (441, 19);
type = Stem;
},
{
place = (49, 25);
place = (49, 25);
type = Stem;
},
{
place = (353, 22);
place = (353, 22);
type = Stem;
}
);
layerId = m01;
shapes = (
{
closed = 1;
nodes = (
(387,0,l),
(387,19,l),
(74,19,l),
(391,460,l),
(65,460,l),
(65,441,l),
(353,441,l),
(34,0,l)
);
}
);
width = 438;
},
{
hints = (
{
horizontal = 1;
place = (0, 171);
place = (0, 171);
type = Stem;
},
{
horizontal = 1;
place = (355, 171);
place = (355, 171);
type = Stem;
},
{
place = (33, 490);
place = (33, 490);
type = Stem;
},
{
horizontal = 1;
place = (376, 150);
place = (376, 150);
type = Stem;
}
);
layerId = "6CD8BB23-51D6-4109-A2DC-8CCFF044BB0C";
shapes = (
{
closed = 1;
nodes = (
(523,0,l),
(523,171,l),
(304,171,l),
(559,526,l),
(38,526,l),
(38,355,l),
(230,355,l),
(-1,0,l)
);
}
);
width = 557;
},
{
hints = (
{
horizontal = 1;
place = (0, 59);
place = (0, 59);
type = Stem;
},
{
horizontal = 1;
place = (411, 57);
place = (411, 57);
type = Stem;
},
{
place = (31, 380);
place = (31, 380);
type = Stem;
}
);
layerId = "80940EE0-8DDD-4B41-B259-288445DE0F27";
shapes = (
{
closed = 1;
nodes = (
(45,468,l),
(45,411,l),
(310,411,l),
(-6,0,l),
(411,0,l),
(411,59,l),
(121,59,l),
(438,468,l)
);
}
);
width = 442;
},
{
layerId = "823AF154-79AE-4916-A822-17021D358B90";
shapes = (
{
closed = 1;
nodes = (
(256,127,l),
(515,498,l),
(43,498,l),
(43,372,l),
(256,372,l),
(4,0,l),
(478,0,l),
(478,127,l)
);
}
);
width = 512;
}
);
note = z;
unicode = 122;
},
{
glyphname = uni0410;
lastChange = "2022-03-27 15:03:26 +0000";
layers = (
{
hints = (
{
horizontal = 1;
place = (203, 19);
place = (203, 19);
type = Stem;
},
{
horizontal = 1;
place = (694, 14);
place = (694, 14);
type = Stem;
},
{
place = (18, 630);
place = (18, 630);
type = Stem;
}
);
layerId = m01;
shapes = (
{
closed = 1;
nodes = (
(320,708,l),
(13,0,l),
(37,0,l),
(124,203,l),
(535,203,l),
(619,0,l),
(643,0,l),
(348,708,l)
);
},
{
closed = 1;
nodes = (
(333,694,l),
(528,222,l),
(132,222,l)
);
}
);
width = 666;
},
{
hints = (
{
horizontal = 1;
place = (104, 182);
place = (104, 182);
type = Stem;
},
{
place = (-16, 808);
place = (-16, 808);
type = Stem;
}
);
layerId = "6CD8BB23-51D6-4109-A2DC-8CCFF044BB0C";
shapes = (
{
closed = 1;
nodes = (
(270,104,l),
(495,104,l),
(532,0,l),
(791,0,l),
(515,708,l),
(262,708,l),
(-17,0,l),
(235,0,l)
);
},
{
closed = 1;
nodes = (
(385,461,l),
(442,286,l),
(327,286,l)
);
}
);
width = 776;
},
{
hints = (
{
horizontal = 1;
place = (186, 66);
place = (186, 66);
type = Stem;
},
{
place = (10, 680);
place = (10, 680);
type = Stem;
}
);
layerId = "80940EE0-8DDD-4B41-B259-288445DE0F27";
shapes = (
{
closed = 1;
nodes = (
(610,0,l),
(690,0,l),
(386,708,l),
(316,708,l),
(10,0,l),
(89,0,l),
(166,186,l),
(532,186,l)
);
},
{
closed = 1;
nodes = (
(193,252,l),
(349,628,l),
(505,252,l)
);
}
);
width = 700;
},
{
layerId = "823AF154-79AE-4916-A822-17021D358B90";
shapes = (
{
closed = 1;
nodes = (
(285,708,l),
(-12,0,l),
(174,0,l),
(226,139,l),
(500,139,l),
(555,0,l),
(745,0,l),
(451,708,l)
);
},
{
closed = 1;
nodes = (
(365,519,l),
(453,276,l),
(275,276,l)
);
}
);
width = 729;
}
);
note = uni0410;
unicode = 1040;
},
{
glyphname = uni0411;
lastChange = "2022-03-19 16:18:40 +0000";
layers = (
{
hints = (
{
horizontal = 1;
place = (0, 20);
place = (0, 20);
type = Stem;
},
{
horizontal = 1;
place = (363, 20);
place = (363, 20);
type = Stem;
},
{
horizontal = 1;
place = (688, 20);
place = (688, 20);
type = Stem;
},
{
place = (106, 22);
place = (106, 22);
type = Stem;
},
{
place = (520, 22);
place = (520, 22);
type = Stem;
}
);
layerId = m01;
shapes = (
{
closed = 1;
nodes = (
(310,0,ls),
(369,0,o),
(419,12,o),
(466,39,cs),
(513,66,o),
(542,118,o),
(542,187,cs),
(542,318,o),
(442,383,o),
(325,383,cs),
(128,383,l),
(128,688,l),
(492,688,l),
(492,708,l),
(106,708,l),
(106,0,l)
);
},
{
closed = 1;
nodes = (
(128,363,l),
(325,363,ls),
(430,363,o),
(520,304,o),
(520,187,cs),
(520,126,o),
(494,79,o),
(452,55,cs),
(410,31,o),
(363,20,o),
(310,20,cs),
(128,20,l)
);
}
);
width = 603;
},
{
hints = (
{
horizontal = 1;
place = (0, 183);
place = (0, 183);
type = Stem;
},
{
horizontal = 1;
place = (284, 173);
place = (284, 173);
type = Stem;
},
{
horizontal = 1;
place = (519, 189);
place = (519, 189);
type = Stem;
},
{
place = (66, 230);
place = (66, 230);
type = Stem;
}
);
layerId = "6CD8BB23-51D6-4109-A2DC-8CCFF044BB0C";
shapes = (
{
closed = 1;
nodes = (
(385,0,ls),
(482,0,o),
(564,26,o),
(620,98,cs),
(647,133,o),
(661,177,o),
(661,230,cs),
(661,314,o),
(628,377,o),
(575,410,cs),
(522,442,o),
(460,457,o),
(385,457,cs),
(296,457,l),
(296,519,l),
(607,519,l),
(607,708,l),
(66,708,l),
(66,0,l)
);
},
{
closed = 1;
nodes = (
(296,284,l),
(358,284,ls),
(401,284,o),
(422,268,o),
(422,235,cs),
(422,199,o),
(394,183,o),
(358,183,cs),
(296,183,l)
);
}
);
width = 685;
},
{
hints = (
{
horizontal = 1;
place = (0, 62);
place = (0, 62);
type = Stem;
},
{
horizontal = 1;
place = (339, 62);
place = (339, 62);
type = Stem;
},
{
horizontal = 1;
place = (644, 64);
place = (644, 64);
type = Stem;
},
{
place = (94, 72);
place = (94, 72);
type = Stem;
},
{
place = (489, 73);
place = (489, 73);
type = Stem;
}
);
layerId = "80940EE0-8DDD-4B41-B259-288445DE0F27";
shapes = (
{
closed = 1;
nodes = (
(309,0,ls),
(466,0,o),
(562,69,o),
(562,200,cs),
(562,331,o),
(463,401,o),
(307,401,cs),
(166,401,l),
(166,644,l),
(515,644,l),
(515,708,l),
(94,708,l),
(94,0,l)
);
},
{
closed = 1;
nodes = (
(166,339,l),
(301,339,ls),
(422,339,o),
(489,290,o),
(489,199,cs),
(489,108,o),
(426,62,o),
(301,62,cs),
(166,62,l)
);
}
);
width = 630;
},
{
layerId = "823AF154-79AE-4916-A822-17021D358B90";
shapes = (
{
closed = 1;
nodes = (
(471,0,o),
(622,109,o),
(622,218,qs),
(622,330,o),
(473,435,o),
(354,435,qs),
(244,435,l),
(244,569,l),
(571,569,l),
(571,708,l),
(73,708,l),
(73,0,l),
(355,0,ls)
);
},
{
closed = 1;
nodes = (
(336,302,ls),
(450,302,o),
(450,136,o),
(336,136,qs),
(244,136,l),
(244,302,l)
);
}
);
width = 662;
}
);
note = uni0411;
unicode = 1041;
},
{
glyphname = uni0412;
lastChange = "2022-03-19 16:18:40 +0000";
layers = (
{
hints = (
{
horizontal = 1;
place = (0, 20);
place = (0, 20);
type = Stem;
},
{
horizontal = 1;
place = (363, 20);
place = (363, 20);
type = Stem;
},
{
horizontal = 1;
place = (688, 20);
place = (688, 20);
type = Stem;
},
{
place = (106, 22);
place = (106, 22);
type = Stem;
},
{
place = (496, 22);
place = (496, 22);
type = Stem;
},
{
place = (529, 22);
place = (529, 22);
type = Stem;
}
);
layerId = m01;
shapes = (
{
closed = 1;
nodes = (
(323,0,ls),
(439,0,o),
(551,49,o),
(551,189,cs),
(551,302,o),
(462,366,o),
(374,374,c),
(374,376,l),
(457,395,o),
(518,448,o),
(518,541,cs),
(518,665,o),
(419,708,o),
(299,708,cs),
(106,708,l),
(106,0,l)
);
},
{
closed = 1;
nodes = (
(128,363,l),
(324,363,ls),
(437,363,o),
(529,300,o),
(529,186,cs),
(529,74,o),
(444,20,o),
(313,20,cs),
(128,20,l)
);
},
{
closed = 1;
nodes = (
(128,688,l),
(293,688,ls),
(413,688,o),
(496,645,o),
(496,538,cs),
(496,437,o),
(406,383,o),
(298,383,cs),
(128,383,l)
);
}
);
width = 612;
},
{
hints = (
{
horizontal = 1;
place = (0, 187);
place = (0, 187);
type = Stem;
},
{
horizontal = 1;
place = (283, 153);
place = (283, 153);
type = Stem;
},
{
horizontal = 1;
place = (523, 185);
place = (523, 185);
type = Stem;
},
{
place = (66, 222);
place = (66, 222);
type = Stem;
}
);
layerId = "6CD8BB23-51D6-4109-A2DC-8CCFF044BB0C";
shapes = (
{
closed = 1;
nodes = (
(387,0,ls),
(535,0,o),
(662,57,o),
(662,207,cs),
(662,290,o),
(602,351,o),
(529,368,c),
(529,371,l),
(598,398,o),
(633,447,o),
(633,520,cs),
(633,645,o),
(541,708,o),
(357,708,cs),
(66,708,l),
(66,0,l)
);
},
{
closed = 1;
nodes = (
(288,283,l),
(349,283,ls),
(386,283,o),
(422,269,o),
(422,236,cs),
(422,205,o),
(398,187,o),
(359,187,cs),
(288,187,l)
);
},
{
closed = 1;
nodes = (
(288,523,l),
(347,523,ls),
(388,523,o),
(409,510,o),
(409,483,cs),
(409,452,o),
(390,436,o),
(352,436,cs),
(288,436,l)
);
}
);
width = 693;
},
{
hints = (
{
horizontal = 1;
place = (0, 62);
place = (0, 62);
type = Stem;
},
{
horizontal = 1;
place = (339, 59);
place = (339, 59);
type = Stem;
},
{
horizontal = 1;
place = (646, 62);
place = (646, 62);
type = Stem;
},
{
place = (94, 72);
place = (94, 72);
type = Stem;
},
{
place = (495, 73);
place = (495, 73);
type = Stem;
},
{
place = (461, 72);
place = (461, 72);
type = Stem;
}
);
layerId = "80940EE0-8DDD-4B41-B259-288445DE0F27";
shapes = (
{
closed = 1;
nodes = (
(304,0,ls),
(467,0,o),
(568,77,o),
(568,196,cs),
(568,296,o),
(503,362,o),
(408,373,c),
(408,375,l),
(483,392,o),
(533,452,o),
(533,527,cs),
(533,660,o),
(430,708,o),
(305,708,cs),
(94,708,l),
(94,0,l)
);
},
{
closed = 1;
nodes = (
(166,339,l),
(313,339,ls),
(430,339,o),
(495,292,o),
(495,200,cs),
(495,107,o),
(413,62,o),
(300,62,cs),
(166,62,l)
);
},
{
closed = 1;
nodes = (
(166,646,l),
(291,646,ls),
(392,646,o),
(461,607,o),
(461,522,cs),
(461,437,o),
(392,398,o),
(311,398,cs),
(166,398,l)
);
}
);
width = 636;
},
{
layerId = "823AF154-79AE-4916-A822-17021D358B90";
shapes = (
{
closed = 1;
nodes = (
(408,0,o),
(501,22,o),
(580,68,o),
(625,151,o),
(625,206,qs),
(625,273,o),
(544,360,o),
(480,371,q),
(480,373,l),
(534,391,o),
(596,469,o),
(596,526,qs),
(596,577,o),
(553,652,o),
(479,691,o),
(400,708,o),
(355,708,qs),
(73,708,l),
(73,0,l),
(355,0,ls)
);
},
{
closed = 1;
nodes = (
(333,300,ls),
(454,300,o),
(454,222,qs),
(454,138,o),
(334,138,qs),
(238,138,l),
(238,300,l)
);
},
{
closed = 1;
nodes = (
(322,572,ls),
(431,572,o),
(431,503,qs),
(431,466,o),
(378,426,o),
(330,426,qs),
(238,426,l),
(238,572,l)
);
}
);
width = 665;
}
);
note = uni0412;
unicode = 1042;
},
{
glyphname = uni0413;
lastChange = "2022-03-19 16:18:40 +0000";
layers = (
{
hints = (
{
horizontal = 1;
place = (688, 20);
place = (688, 20);
type = Stem;
},
{
place = (106, 22);
place = (106, 22);
type = Stem;
}
);
layerId = m01;
shapes = (
{
closed = 1;
nodes = (
(128,0,l),
(128,688,l),
(472,688,l),
(472,708,l),
(106,708,l),
(106,0,l)
);
}
);
width = 490;
},
{
hints = (
{
horizontal = 1;
place = (507, 201);
place = (507, 201);
type = Stem;
},
{
place = (66, 238);
place = (66, 238);
type = Stem;
}
);
layerId = "6CD8BB23-51D6-4109-A2DC-8CCFF044BB0C";
shapes = (
{
closed = 1;
nodes = (
(304,0,l),
(304,507,l),
(541,507,l),
(541,708,l),
(66,708,l),
(66,0,l)
);
}
);
width = 548;
},
{
hints = (
{
horizontal = 1;
place = (644, 64);
place = (644, 64);
type = Stem;
},
{
place = (94, 72);
place = (94, 72);
type = Stem;
}
);
layerId = "80940EE0-8DDD-4B41-B259-288445DE0F27";
shapes = (
{
closed = 1;
nodes = (
(166,0,l),
(166,644,l),
(496,644,l),
(496,708,l),
(94,708,l),
(94,0,l)
);
}
);
width = 508;
},
{
layerId = "823AF154-79AE-4916-A822-17021D358B90";
shapes = (
{
closed = 1;
nodes = (
(244,562,l),
(518,562,l),
(518,708,l),
(73,708,l),
(73,0,l),
(244,0,l)
);
}
);
width = 523;
}
);
note = uni0413;
unicode = 1043;
},
{
glyphname = uni0414;
lastChange = "2022-03-19 16:18:40 +0000";
layers = (
{
hints = (
{
horizontal = 1;
place = (0, 20);
place = (0, 20);
type = Stem;
},
{
horizontal = 1;
place = (688, 20);
place = (688, 20);
type = Stem;
},
{
place = (18, 22);
place = (18, 22);
type = Stem;
},
{
place = (210, 22);
place = (210, 22);
type = Stem;
},
{
place = (593, 22);
place = (593, 22);
type = Stem;
},
{
place = (675, 22);
place = (675, 22);
type = Stem;
}
);
layerId = m01;
shapes = (
{
closed = 1;
nodes = (
(40,-186,l),
(40,0,l),
(675,0,l),
(675,-186,l),
(697,-186,l),
(697,20,l),
(615,20,l),
(615,708,l),
(210,708,l),
(210,507,ls),
(210,271,o),
(164,109,o),
(72,20,c),
(18,20,l),
(18,-186,l)
);
},
{
closed = 1;
nodes = (
(188,113,o),
(232,276,o),
(232,507,cs),
(232,688,l),
(593,688,l),
(593,20,l),
(101,20,l)
);
}
);
width = 729;
},
{
hints = (
{
horizontal = 1;
place = (0, 201);
place = (0, 201);
type = Stem;
},
{
horizontal = 1;
place = (509, 199);
place = (509, 199);
type = Stem;
},
{
place = (10, 206);
place = (10, 206);
type = Stem;
},
{
place = (519, 238);
place = (519, 238);
type = Stem;
},
{
place = (627, 206);
place = (627, 206);
type = Stem;
},
{
place = (151, 230);
place = (151, 230);
type = Stem;
}
);
layerId = "6CD8BB23-51D6-4109-A2DC-8CCFF044BB0C";
shapes = (
{
closed = 1;
nodes = (
(216,-135,l),
(216,0,l),
(627,0,l),
(627,-135,l),
(833,-135,l),
(833,201,l),
(757,201,l),
(757,708,l),
(151,708,l),
(151,536,ls),
(151,387,o),
(126,275,o),
(75,201,c),
(10,201,l),
(10,-135,l)
);
},
{
closed = 1;
nodes = (
(323,201,l),
(362,271,o),
(381,371,o),
(381,500,cs),
(381,509,l),
(519,509,l),
(519,201,l)
);
}
);
width = 843;
},
{
hints = (
{
horizontal = 1;
place = (0, 64);
place = (0, 64);
type = Stem;
},
{
horizontal = 1;
place = (644, 64);
place = (644, 64);
type = Stem;
},
{
place = (16, 68);
place = (16, 68);
type = Stem;
},
{
place = (197, 70);
place = (197, 70);
type = Stem;
},
{
place = (560, 72);
place = (560, 72);
type = Stem;
},
{
place = (644, 68);
place = (644, 68);
type = Stem;
}
);
layerId = "80940EE0-8DDD-4B41-B259-288445DE0F27";
shapes = (
{
closed = 1;
nodes = (
(84,-174,l),
(84,0,l),
(644,0,l),
(644,-174,l),
(712,-174,l),
(712,64,l),
(632,64,l),
(632,708,l),
(197,708,l),
(197,516,ls),
(197,301,o),
(156,150,o),
(73,64,c),
(16,64,l),
(16,-174,l)
);
},
{
closed = 1;
nodes = (
(164,64,l),
(233,157,o),
(267,307,o),
(267,516,cs),
(267,644,l),
(560,644,l),
(560,64,l)
);
}
);
width = 750;
},
{
layerId = "823AF154-79AE-4916-A822-17021D358B90";
shapes = (
{
closed = 1;
nodes = (
(162,0,l),
(634,0,l),
(634,-151,l),
(784,-151,l),
(784,146,l),
(706,146,l),
(706,708,l),
(170,708,l),
(170,528,ls),
(170,265,o),
(74,146,q),
(12,146,l),
(12,-151,l),
(162,-151,l)
);
},
{
closed = 1;
nodes = (
(335,506,qs),
(335,563,l),
(535,563,l),
(535,146,l),
(259,146,l),
(335,265,o)
);
}
);
width = 804;
}
);
note = uni0414;
unicode = 1044;
},
{
glyphname = uni0415;
lastChange = "2022-03-19 16:18:40 +0000";
layers = (
{
hints = (
{
horizontal = 1;
place = (0, 20);
place = (0, 20);
type = Stem;
},
{
horizontal = 1;
place = (357, 20);
place = (357, 20);
type = Stem;
},
{
horizontal = 1;
place = (688, 20);
place = (688, 20);
type = Stem;
},
{
place = (106, 21);
place = (106, 21);
type = Stem;
}
);
layerId = m01;
shapes = (
{
closed = 1;
nodes = (
(534,0,l),
(534,20,l),
(127,20,l),
(127,357,l),
(495,357,l),
(495,377,l),
(127,377,l),
(127,688,l),
(518,688,l),
(518,708,l),
(106,708,l),
(106,0,l)
);
}
);
width = 590;
},
{
hints = (
{
horizontal = 1;
place = (0, 198);
place = (0, 198);
type = Stem;
},
{
horizontal = 1;
place = (264, 185);
place = (264, 185);
type = Stem;
},
{
horizontal = 1;
place = (510, 198);
place = (510, 198);
type = Stem;
},
{
place = (66, 224);
place = (66, 224);
type = Stem;
}
);
layerId = "6CD8BB23-51D6-4109-A2DC-8CCFF044BB0C";
shapes = (
{
closed = 1;
nodes = (
(570,0,l),
(570,198,l),
(290,198,l),
(290,264,l),
(537,264,l),
(537,449,l),
(290,449,l),
(290,510,l),
(553,510,l),
(553,708,l),
(66,708,l),
(66,0,l)
);
}
);
width = 603;
},
{
hints = (
{
horizontal = 1;
place = (0, 64);
place = (0, 64);
type = Stem;
},
{
horizontal = 1;
place = (337, 63);
place = (337, 63);
type = Stem;
},
{
horizontal = 1;
place = (644, 64);
place = (644, 64);
type = Stem;
},
{
place = (94, 72);
place = (94, 72);
type = Stem;
}
);
layerId = "80940EE0-8DDD-4B41-B259-288445DE0F27";
shapes = (
{
closed = 1;
nodes = (
(545,0,l),
(545,64,l),
(166,64,l),
(166,337,l),
(509,337,l),
(509,400,l),
(166,400,l),
(166,644,l),
(533,644,l),
(533,708,l),
(94,708,l),
(94,0,l)
);
}
);
width = 592;
},
{
layerId = "823AF154-79AE-4916-A822-17021D358B90";
shapes = (
{
closed = 1;
nodes = (
(567,146,l),
(238,146,l),
(238,293,l),
(532,293,l),
(532,430,l),
(238,430,l),
(238,563,l),
(549,563,l),
(549,708,l),
(73,708,l),
(73,0,l),
(567,0,l)
);
}
);
width = 607;
}
);
note = uni0415;
unicode = 1045;
},
{
glyphname = uni0416;
lastChange = "2022-03-19 16:18:40 +0000";
layers = (
{
hints = (
{
horizontal = 1;
place = (0, 708);
place = (0, 708);
type = Stem;
},
{
place = (427, 22);
place = (427, 22);
type = Stem;
}
);
layerId = m01;
shapes = (
{
closed = 1;
nodes = (
(61,0,l),
(426,381,l),
(427,381,l),
(427,0,l),
(449,0,l),
(449,381,l),
(450,381,l),
(815,0,l),
(846,0,l),
(478,383,l),
(828,708,l),
(796,708,l),
(450,383,l),
(449,383,l),
(449,708,l),
(427,708,l),
(427,383,l),
(426,383,l),
(80,708,l),
(48,708,l),
(398,383,l),
(30,0,l)
);
}
);
width = 876;
},
{
hints = (
{
horizontal = 1;
place = (0, 708);
place = (0, 708);
type = Stem;
},
{
place = (441, 238);
place = (441, 238);
type = Stem;
},
{
place = (441, 237);
place = (441, 237);
type = Stem;
}
);
layerId = "6CD8BB23-51D6-4109-A2DC-8CCFF044BB0C";
shapes = (
{
closed = 1;
nodes = (
(264,0,l),
(439,302,l),
(441,302,l),
(441,0,l),
(679,0,l),
(679,302,l),
(681,302,l),
(855,0,l),
(1138,0,l),
(893,384,l),
(1125,708,l),
(854,708,l),
(680,427,l),
(678,427,l),
(678,708,l),
(441,708,l),
(441,427,l),
(439,427,l),
(265,708,l),
(-5,708,l),
(226,384,l),
(-18,0,l)
);
}
);
width = 1120;
},
{
hints = (
{
horizontal = 1;
place = (0, 708);
place = (0, 708);
type = Stem;
},
{
place = (449, 72);
place = (449, 72);
type = Stem;
}
);
layerId = "80940EE0-8DDD-4B41-B259-288445DE0F27";
shapes = (
{
closed = 1;
nodes = (
(107,0,l),
(448,377,l),
(449,377,l),
(449,0,l),
(521,0,l),
(521,377,l),
(522,377,l),
(863,0,l),
(969,0,l),
(605,387,l),
(949,708,l),
(846,708,l),
(522,390,l),
(521,390,l),
(521,708,l),
(449,708,l),
(449,390,l),
(448,390,l),
(124,708,l),
(21,708,l),
(365,387,l),
(1,0,l)
);
}
);
width = 970;
},
{
layerId = "823AF154-79AE-4916-A822-17021D358B90";
shapes = (
{
closed = 1;
nodes = (
(438,332,l),
(439,332,l),
(439,0,l),
(610,0,l),
(610,332,l),
(612,332,l),
(853,0,l),
(1068,0,l),
(778,385,l),
(1052,708,l),
(846,708,l),
(611,412,l),
(609,412,l),
(609,708,l),
(439,708,l),
(439,412,l),
(438,412,l),
(203,708,l),
(-2,708,l),
(270,385,l),
(-18,0,l),
(195,0,l)
);
}
);
width = 1050;
}
);
note = uni0416;
unicode = 1046;
},
{
glyphname = uni0417;
lastChange = "2022-03-19 16:18:40 +0000";
layers = (
{
hints = (
{
horizontal = 1;
place = (-20, 20);
place = (-20, 20);
type = Stem;
},
{
horizontal = 1;
place = (363, 20);
place = (363, 20);
type = Stem;
},
{
horizontal = 1;
place = (708, 20);
place = (708, 20);
type = Stem;
},
{
place = (465, 22);
place = (465, 22);
type = Stem;
},
{
horizontal = 1;
place = (363, 11);
place = (363, 11);
type = Stem;
},
{
place = (441, 22);
place = (441, 22);
type = Stem;
}
);
layerId = m01;
shapes = (
{
closed = 1;
nodes = (
(393,-20,o),
(487,66,o),
(487,194,cs),
(487,291,o),
(417,363,o),
(321,374,c),
(321,375,l),
(401,391,o),
(463,456,o),
(463,545,cs),
(463,658,o),
(386,728,o),
(262,728,cs),
(189,728,o),
(120,699,o),
(80,648,c),
(96,633,l),
(135,683,o),
(191,708,o),
(263,708,cs),
(370,708,o),
(441,645,o),
(441,545,cs),
(441,444,o),
(358,383,o),
(249,383,cs),
(198,383,l),
(198,363,l),
(258,363,ls),
(378,363,o),
(465,297,o),
(465,194,cs),
(465,79,o),
(377,0,o),
(260,0,cs),
(183,0,o),
(118,27,o),
(67,82,c),
(50,67,l),
(103,9,o),
(173,-20,o),
(260,-20,cs)
);
}
);
width = 557;
},
{
hints = (
{
horizontal = 1;
place = (-20, 196);
place = (-20, 196);
type = Stem;
},
{
horizontal = 1;
place = (280, 164);
place = (280, 164);
type = Stem;
},
{
horizontal = 1;
place = (533, 195);
place = (533, 195);
type = Stem;
},
{
place = (-5, 607);
place = (-5, 607);
type = Stem;
}
);
layerId = "6CD8BB23-51D6-4109-A2DC-8CCFF044BB0C";
shapes = (
{
closed = 1;
nodes = (
(381,-20,o),
(449,-2,o),
(506,33,cs),
(563,68,o),
(602,128,o),
(602,201,cs),
(602,288,o),
(560,344,o),
(476,371,c),
(476,375,l),
(539,394,o),
(589,455,o),
(589,536,cs),
(589,655,o),
(480,728,o),
(311,728,cs),
(192,728,o),
(95,693,o),
(18,622,c),
(142,478,l),
(179,515,o),
(226,533,o),
(283,533,cs),
(327,533,o),
(349,519,o),
(349,492,cs),
(349,460,o),
(321,444,o),
(265,444,cs),
(184,444,l),
(184,280,l),
(252,280,ls),
(320,280,o),
(355,268,o),
(355,228,cs),
(355,193,o),
(322,176,o),
(274,176,cs),
(202,176,o),
(163,199,o),
(124,242,c),
(-5,87,l),
(75,15,o),
(157,-20,o),
(310,-20,cs)
);
}
);
width = 633;
},
{
hints = (
{
horizontal = 1;
place = (-18, 62);
place = (-18, 62);
type = Stem;
},
{
horizontal = 1;
place = (339, 62);
place = (339, 62);
type = Stem;
},
{
horizontal = 1;
place = (665, 61);
place = (665, 61);
type = Stem;
},
{
place = (441, 73);
place = (441, 73);
type = Stem;
},
{
place = (419, 68);
place = (419, 68);
type = Stem;
}
);
layerId = "80940EE0-8DDD-4B41-B259-288445DE0F27";
shapes = (
{
closed = 1;
nodes = (
(405,-18,o),
(514,65,o),
(514,196,cs),
(514,287,o),
(448,354,o),
(359,371,c),
(359,373,l),
(435,393,o),
(487,454,o),
(487,535,cs),
(487,656,o),
(399,726,o),
(263,726,cs),
(168,726,o),
(95,690,o),
(58,639,c),
(113,594,l),
(147,641,o),
(198,665,o),
(266,665,cs),
(347,665,o),
(419,609,o),
(419,538,cs),
(419,443,o),
(349,401,o),
(244,401,cs),
(203,401,l),
(203,339,l),
(244,339,ls),
(355,339,o),
(441,295,o),
(441,196,cs),
(441,105,o),
(359,44,o),
(267,44,cs),
(191,44,o),
(125,81,o),
(92,133,c),
(30,87,l),
(83,19,o),
(173,-18,o),
(266,-18,cs)
);
}
);
width = 582;
},
{
layerId = "823AF154-79AE-4916-A822-17021D358B90";
shapes = (
{
closed = 1;
nodes = (
(489,27,o),
(571,130,o),
(571,199,qs),
(571,267,o),
(495,354,o),
(433,371,q),
(433,374,l),
(484,388,o),
(550,474,o),
(550,536,qs),
(550,625,o),
(410,727,o),
(293,727,qs),
(132,727,o),
(36,629,q),
(135,524,l),
(189,586,o),
(278,586,qs),
(317,586,o),
(379,545,o),
(379,510,qs),
(379,427,o),
(258,427,qs),
(197,427,l),
(197,304,l),
(254,304,ls),
(395,304,o),
(395,215,qs),
(395,173,o),
(325,123,o),
(276,123,qs),
(175,123,o),
(116,198,q),
(14,87,l),
(118,-19,o),
(302,-19,qs),
(369,-19,o)
);
}
);
width = 611;
}
);
note = uni0417;
unicode = 1047;
},
{
glyphname = uni0418;
lastChange = "2022-03-27 14:51:03 +0000";
layers = (
{
hints = (
{
horizontal = 1;
place = (0, 28);
place = (0, 28);
type = Stem;
},
{
horizontal = 1;
place = (679, 29);
place = (679, 29);
type = Stem;
},
{
place = (106, 22);
place = (106, 22);
type = Stem;
},
{
place = (619, 22);
place = (619, 22);
type = Stem;
}
);
layerId = m01;
shapes = (
{
closed = 1;
nodes = (
(616,679,l),
(619,679,l),
(619,0,l),
(641,0,l),
(641,708,l),
(609,708,l),
(131,28,l),
(128,28,l),
(128,708,l),
(106,708,l),
(106,0,l),
(137,0,l)
);
}
);
width = 747;
},
{
hints = (
{
horizontal = 1;
place = (0, 708);
place = (0, 708);
type = Stem;
},
{
place = (66, 226);
place = (66, 226);
type = Stem;
},
{
place = (525, 226);
place = (525, 226);
type = Stem;
}
);
layerId = "6CD8BB23-51D6-4109-A2DC-8CCFF044BB0C";
shapes = (
{
closed = 1;
nodes = (
(521,358,l),
(525,358,l),
(525,0,l),
(751,0,l),
(751,708,l),
(504,708,l),
(296,329,l),
(292,329,l),
(292,708,l),
(66,708,l),
(66,0,l),
(319,0,l)
);
}
);
width = 817;
},
{
hints = (
{
horizontal = 1;
place = (0, 112);
place = (0, 112);
type = Stem;
},
{
horizontal = 1;
place = (602, 106);
place = (602, 106);
type = Stem;
},
{
place = (94, 72);
place = (94, 72);
type = Stem;
},
{
place = (567, 72);
place = (567, 72);
type = Stem;
}
);
layerId = "80940EE0-8DDD-4B41-B259-288445DE0F27";
shapes = (
{
closed = 1;
nodes = (
(565,602,l),
(567,602,l),
(567,0,l),
(639,0,l),
(639,708,l),
(558,708,l),
(168,112,l),
(166,112,l),
(166,708,l),
(94,708,l),
(94,0,l),
(175,0,l)
);
}
);
width = 733;
},
{
layerId = "823AF154-79AE-4916-A822-17021D358B90";
shapes = (
{
closed = 1;
nodes = (
(526,455,l),
(529,455,l),
(529,0,l),
(698,0,l),
(698,708,l),
(518,708,l),
(246,242,l),
(242,242,l),
(242,708,l),
(73,708,l),
(73,0,l),
(256,0,l)
);
}
);
width = 771;
}
);
note = uni0418;
unicode = 1048;
},
{
glyphname = uni0419;
lastChange = "2022-03-27 15:01:25 +0000";
layers = (
{
hints = (
{
horizontal = 1;
place = (0, 28);
place = (0, 28);
type = Stem;
},
{
horizontal = 1;
place = (679, 29);
place = (679, 29);
type = Stem;
},
{
horizontal = 1;
place = (772, 20);
place = (772, 20);
type = Stem;
},
{
place = (106, 22);
place = (106, 22);
type = Stem;
},
{
place = (619, 22);
place = (619, 22);
type = Stem;
}
);
layerId = m01;
shapes = (
{
closed = 1;
nodes = (
(443,772,o),
(490,821,o),
(499,894,c),
(482,894,l),
(452,756,o),
(296,756,o),
(266,894,c),
(249,894,l),
(258,821,o),
(305,772,o),
(374,772,cs)
);
},
{
closed = 1;
nodes = (
(616,679,l),
(619,679,l),
(619,0,l),
(641,0,l),
(641,708,l),
(609,708,l),
(131,28,l),
(128,28,l),
(128,708,l),
(106,708,l),
(106,0,l),
(137,0,l)
);
}
);
width = 747;
},
{
hints = (
{
horizontal = 1;
place = (763, 113);
place = (763, 113);
type = Stem;
},
{
place = (66, 226);
place = (66, 226);
type = Stem;
},
{
place = (525, 226);
place = (525, 226);
type = Stem;
}
);
layerId = "6CD8BB23-51D6-4109-A2DC-8CCFF044BB0C";
shapes = (
{
closed = 1;
nodes = (
(210,933,l),
(229,816,o),
(294,763,o),
(405,763,cs),
(516,763,o),
(581,816,o),
(600,933,c),
(487,933,l),
(479,843,o),
(331,843,o),
(323,933,c)
);
},
{
closed = 1;
nodes = (
(66,-211,l)
);
},
{
closed = 1;
nodes = (
(521,358,l),
(525,358,l),
(525,0,l),
(751,0,l),
(751,708,l),
(504,708,l),
(296,329,l),
(292,329,l),
(292,708,l),
(66,708,l),
(66,0,l),
(319,0,l)
);
}
);
width = 817;
},
{
hints = (
{
horizontal = 1;
place = (0, 112);
place = (0, 112);
type = Stem;
},
{
horizontal = 1;
place = (602, 106);
place = (602, 106);
type = Stem;
},
{
horizontal = 1;
place = (776, 54);
place = (776, 54);
type = Stem;
},
{
place = (94, 72);
place = (94, 72);
type = Stem;
},
{
place = (567, 72);
place = (567, 72);
type = Stem;
}
);
layerId = "80940EE0-8DDD-4B41-B259-288445DE0F27";
shapes = (
{
closed = 1;
nodes = (
(220,913,l),
(228,826,o),
(285,776,o),
(366,776,cs),
(447,776,o),
(504,826,o),
(512,913,c),
(466,913,l),
(446,802,o),
(286,802,o),
(266,913,c)
);
},
{
closed = 1;
nodes = (
(565,602,l),
(567,602,l),
(567,0,l),
(639,0,l),
(639,708,l),
(558,708,l),
(168,112,l),
(166,112,l),
(166,708,l),
(94,708,l),
(94,0,l),
(175,0,l)
);
}
);
width = 733;
},
{
layerId = "823AF154-79AE-4916-A822-17021D358B90";
shapes = (
{
closed = 1;
nodes = (
(554,921,q),
(468,921,l),
(464,890,o),
(416,854,o),
(341,854,o),
(293,890,o),
(289,921,q),
(204,921,l),
(215,842,o),
(308,764,o),
(450,764,o),
(542,842,o)
);
},
{
closed = 1;
nodes = (
(526,455,l),
(529,455,l),
(529,0,l),
(698,0,l),
(698,708,l),
(518,708,l),
(246,242,l),
(242,242,l),
(242,708,l),
(73,708,l),
(73,0,l),
(256,0,l)
);
}
);
width = 771;
}
);
note = uni0419;
unicode = 1049;
},
{
glyphname = uni041A;
lastChange = "2022-03-19 16:18:40 +0000";
layers = (
{
hints = (
{
horizontal = 1;
place = (0, 708);
place = (0, 708);
type = Stem;
},
{
place = (106, 22);
place = (106, 22);
type = Stem;
}
);
layerId = m01;
shapes = (
{
closed = 1;
nodes = (
(128,0,l),
(128,381,l),
(129,381,l),
(504,0,l),
(535,0,l),
(157,383,l),
(517,708,l),
(485,708,l),
(129,383,l),
(128,383,l),
(128,708,l),
(106,708,l),
(106,0,l)
);
}
);
width = 565;
},
{
hints = (
{
horizontal = 1;
place = (0, 708);
place = (0, 708);
type = Stem;
},
{
place = (66, 232);
place = (66, 232);
type = Stem;
}
);
layerId = "6CD8BB23-51D6-4109-A2DC-8CCFF044BB0C";
shapes = (
{
closed = 1;
nodes = (
(298,0,l),
(298,282,l),
(300,282,l),
(489,0,l),
(781,0,l),
(502,384,l),
(768,708,l),
(488,708,l),
(299,447,l),
(298,447,l),
(298,708,l),
(66,708,l),
(66,0,l)
);
}
);
width = 763;
},
{
hints = (
{
horizontal = 1;
place = (0, 708);
place = (0, 708);
type = Stem;
},
{
place = (94, 72);
place = (94, 72);
type = Stem;
}
);
layerId = "80940EE0-8DDD-4B41-B259-288445DE0F27";
shapes = (
{
closed = 1;
nodes = (
(166,0,l),
(166,377,l),
(167,377,l),
(521,0,l),
(627,0,l),
(250,387,l),
(607,708,l),
(504,708,l),
(167,390,l),
(166,390,l),
(166,708,l),
(94,708,l),
(94,0,l)
);
}
);
width = 628;
},
{
layerId = "823AF154-79AE-4916-A822-17021D358B90";
shapes = (
{
closed = 1;
nodes = (
(241,326,l),
(243,326,l),
(506,0,l),
(729,0,l),
(406,382,l),
(711,708,l),
(497,708,l),
(244,420,l),
(241,420,l),
(241,708,l),
(73,708,l),
(73,0,l),
(241,0,l)
);
}
);
width = 711;
}
);
note = uni041A;
unicode = 1050;
},
{
glyphname = uni041B;
lastChange = "2022-03-19 16:18:40 +0000";
layers = (
{
hints = (
{
horizontal = 1;
place = (-7, 20);
place = (-7, 20);
type = Stem;
},
{
horizontal = 1;
place = (688, 20);
place = (688, 20);
type = Stem;
},
{
place = (242, 22);
place = (242, 22);
type = Stem;
},
{
place = (615, 22);
place = (615, 22);
type = Stem;
}
);
layerId = m01;
shapes = (
{
closed = 1;
nodes = (
(136,-7,o),
(191,41,o),
(222,141,cs),
(253,241,o),
(264,362,o),
(264,546,cs),
(264,688,l),
(615,688,l),
(615,0,l),
(637,0,l),
(637,708,l),
(242,708,l),
(242,546,ls),
(242,370,o),
(232,252,o),
(205,156,cs),
(177,59,o),
(128,13,o),
(53,13,cs),
(44,13,o),
(32,15,o),
(15,18,c),
(10,-2,l),
(24,-5,o),
(38,-7,o),
(53,-7,cs)
);
}
);
width = 743;
},
{
hints = (
{
horizontal = 1;
place = (-7, 199);
place = (-7, 199);
type = Stem;
},
{
horizontal = 1;
place = (509, 199);
place = (509, 199);
type = Stem;
},
{
place = (154, 228);
place = (154, 228);
type = Stem;
},
{
place = (526, 238);
place = (526, 238);
type = Stem;
}
);
layerId = "6CD8BB23-51D6-4109-A2DC-8CCFF044BB0C";
shapes = (
{
closed = 1;
nodes = (
(212,-7,o),
(271,17,o),
(316,82,cs),
(361,146,o),
(382,258,o),
(382,429,cs),
(382,509,l),
(526,509,l),
(526,0,l),
(764,0,l),
(764,708,l),
(154,708,l),
(154,394,ls),
(154,306,o),
(144,248,o),
(124,223,cs),
(104,198,o),
(88,192,o),
(61,192,cs),
(45,192,o),
(31,194,o),
(19,198,c),
(4,5,l),
(36,-3,o),
(76,-7,o),
(123,-7,cs)
);
}
);
width = 830;
},
{
hints = (
{
horizontal = 1;
place = (-7, 66);
place = (-7, 66);
type = Stem;
},
{
horizontal = 1;
place = (645, 63);
place = (645, 63);
type = Stem;
},
{
place = (222, 70);
place = (222, 70);
type = Stem;
},
{
place = (574, 72);
place = (574, 72);
type = Stem;
}
);
layerId = "80940EE0-8DDD-4B41-B259-288445DE0F27";
shapes = (
{
closed = 1;
nodes = (
(151,-7,o),
(209,36,o),
(242,121,cs),
(275,206,o),
(292,338,o),
(292,519,cs),
(292,645,l),
(574,645,l),
(574,0,l),
(646,0,l),
(646,708,l),
(222,708,l),
(222,555,ls),
(222,432,o),
(217,334,o),
(206,263,cs),
(184,119,o),
(138,59,o),
(57,59,cs),
(46,59,o),
(31,62,o),
(14,67,c),
(1,2,l),
(22,-4,o),
(45,-7,o),
(69,-7,cs)
);
}
);
width = 740;
},
{
layerId = "823AF154-79AE-4916-A822-17021D358B90";
shapes = (
{
closed = 1;
nodes = (
(350,210,o),
(350,465,qs),
(350,563,l),
(555,563,l),
(555,0,l),
(726,0,l),
(726,708,l),
(186,708,l),
(186,458,ls),
(186,334,o),
(155,189,o),
(104,139,o),
(63,139,qs),
(41,139,o),
(21,146,q),
(7,4,l),
(44,-7,o),
(105,-7,qs),
(234,-7,o)
);
}
);
width = 799;
}
);
note = uni041B;
unicode = 1051;
},
{
glyphname = uni041C;
lastChange = "2022-03-27 15:00:19 +0000";
layers = (
{
hints = (
{
horizontal = 1;
place = (0, 32);
place = (0, 32);
type = Stem;
},
{
horizontal = 1;
place = (683, 25);
place = (683, 25);
type = Stem;
},
{
place = (106, 22);
place = (106, 22);
type = Stem;
},
{
place = (778, 22);
place = (778, 22);
type = Stem;
}
);
layerId = m01;
shapes = (
{
closed = 1;
nodes = (
(761,708,l),
(453,32,l),
(145,708,l),
(106,708,l),
(106,0,l),
(128,0,l),
(128,683,l),
(131,683,l),
(443,0,l),
(461,0,l),
(774,683,l),
(778,683,l),
(778,0,l),
(800,0,l),
(800,708,l)
);
}
);
width = 906;
},
{
hints = (
{
horizontal = 1;
place = (0, 708);
place = (0, 708);
type = Stem;
},
{
place = (66, 216.5);
place = (66, 216.5);
type = Stem;
},
{
place = (714.5, 227.5);
place = (714.5, 227.5);
type = Stem;
}
);
layerId = "6CD8BB23-51D6-4109-A2DC-8CCFF044BB0C";
shapes = (
{
closed = 1;
nodes = (
(580,0,l),
(712,399,l),
(718,398,l),
(711,0,l),
(942,0,l),
(942,708,l),
(621,708,l),
(510,327,l),
(505,327,l),
(377,708,l),
(66,708,l),
(66,0,l),
(288,0,l),
(277,400,l),
(282,400,l),
(412,0,l)
);
}
);
width = 1008;
},
{
hints = (
{
horizontal = 1;
place = (615, 93);
place = (615, 93);
type = Stem;
},
{
place = (94, 72);
place = (94, 72);
type = Stem;
},
{
place = (720, 72);
place = (720, 72);
type = Stem;
}
);
layerId = "80940EE0-8DDD-4B41-B259-288445DE0F27";
shapes = (
{
closed = 1;
nodes = (
(94,0,l),
(166,0,l),
(166,615,l),
(168,615,l),
(424,0,l),
(462,0,l),
(718,615,l),
(720,615,l),
(720,0,l),
(792,0,l),
(792,708,l),
(682,708,l),
(445,122,l),
(444,122,l),
(204,708,l),
(94,708,l)
);
}
);
width = 886;
},
{
layerId = "823AF154-79AE-4916-A822-17021D358B90";
shapes = (
{
closed = 1;
nodes = (
(635,708,l),
(481,254,l),
(477,254,l),
(316,708,l),
(73,708,l),
(73,0,l),
(234,0,l),
(230,501,l),
(233,501,l),
(412,0,l),
(532,0,l),
(716,501,l),
(719,501,l),
(715,0,l),
(882,0,l),
(882,708,l)
);
}
);
width = 955;
}
);
note = uni041C;
unicode = 1052;
},
{
glyphname = uni041D;
lastChange = "2022-04-05 08:46:03 +0000";
layers = (
{
hints = (
{
horizontal = 1;
place = (356, 20);
place = (356, 20);
type = Stem;
},
{
place = (106, 22);
place = (106, 22);
type = Stem;
},
{
place = (604, 22);
place = (604, 22);
type = Stem;
}
);
layerId = m01;
shapes = (
{
closed = 1;
nodes = (
(128,0,l),
(128,356,l),
(604,356,l),
(604,0,l),
(626,0,l),
(626,708,l),
(604,708,l),
(604,376,l),
(128,376,l),
(128,708,l),
(106,708,l),
(106,0,l)
);
}
);
width = 732;
},
{
hints = (
{
horizontal = 1;
place = (269, 199);
place = (269, 199);
type = Stem;
},
{
place = (66, 238);
place = (66, 238);
type = Stem;
},
{
place = (498, 238);
place = (498, 238);
type = Stem;
}
);
layerId = "6CD8BB23-51D6-4109-A2DC-8CCFF044BB0C";
shapes = (
{
closed = 1;
nodes = (
(304,0,l),
(304,269,l),
(498,269,l),
(498,0,l),
(736,0,l),
(736,708,l),
(498,708,l),
(498,468,l),
(304,468,l),
(304,708,l),
(66,708,l),
(66,0,l)
);
}
);
width = 802;
},
{
hints = (
{
horizontal = 1;
place = (335, 66);
place = (335, 66);
type = Stem;
},
{
place = (94, 72);
place = (94, 72);
type = Stem;
},
{
place = (552, 72);
place = (552, 72);
type = Stem;
}
);
layerId = "80940EE0-8DDD-4B41-B259-288445DE0F27";
shapes = (
{
closed = 1;
nodes = (
(166,0,l),
(166,335,l),
(552,335,l),
(552,0,l),
(624,0,l),
(624,708,l),
(552,708,l),
(552,401,l),
(166,401,l),
(166,708,l),
(94,708,l),
(94,0,l)
);
}
);
width = 688;
},
{
layerId = "823AF154-79AE-4916-A822-17021D358B90";
shapes = (
{
closed = 1;
nodes = (
(244,296,l),
(520,296,l),
(520,0,l),
(691,0,l),
(691,708,l),
(520,708,l),
(520,440,l),
(244,440,l),
(244,708,l),
(73,708,l),
(73,0,l),
(244,0,l)
);
}
);
width = 764;
}
);
note = uni041D;
unicode = 1053;
},
{
glyphname = uni041E;
lastChange = "2022-03-19 16:18:40 +0000";
layers = (
{
hints = (
{
horizontal = 1;
place = (-20, 20);
place = (-20, 20);
type = Stem;
},
{
horizontal = 1;
place = (708, 20);
place = (708, 20);
type = Stem;
},
{
place = (72, 22);
place = (72, 22);
type = Stem;
},
{
place = (778, 22);
place = (778, 22);
type = Stem;
}
);
layerId = m01;
shapes = (
{
closed = 1;
nodes = (
(645,-20,o),
(800,137,o),
(800,354,cs),
(800,571,o),
(647,728,o),
(436,728,cs),
(225,728,o),
(72,571,o),
(72,354,cs),
(72,137,o),
(227,-20,o),
(436,-20,cs)
);
},
{
closed = 1;
nodes = (
(236,0,o),
(94,154,o),
(94,354,cs),
(94,554,o),
(237,708,o),
(436,708,cs),
(635,708,o),
(778,554,o),
(778,354,cs),
(778,154,o),
(637,0,o),
(436,0,cs)
);
}
);
width = 872;
},
{
hints = (
{
horizontal = 1;
place = (-20, 220);
place = (-20, 220);
type = Stem;
},
{
horizontal = 1;
place = (510, 218);
place = (510, 218);
type = Stem;
},
{
place = (34, 253);
place = (34, 253);
type = Stem;
},
{
place = (567, 254);
place = (567, 254);
type = Stem;
}
);
layerId = "6CD8BB23-51D6-4109-A2DC-8CCFF044BB0C";
shapes = (
{
closed = 1;
nodes = (
(34,134,o),
(200,-20,o),
(427,-20,cs),
(654,-20,o),
(821,134,o),
(821,358,cs),
(821,581,o),
(655,728,o),
(427,728,cs),
(199,728,o),
(34,581,o),
(34,358,cs)
);
},
{
closed = 1;
nodes = (
(346,200,o),
(287,266,o),
(287,358,cs),
(287,449,o),
(346,510,o),
(427,510,cs),
(508,510,o),
(567,449,o),
(567,358,cs),
(567,266,o),
(507,200,o),
(427,200,cs)
);
}
);
width = 855;
},
{
hints = (
{
horizontal = 1;
place = (-18, 64);
place = (-18, 64);
type = Stem;
},
{
horizontal = 1;
place = (663, 63);
place = (663, 63);
type = Stem;
},
{
place = (56, 76);
place = (56, 76);
type = Stem;
},
{
place = (718, 76);
place = (718, 76);
type = Stem;
}
);
layerId = "80940EE0-8DDD-4B41-B259-288445DE0F27";
shapes = (
{
closed = 1;
nodes = (
(794,569,o),
(637,726,o),
(425,726,cs),
(213,726,o),
(56,569,o),
(56,354,cs),
(56,139,o),
(213,-18,o),
(425,-18,cs),
(637,-18,o),
(794,139,o),
(794,354,cs)
);
},
{
closed = 1;
nodes = (
(132,526,o),
(249,663,o),
(425,663,cs),
(601,663,o),
(718,526,o),
(718,354,cs),
(718,182,o),
(601,46,o),
(425,46,cs),
(249,46,o),
(132,182,o),
(132,354,cs)
);
}
);
width = 850;
},
{
layerId = "823AF154-79AE-4916-A822-17021D358B90";
shapes = (
{
closed = 1;
nodes = (
(811,190,o),
(811,357,qs),
(811,525,o),
(594,727,o),
(425,727,qs),
(257,727,o),
(40,525,o),
(40,357,qs),
(40,190,o),
(258,-19,o),
(425,-19,qs),
(593,-19,o)
);
},
{
closed = 1;
nodes = (
(223,357,qs),
(223,451,o),
(336,573,o),
(514,573,o),
(628,451,o),
(628,357,qs),
(628,261,o),
(514,137,o),
(336,137,o),
(223,261,o)
);
}
);
width = 851;
}
);
note = uni041E;
unicode = 1054;
},
{
glyphname = uni041F;
lastChange = "2022-03-19 16:18:40 +0000";
layers = (
{
hints = (
{
horizontal = 1;
place = (688, 20);
place = (688, 20);
type = Stem;
},
{
place = (106, 22);
place = (106, 22);
type = Stem;
},
{
place = (594, 22);
place = (594, 22);
type = Stem;
}
);
layerId = m01;
shapes = (
{
closed = 1;
nodes = (
(128,0,l),
(128,688,l),
(594,688,l),
(594,0,l),
(616,0,l),
(616,708,l),
(106,708,l),
(106,0,l)
);
}
);
width = 722;
},
{
hints = (
{
horizontal = 1;
place = (509, 199);
place = (509, 199);
type = Stem;
},
{
place = (66, 238);
place = (66, 238);
type = Stem;
},
{
place = (498, 238);
place = (498, 238);
type = Stem;
}
);
layerId = "6CD8BB23-51D6-4109-A2DC-8CCFF044BB0C";
shapes = (
{
closed = 1;
nodes = (
(304,0,l),
(304,509,l),
(498,509,l),
(498,0,l),
(736,0,l),
(736,708,l),
(66,708,l),
(66,0,l)
);
}
);
width = 802;
},
{
hints = (
{
horizontal = 1;
place = (644, 64);
place = (644, 64);
type = Stem;
},
{
place = (94, 72);
place = (94, 72);
type = Stem;
},
{
place = (552, 72);
place = (552, 72);
type = Stem;
}
);
layerId = "80940EE0-8DDD-4B41-B259-288445DE0F27";
shapes = (
{
closed = 1;
nodes = (
(166,0,l),
(166,644,l),
(552,644,l),
(552,0,l),
(624,0,l),
(624,708,l),
(94,708,l),
(94,0,l)
);
}
);
width = 718;
},
{
layerId = "823AF154-79AE-4916-A822-17021D358B90";
shapes = (
{
closed = 1;
nodes = (
(244,563,l),
(516,563,l),
(516,0,l),
(687,0,l),
(687,708,l),
(73,708,l),
(73,0,l),
(244,0,l)
);
}
);
width = 760;
}
);
note = uni041F;
unicode = 1055;
},
{
glyphname = uni0420;
lastChange = "2022-03-19 16:18:40 +0000";
layers = (
{
hints = (
{
horizontal = 1;
place = (347, 20);
place = (347, 20);
type = Stem;
},
{
horizontal = 1;
place = (688, 20);
place = (688, 20);
type = Stem;
},
{
place = (106, 22);
place = (106, 22);
type = Stem;
},
{
place = (495, 22);
place = (495, 22);
type = Stem;
}
);
layerId = m01;
shapes = (
{
closed = 1;
nodes = (
(128,0,l),
(128,347,l),
(311,347,ls),
(428,347,o),
(517,416,o),
(517,532,cs),
(517,656,o),
(416,708,o),
(298,708,cs),
(106,708,l),
(106,0,l)
);
},
{
closed = 1;
nodes = (
(128,688,l),
(307,688,ls),
(401,688,o),
(495,646,o),
(495,532,cs),
(495,423,o),
(412,367,o),
(312,367,cs),
(128,367,l)
);
}
);
width = 572;
},
{
hints = (
{
horizontal = 1;
place = (228, 181);
place = (228, 181);
type = Stem;
},
{
horizontal = 1;
place = (523, 185);
place = (523, 185);
type = Stem;
},
{
place = (66, 237);
place = (66, 237);
type = Stem;
},
{
place = (425, 235);
place = (425, 235);
type = Stem;
}
);
layerId = "6CD8BB23-51D6-4109-A2DC-8CCFF044BB0C";
shapes = (
{
closed = 1;
nodes = (
(303,0,l),
(303,228,l),
(370,228,ls),
(528,228,o),
(660,304,o),
(660,470,cs),
(660,640,o),
(534,708,o),
(370,708,cs),
(66,708,l),
(66,0,l)
);
},
{
closed = 1;
nodes = (
(303,523,l),
(353,523,ls),
(401,523,o),
(425,505,o),
(425,468,cs),
(425,429,o),
(393,409,o),
(353,409,cs),
(303,409,l)
);
}
);
width = 684;
},
{
hints = (
{
horizontal = 1;
place = (329, 61);
place = (329, 61);
type = Stem;
},
{
horizontal = 1;
place = (646, 62);
place = (646, 62);
type = Stem;
},
{
place = (94, 72);
place = (94, 72);
type = Stem;
},
{
place = (461, 72);
place = (461, 72);
type = Stem;
}
);
layerId = "80940EE0-8DDD-4B41-B259-288445DE0F27";
shapes = (
{
closed = 1;
nodes = (
(166,0,l),
(166,329,l),
(292,329,ls),
(440,329,o),
(533,395,o),
(533,519,cs),
(533,643,o),
(442,708,o),
(294,708,cs),
(94,708,l),
(94,0,l)
);
},
{
closed = 1;
nodes = (
(166,646,l),
(288,646,ls),
(403,646,o),
(461,604,o),
(461,519,cs),
(461,435,o),
(400,390,o),
(288,390,cs),
(166,390,l)
);
}
);
width = 580;
},
{
layerId = "823AF154-79AE-4916-A822-17021D358B90";
shapes = (
{
closed = 1;
nodes = (
(244,267,l),
(329,267,ls),
(408,267,o),
(529,308,o),
(610,412,o),
(610,490,qs),
(610,605,o),
(459,708,o),
(333,708,qs),
(73,708,l),
(73,0,l),
(244,0,l)
);
},
{
closed = 1;
nodes = (
(319,570,ls),
(439,570,o),
(439,489,qs),
(439,403,o),
(316,403,qs),
(244,403,l),
(244,570,l)
);
}
);
width = 640;
}
);
note = uni0420;
unicode = 1056;
},
{
glyphname = uni0421;
lastChange = "2022-04-05 08:45:59 +0000";
layers = (
{
hints = (
{
horizontal = 1;
place = (-20, 20);
place = (-20, 20);
type = Stem;
},
{
horizontal = 1;
place = (708, 20);
place = (708, 20);
type = Stem;
},
{
place = (72, 22);
place = (72, 22);
type = Stem;
}
);
layerId = m01;
shapes = (
{
closed = 1;
nodes = (
(649,102,l),
(596,37,o),
(503,0,o),
(412,0,cs),
(211,0,o),
(73,154,o),
(73,354,cs),
(73,554,o),
(213,708,o),
(412,708,cs),
(492,708,o),
(580,678,o),
(633,621,c),
(647,637,l),
(589,698,o),
(511,728,o),
(412,728,cs),
(201,728,o),
(51,571,o),
(51,354,cs),
(51,137,o),
(200,-20,o),
(412,-20,cs),
(511,-20,o),
(608,18,o),
(665,87,c)
);
}
);
width = 726;
},
{
hints = (
{
horizontal = 1;
place = (-20, 223);
place = (-20, 223);
type = Stem;
},
{
horizontal = 1;
place = (507, 221);
place = (507, 221);
type = Stem;
},
{
place = (34, 256);
place = (34, 256);
type = Stem;
}
);
layerId = "6CD8BB23-51D6-4109-A2DC-8CCFF044BB0C";
shapes = (
{
closed = 1;
nodes = (
(34,134,o),
(202,-20,o),
(419,-20,cs),
(534,-20,o),
(626,15,o),
(696,85,c),
(550,260,l),
(523,222,o),
(484,203,o),
(433,203,cs),
(353,203,o),
(290,265,o),
(290,354,cs),
(290,446,o),
(352,507,o),
(433,507,cs),
(485,507,o),
(524,489,o),
(550,454,c),
(696,630,l),
(631,690,o),
(527,728,o),
(419,728,cs),
(200,728,o),
(34,577,o),
(34,354,cs)
);
}
);
width = 746;
},
{
hints = (
{
horizontal = 1;
place = (-18, 63);
place = (-18, 63);
type = Stem;
},
{
horizontal = 1;
place = (663, 63);
place = (663, 63);
type = Stem;
},
{
place = (56, 76);
place = (56, 76);
type = Stem;
}
);
layerId = "80940EE0-8DDD-4B41-B259-288445DE0F27";
shapes = (
{
closed = 1;
nodes = (
(624,150,l),
(577,80,o),
(508,45,o),
(416,45,cs),
(240,45,o),
(122,182,o),
(122,354,cs),
(122,526,o),
(239,663,o),
(416,663,cs),
(500,663,o),
(574,621,o),
(607,570,c),
(667,614,l),
(618,682,o),
(519,726,o),
(415,726,cs),
(203,726,o),
(46,569,o),
(46,354,cs),
(46,139,o),
(202,-18,o),
(415,-18,cs),
(535,-18,o),
(629,37,o),
(680,114,c)
);
}
);
width = 750;
},
{
layerId = "823AF154-79AE-4916-A822-17021D358B90";
shapes = (
{
closed = 1;
nodes = (
(526,138,o),
(427,138,qs),
(338,138,o),
(226,259,o),
(226,355,qs),
(226,449,o),
(341,572,o),
(430,572,qs),
(473,572,o),
(550,539,o),
(573,507,q),
(689,623,l),
(646,672,o),
(501,727,o),
(424,727,qs),
(259,727,o),
(40,522,o),
(40,355,qs),
(40,190,o),
(256,-19,o),
(421,-19,qs),
(595,-19,o),
(696,98,q),
(577,210,l)
);
}
);
width = 711;
}
);
note = uni0421;
unicode = 1057;
},
{
glyphname = uni0422;
lastChange = "2022-03-19 16:18:40 +0000";
layers = (
{
hints = (
{
horizontal = 1;
place = (688, 20);
place = (688, 20);
type = Stem;
},
{
place = (259, 22);
place = (259, 22);
type = Stem;
}
);
layerId = m01;
shapes = (
{
closed = 1;
nodes = (
(281,0,l),
(281,688,l),
(522,688,l),
(522,708,l),
(18,708,l),
(18,688,l),
(259,688,l),
(259,0,l)
);
}
);
width = 540;
},
{
hints = (
{
horizontal = 1;
place = (507, 201);
place = (507, 201);
type = Stem;
},
{
place = (181, 238);
place = (181, 238);
type = Stem;
}
);
layerId = "6CD8BB23-51D6-4109-A2DC-8CCFF044BB0C";
shapes = (
{
closed = 1;
nodes = (
(419,0,l),
(419,507,l),
(593,507,l),
(593,708,l),
(7,708,l),
(7,507,l),
(181,507,l),
(181,0,l)
);
}
);
width = 600;
},
{
hints = (
{
horizontal = 1;
place = (644, 64);
place = (644, 64);
type = Stem;
},
{
place = (249, 72);
place = (249, 72);
type = Stem;
}
);
layerId = "80940EE0-8DDD-4B41-B259-288445DE0F27";
shapes = (
{
closed = 1;
nodes = (
(321,0,l),
(321,644,l),
(558,644,l),
(558,708,l),
(12,708,l),
(12,644,l),
(249,644,l),
(249,0,l)
);
}
);
width = 570;
},
{
layerId = "823AF154-79AE-4916-A822-17021D358B90";
shapes = (
{
closed = 1;
nodes = (
(376,562,l),
(576,562,l),
(576,708,l),
(5,708,l),
(5,562,l),
(205,562,l),
(205,0,l),
(376,0,l)
);
}
);
width = 581;
}
);
note = uni0422;
unicode = 1058;
},
